<svg xmlns="http://www.w3.org/2000/svg" fill="none" viewBox="0 0 240 181" preserveAspectRatio="none"><path fill="#D6D6D6" d="M236.606 97.53c-2.809-1.339-6.268-.764-9.357-.609-2.206.15-4.373.235-6.571.31-2.394.088-4.803.126-7.227.118-3.75.029-8.185-.238-11.136 1.52-3.913 2.176-4.001 7.934-.056 10.104 2.556 1.358 5.683.885 8.495.981 3.63.088 7.273.161 10.895-.123 3.688-.219 7.594-.158 11.296-.767 4.028-.615 7.502-2.216 7.008-6.883v-.029c-.262-2.013-1.54-3.772-3.347-4.619v-.003Zm3.224 32.995c-.088-3.421-.454-6.947-.503-10.384-.101-2.128-.216-4.256-1.157-6.151-1.678-3.531-6.76-4.611-9.2-1.32-2.275 3.175-2.088 7.623-2.229 11.349-.083 2.665-.949 4.464-3.67 4.758-1.23.155-2.711.021-4.162-.091-1.647-.134-3.282-.265-4.942-.329-5.191-.112-16.313-.27-19.839 2.74-2.451 1.997-2.747 6.367-.28 8.492 2.178 1.932 5.672 1.916 8.641 1.852 2.163-.069 4.362-.243 6.528-.326 5.118-.248 10.09.23 15.091.463 4.664.077 10.192.844 13.37-2.762 1.924-2.258 2.389-5.351 2.355-8.262v-.032l-.003.003Zm-.334 21.528c-1.254-7.116-7.655-7.188-13.661-7.15-1.853.005-3.7.029-5.56.088-3.312.158-6.985.203-10.016 1.347-2.608 1.024-3.854 3.085-4.327 5.854-.473 2.59-.195 5.482-.139 8.147.024 1.47-.07 2.913-.356 4.343-.858 4.221-3.183 8.359.757 11.59 2.152 1.759 5.389 2.443 8.024 1.649 2.534-.7 4.095-2.991 4.547-5.477.499-2.37.374-5.124.259-7.692-.043-1.572-.086-3.218.639-4.63.922-1.897 3.525-2.641 5.239-1.363 2.547 1.951 1.732 5.899 1.847 8.957-.022 4.41.582 10.018 5.797 10.053 7.051-.433 6.773-9.31 7.025-14.68.053-3.646.548-7.404-.07-11.007l-.005-.029Zm-10.43-72.233c-2.098-.123-4.22-.209-6.324-.214-4.825-.01-9.513.532-14.3.433-8.971-.203-3.825-10.44-8.337-15.324-1.625-1.788-4.469-2.304-6.581-1.133-2.528 1.44-3.253 4.105-3.528 7.171-.241 3.162.19 6.75.361 10.05.31 3.841.005 8.278 3.255 10.489 2.486 1.646 5.908 1.577 8.877 1.6 3.186-.028 6.372-.162 9.551-.258 4.479-.158 9.141-.332 13.776-.23 5.062.05 13.413.492 13.028-6.54v-.028c-.636-5.07-5.515-5.79-9.773-6.014l-.005-.002Zm-2.138-16.52c-2.417.137-4.841.397-7.265.447-3.275.145-6.931-.369-9.601.965-3.499 1.615-4.48 6.373-1.682 9.115 2.075 2.013 5.226 2.17 7.976 2.293 3.4.129 6.867.166 10.296-.139 1.863-.147 3.775-.254 5.616-.494 3.777-.42 6.56-2.35 6.081-6.495l-.005-.03c-.904-5.431-6.752-5.969-11.416-5.661ZM173.694 14.89c1.59.802 3.83.946 5.76 1.04 1.232.059 2.486.099 3.726.147 4.341.187 8.433.398 12.616.045 2.903-.208 5.76-.436 8.671-.46 3.336-.05 6.677.166 10.016.257 3.873.152 7.74-.246 11.568-.369 2.967-.15 6.332.142 9.016-1.208 2.002-.994 3.183-3.242 2.937-5.485V8.83c-1.208-8.045-12.186-5.808-18.037-5.754-1.558.05-3.105.05-4.669.024-6.95-.22-13.982.168-20.959.39-4.172.152-8.374.005-12.581.032-3.488.104-7.473.22-9.802 2.97-2.165 2.62-1.414 6.95 1.74 8.4l-.002-.002Zm41.895 34.187c-2.769.099-5.533.133-8.28.254-9.66.43-19.278.756-28.946 1.277-3.325.24-7.291.38-9.857 2.569-2.786 2.416-2.192 6.594 1.106 8.27 2.679 1.409 6.076 1.433 9.152 1.422 14.568-.47 29.087-1.192 43.647-1.69 6.147-.219 12.915-.542 14.137-7.882l.005-.027c.289-1.67.278-3.392.187-5.086-.15-2.556-.422-5.121-.612-7.768-.556-5.204-.532-15.155-3.512-18.905-2.213-2.802-6.148-3.21-9.639-3.416-2.707-.12-5.45-.062-8.152-.035-9.671.15-19.28.297-28.959.465-3.662.15-8.227.096-11.255 2.069-2.069 1.323-2.994 4.017-1.879 6.238.692 1.452 2.103 2.444 3.605 2.989 3.406 1.235 8.032 1.053 11.86 1.058 9.27-.034 18.35-.417 27.579-.275 4.397.262 6.488 2.35 7.142 6.567.332 2.315.647 4.838.356 7.145-.497 4.039-4.237 4.635-7.685 4.769v-.008Zm-16.246 76.098c2.371.069 4.803.037 7.193.083 6.45.018 16.091.9 15.698-6.602v-.027c-.176-1.783-1.208-3.486-2.729-4.443-1.732-1.125-4.039-1.328-6.148-1.379-3.058-.043-6.155-.003-9.235-.064-5.567.008-12.092-.211-13.581 4.782-.513 1.887.088 4.122 1.47 5.487 1.895 1.885 4.702 2.056 7.332 2.165v-.002Zm-39.621-81.348c3.323 2.344 8.089 1.89 12.053 2.034 5.936.072 11.798.016 17.692-.093 6.228-.075 12.464.139 18.691.163 4.48.074 11.115-.845 11.189-6.456v-.024c-.28-5.746-7.262-6.129-11.734-6.206-4.739-.115-9.475-.337-14.153-.313-4.694.032-9.32.238-13.993.214-3.229-.064-7.385.409-9.489-2.489-1.796-2.715-1.406-5.79-1.459-9.146-.163-5.466 1.099-14.859-3.48-18.347-2.432-1.764-5.744-.82-7.308 1.748-1.109 1.697-1.545 3.94-1.719 6.02-.374 5.877-.072 11.624-.032 17.58.241 4.875-.51 12.07 3.745 15.312l-.003.003Zm41.233 105.057c-.364-1.818-1.214-3.4-2.756-4.333-2.331-1.438-5.656-.794-7.356 1.277-1.791 2.166-1.769 5.135-2.114 7.915-.11 1.056-.23 2.122-.361 3.194-.799 6.177-1.638 15.03 1.305 19.443 2.015 3.183 6.992 3.109 9.17.168 1.516-2.007 1.358-4.803 1.353-7.358-.022-1.946 0-3.964.136-5.873.211-3.18.626-6.203.839-9.443.089-1.649.107-3.338-.211-4.961l-.005-.029Zm-2.817-44.7v-.024c-.425-4.175-4.611-5.386-8.383-5.608-3.381-.25-7.051-.115-10.397-.098-13.557.024-27.093-.153-40.647-.2-2.005-.006-3.98-.022-6.017.02-2.948.097-6.217.206-8.746 1.62-2.09 1.131-3.248 3.635-2.587 5.875 1.042 3.494 4.848 4.392 8.323 4.697 3.75.31 7.853.155 11.547.168 14.049.019 28.071.198 42.117.203 5.087-.155 15.102.703 14.792-6.653h-.002Zm-27.139 29.606c-2.921.74-6.848.406-10.058.545-10.328.168-20.637.323-30.971.526-4.768-.005-13.193.594-12.453 7.153 1.564 5.608 9.157 5.033 13.894 5.162 9.547-.091 19.09-.305 28.629-.444 6.52-.257 13.231.326 19.7-.567 7.03-.909 8.374-7.217 8.331-13.463 0-3.774.345-7.704-.555-11.39l-.009-.026c-.911-4.357-4.57-6.447-8.788-6.669-4.087-.316-8.308-.056-12.386-.054-12.659.086-25.209.07-37.892.038-4.528.147-11.346.192-12.498 5.498-.621 6.375 7.58 6.952 12.332 6.944 13.648.112 27.256-.206 40.886.032 5.332.19 7.77 4.865 1.836 6.715h.002Zm6.087-68.807c-3.871 2.409-2.882 7.738-3.756 11.555-.585 2.641-2.531 3.865-5.156 4.14-3.122.29-6.332.188-9.462.383-5.8.216-11.627.59-17.435.713-2.756.038-5.646-.162-8.458-.176-2.266 0-4.76.18-6.765 1.09-3.718 1.546-4.437 6.162-1.489 8.808 1.978 1.81 5.007 2.283 7.688 2.593 3.234.353 6.466.457 9.684.409 9.326-.24 18.641-.794 27.964-1.107 2.841-.107 5.822-.192 8.599-.695 1.595-.297 3.076-.748 4.271-1.52 2.312-1.506 3.149-3.903 3.491-6.921v-.032c.235-2.186.208-4.493.15-6.712-.18-3.913-.212-8.663-2.419-11.362-1.607-2.067-4.713-2.582-6.907-1.166Zm8.508 88.025c-.535-3.889-4.146-5.199-7.68-5.485-2.349-.208-4.798-.24-7.313-.192-2.796.096-5.672.256-8.305.839-2.403.51-4.38 1.807-5.514 4.001-2.413 4.502-1.865 10.732-1.732 15.875.139 3.06.5 6.565 3.232 8.417 3.857 2.673 10.411 1.566 15.182 1.224 2.52-.238 5.642-.409 7.562-1.574 2.419-1.363 3.384-4.721 2.149-7.164-.96-1.999-3.138-2.993-5.242-3.37-2.828-.663-6.434.152-8.65-1.414-.833-.599-1.066-1.665-.414-2.51 2.697-3.491 11.216-.628 15.054-3.991 1.334-1.12 1.911-2.911 1.676-4.632v-.027l-.005.003Zm-66.497-67.692c-.056-2.069-.334-4.223.441-6.118 1.737-3.491 6.201-2.395 9.686-2.307a91.62 91.62 0 0 0 4.012.184c5.127.097 10.264-.641 15.396-.43 5.75-.07 18.281 2.612 18.393-6.174v-.024c-.353-5.106-6.159-5.648-10.288-5.886-3.042-.193-6.137-.377-9.179-.46-5.621-.144-11.272.425-16.839.23-5.491-.19-11.291-.914-16.725.04-3.632.62-6.003 2.355-6.936 5.96-.898 3.363-.711 6.907-.588 10.412.051 3.025.767 7.158-1.35 9.25-.519.447-1.128.511-1.727.21-4.798-3.019-2.323-15.94-3.798-20.946-.76-3.175-3.766-5.391-7.011-4.255-5.1 2.005-4.766 8.66-4.737 13.324.073 2.946.268 5.835.578 8.749.232 2.154.473 4.327.762 6.48.508 3.955 1.515 7.922 5.284 9.317 2.384.957 5.006 1.096 7.583 1.259 2.138.117 4.33.248 6.485.23 3.394-.088 6.401-.388 8.483-2.614 3.294-3.85 2.109-11.494 2.083-16.43h-.008ZM96.935 50.02c-2.675.088-5.803.302-8.07 1.371-3.923 1.682-4.834 6.693-1.416 9.425 3.558 2.737 10.443 1.844 14.851 1.877 15.605-.276 31.201-.754 46.806-.998 2.63-.096 5.581-.248 7.895-1.384 2.141-.978 3.595-3.339 3.315-5.656v-.024c-.428-3.964-4.33-5.309-7.931-5.549-2.836-.24-5.861-.102-8.689 0-12.943.38-25.861.599-38.809.85-2.558.035-5.295.013-7.952.094v-.006Zm36.13-18.815c-2.889-2.745-1.366-8.427-2.862-11.865-1.572-4.64-7.506-5.605-9.879-1.128-1.783 3.339-1.385 8.963-1.422 13.146.085 3.296-.094 6.912 1.25 9.93 2.74 5.781 11.569 4.375 16.859 4.006 7.476-.879 15.866.647 16.81-9.063v-.03c.398-4.541-.214-9.208-.113-13.787-.096-7.655 1.2-21.364-7.92-20.461-5.458 1.267-4.904 7.88-4.829 12.43.08 3.653.165 7.325.192 10.92-.051 2.174-.238 3.874-1.489 5.314-1.59 1.853-4.779 2.254-6.599.591l.002-.003Zm18.767 122.166-.005-.029c-.444-2.718-2.238-5.119-5.036-5.498-2.705-.42-5.311 1.152-6.183 3.723-.574 1.559-.732 3.293-.911 4.95-.535 4.577-.647 9.086-.283 13.678.189 2.585.131 5.453 1.627 7.671.915 1.347 2.441 2.24 4.058 2.408 4.22.377 6.436-3.14 6.653-7.099.27-3.325-.059-6.645.077-9.962.04-3.266.588-6.581.003-9.842Zm-13.816 3.211c-.735-5.178-5.635-5.771-9.965-5.854-4.958-.086-9.818.056-14.701.077-1.192.006-2.502-.024-3.587-.454-3.601-1.483-2.767-6.305-7.65-7.139-6.017-.722-7.45 5.391-7.41 10.298.033 2.433.303 4.969 1.433 7.092 2.529 4.693 9.134 3.05 13.862 3.031 5.629-.171 11.111-.193 16.762-.206 2.871-.035 6.442.208 8.842-1.299 1.831-1.147 2.681-3.314 2.419-5.514v-.03l-.005-.002Zm-.842 16.558c-.906-6.623-11.371-5.442-16.356-5.626-11.074-.032-22.124.12-33.19 0-1.387-.011-2.999-.126-4.252-.382-1.147-.252-2.502-.591-2.508-1.235.18-.77 2.476-1.428 3.25-1.77 1.754-.671 3.625-1.339 4.833-2.774 2-2.28 1.385-5.608-1.087-7.271-3.617-2.59-12.98-2.761-16.845-1.058-4.924 1.914-5.482 7.391-5.245 12.009.35 6.712 1.422 12.953 8.543 14.258 4.052.783 8.404.518 12.515.676 4.496.118 8.925.131 13.41.075 8.294-.128 16.596-.115 24.895-.171a49.786 49.786 0 0 0 3.475-.155c1.917-.177 3.668-.465 5.29-1.286 1.981-.933 3.523-3.098 3.272-5.263V173.139Zm-69.58-160.3c2.481 1.235 5.734 1.088 8.52 1.299 5.153.28 10.314.802 15.518.575 6.798-.23 13.293-1.126 20.154-1.147 2.211-.019 4.429.067 6.637.104 3.2.059 6.404-.085 9.599-.473 4.201-.494 9.031-1.612 8.478-6.757v-.027c-.267-2.018-1.646-3.852-3.518-4.67-2.739-1.213-5.853-.833-8.89-.745-2.555.115-5.116.093-7.671.016-8.66-.294-16.93.77-25.623 1.066-2.245.06-4.56.027-6.786-.083C78.268 1.915 64.78-.438 64.713 8.17c.032 1.946 1.118 3.777 2.882 4.672v-.002Zm16.34 43.534c-.016-1.657-.01-3.432.31-4.99 1.067-6.028 6.736-6.17 11.796-6.205 7.217-.187 16.233.565 18.181-7.951.757-3.061.936-6.423 1.051-9.639.05-2.617-.016-5.036-.794-7.265l-.008-.027c-1.008-3.172-4.194-5.474-7.279-3.624-4.83 3.047-2.825 10.272-6.893 13.843-3.387 2.852-9.788 1.735-14.145 2.013-4.127.181-8.938.082-11.935 3.26-3.964 4.438-2.694 15.319-2.809 21.421.07 8.41.31 16.813.273 25.211.013 1.45-.725 7.372-2.796 5.924-2.606-2.812-1.9-10.168-2.144-14.076-.171-8.313-.36-16.626-.519-24.936-.184-4.621.142-10.026-2.421-13.899-2.35-3.453-6.64-2.948-8.57.786-1.496 2.855-1.518 6.225-1.518 9.435.24 14.41.572 28.801.909 43.216.059 2.066.168 4.271.57 6.228 1.074 6.362 6.166 7.837 12.284 8.473 4.124.396 9.593.874 12.926-1.558 4.031-3.1 3.764-9.24 3.905-13.953-.053-10.593-.261-21.113-.371-31.687h-.003Zm-.524 70.888c.249 2.868.468 6.105 1.85 8.527 1.735 3.098 5.536 3.632 8.786 3.983 3.076.294 6.346.553 9.366.36 5.41-.395 8.535-2.084 9.192-7.633.532-3.614.628-7.912.666-11.673-.008-3.01.045-5.56-.511-8.283l-.005-.03c-.524-2.462-1.903-4.686-4.328-5.375-2.264-.647-4.819.371-6.054 2.365-2.494 3.729-1.061 10.379-2.373 14.822-1.262 3.445-3.628 1.587-4.282-1.444-1.243-5.407.435-14.455-3.903-18.421-2.435-2.16-6.359-1.353-7.88 1.483-2.245 4.146-1.128 10.435-.938 15.214.142 2.037.26 4.058.417 6.105h-.003ZM62.177 30.616c2.999.022 6.011-.021 9 0 2.333.008 4.658.022 6.992.032 3.988-.008 8.118.113 12.156-.066 4.67-.171 9.666-1.385 9.046-6.902v-.027c-.923-5.647-7.41-5.696-11.965-5.693-6.273.046-12.538-.003-18.806-.021-.95-.008-1.97-.038-2.866-.198-7.16-1.08-1.708-11.528-7.869-15.014-1.879-1.05-4.375-.887-6.027.495-3.197 2.817-2.7 8.203-2.81 12.357.075 3.276-.05 6.68.928 9.772 1.615 5.126 7.233 5.19 12.223 5.268l-.002-.003Zm23.14 109.999v-.026c-.819-5.456-6.619-5.833-11.243-5.512-2.662.15-5.317.361-7.968.532-4.587.478-11.085-.048-13.926 4.274-1.898 3.079-1.62 6.827-1.777 10.395-.107 4.124-.206 8.241-.3 12.362-.061 3.438-.355 7.049-.12 10.481.134 1.772.513 3.472 1.35 4.774 1.44 2.413 4.69 3.228 7.195 2.012 1.673-.77 2.775-2.347 3.293-4.089.65-2.139.674-4.461.765-6.699.12-3.517.21-6.955.294-10.432.192-2.919-.31-6.196 1.376-8.516 1.754-2.178 5.01-2.061 7.607-2.264 5.747-.388 13.908-.307 13.45-7.294l.003.002Zm-6.344-32.952c-2.272-1.961-5.591-1.376-7.286 1.038-1.326 1.785-1.754 4.167-2.737 6.155-1.668 3.686-5.178 4.004-8.848 4.015-15.264.099-30.532.449-45.8.535-1.569.016-3.189.069-4.72.304-2.81.407-5.654 1.633-6.704 4.325-.949 2.347-.013 5.145 2.053 6.6 3.715 2.678 9.676 1.82 14.097 1.831 14.538-.217 29.081-.369 43.635-.508 4.782-.182 12.964.561 16.332-3.114 2.234-2.513 2.568-5.964 2.868-9.508.133-2.507.12-5.132-.51-7.556l-.009-.03c-.42-1.55-1.141-3.047-2.373-4.089l.002.002Zm-71.23 8.319c2.373.291 4.843.414 7.249.497 5.404.128 10.731-.139 16.128-.022 6.549.038 12.913.874 19.41.923 5.098-.035 15.119.761 14.226-6.859v-.027c-.853-5.418-7.254-5.461-11.63-5.549-4.36-.029-8.566-.257-12.875-.609-8.145-.741-16.37-.142-24.62-.353-2.698-.062-5.504-.257-8.174-.104-3.742.141-7.423 1.718-7.431 5.851.134 4.311 3.822 5.829 7.72 6.252h-.003ZM.138 57.712c.185 5.787-.922 15.786 2.547 20.397 3.026 3.747 8.049 3.576 12.593 3.948 3.057.17 6.177.641 9.224.409 7.655-.607 8.508-6.739 7.93-13.127-.393-4.547-.262-9.133-.21-13.696.1-2.938-.25-6.324 1.253-8.925 2.534-3.892 7.89-2.363 11.803-3.461 2.909-.58 5.82-2.927 5.226-6.156v-.024c-.404-2.572-2.892-4.336-5.41-4.977-2.43-.666-5.349-.78-8.013-.917-3.801-.123-7.803-.406-11.392.871-6.811 2.5-5.86 11.403-6.172 17.61-.035 2.678-.062 5.35-.096 8.016-.08 3.002.288 9.577-3.328 10.12-2.983-.498-3.14-5.461-3.157-8.078-.099-15.907-.037-31.752-.19-47.672-.059-1.681-.187-3.475-.486-5.04-.572-4.125-3.89-7.907-8.096-5.852C1.384 2.652.526 6.402.285 9.56-.257 25.6.304 41.66.138 57.712Zm34.783 27.052c-2.301 1.072-4.835.786-7.655.797-4.02-.053-7.934-.16-12.026-.214-4.293.062-10.865-.497-13.105 3.806-.882 1.757-.676 3.975.513 5.52.997 1.296 2.403 1.975 4.151 2.408 2.6.602 5.496.634 8.203.751 7.821.238 15.35.415 23.126.417 6.199-.147 11.443-.924 12.341-8.181l.006-.03c.136-.967.206-1.98.235-3.001.027-6.996-.385-13.977-.567-20.972-.09-2.47-.174-4.948-.294-7.423-.093-1.79-.232-3.667-.668-5.367-.388-1.497-.984-2.799-1.97-3.847-1.93-2.127-5.314-2.44-7.385-.384-1.36 1.307-1.984 3.295-2.283 5.212-.331 2.14-.32 4.375-.278 6.546.15 5.327.289 10.643.425 15.962.072 2.847.15 6.603-2.766 8.006l-.003-.005Zm7.137 69.636c-2.866-.952-5.977-.995-8.981-1.064-4.135-.091-8.225-.051-12.328-.131-1.179-.043-2.488-.201-3.536-.511-2.425-.679-3.189-2.034-.5-3.082 1.815-.703 4.02-.882 6.011-.887 3.86-.021 7.75.029 11.652.128 3.352.008 7.043.177 10.085-1.352 1.962-.997 3.207-2.938 2.943-5.095v-.021c-.957-5.523-7.763-6.084-12.475-6.295a243.94 243.94 0 0 0-9.048-.19c-2.855-.008-5.741.027-8.607.091-3.753.107-8.395.179-11.346 1.775-4.346 2.309-5.247 7.703-5.76 12.205-1.26 12.851 4.61 16.152 16.46 16.128 3.656.032 7.192-.139 10.688-.051 1.716.067 3.657.273 5.1 1.109 3.261 1.834 3.069 6.648 5.448 9.238 1.6 1.804 4.413 2.01 6.367.679 4.161-2.764 4.536-11.058 3.667-15.867-.583-3.255-2.595-5.784-5.843-6.807h.003ZM17.03 17.746c.184 3.507-.126 7.474 2.31 10.246 2.595 2.707 6.714 2.464 10.851 2.614 4.507-.048 9.342.425 12.983-1.545 2.716-1.47 3.437-4.57 3.67-7.48.278-4.166.414-8.95-.265-13.075l-.005-.03c-.655-4.108-4.018-7.219-8.187-5.364-2.246 1.032-3.312 3.427-3.654 5.779-.516 2.515.157 6.62-2.221 8.12-.626.326-1.31.185-1.845-.267-1.94-1.871-1.307-4.678-1.67-7.321-.137-1.294-.404-2.604-.947-3.782-1.844-4.312-7.168-4.766-9.772-.912-2.306 3.68-1.181 8.77-1.25 13.017h.002Zm16.294 155.538c-.871-4.753-5.37-5.664-9.55-5.667-4.44-.053-8.789.022-13.167.043-2.622.056-5.354.211-7.318 2.007-1.829 1.668-2.251 4.536-1.15 6.725 2.283 4.536 7.958 4.047 12.317 3.833 2.122-.088 4.207-.026 6.337.006 5.1-.006 13.45.395 12.54-6.921l-.006-.029-.003.003Z"/></svg>
