<svg width="1900" height="180" viewBox="0 0 1900 180" fill="none" xmlns="http://www.w3.org/2000/svg">
<path d="M1900 0H0V180C28.9878 179.886 52.4652 156.315 52.5785 127.212C52.692 156.347 76.2212 179.938 105.253 180C134.155 180 158.157 155.887 158.157 127H158.158C158.158 156.233 181.731 179.938 210.833 180C239.653 180 263.625 156.018 263.737 127.212C263.849 156.018 287.82 180 316.64 180C345.743 179.938 369.315 156.233 369.315 127H369.316C369.316 156.233 392.889 179.938 421.991 180C450.81 180 474.781 156.02 474.895 127.216C475.009 156.02 498.98 180 527.799 180C556.901 179.938 580.474 156.233 580.474 127H580.475C580.475 155.887 604.476 180 633.379 180C662.409 179.938 685.938 156.349 686.053 127.216C686.169 156.349 709.697 179.938 738.728 180C767.63 180 791.632 155.887 791.632 127H791.633C791.633 156.233 815.206 179.938 844.308 180C873.126 180 897.097 156.02 897.211 127.216C897.326 156.02 921.296 180 950.115 180C979.146 179.938 1002.67 156.349 1002.79 127.216C1002.9 156.349 1026.43 179.938 1055.46 180C1084.28 180 1108.25 156.02 1108.37 127.216C1108.48 156.349 1132.01 179.938 1161.04 180C1189.94 180 1213.95 155.887 1213.95 127H1213.95C1213.95 156.233 1237.52 179.938 1266.62 180C1295.44 180 1319.41 156.02 1319.53 127.216C1319.64 156.02 1343.61 180 1372.43 180C1401.53 179.938 1425.1 156.233 1425.1 127H1425.11C1425.11 156.233 1448.68 179.938 1477.78 180C1506.6 180 1530.57 156.02 1530.68 127.216C1530.8 156.349 1554.33 179.938 1583.36 180C1612.26 180 1636.26 155.887 1636.26 127H1636.26C1636.26 156.233 1659.84 179.938 1688.94 180C1717.76 180 1741.73 156.02 1741.84 127.216C1741.96 156.349 1765.49 179.938 1794.52 180C1823.34 180 1847.31 156.02 1847.42 127.216C1847.54 156.318 1871.01 179.887 1900 180V0Z" fill="#D9D9D9"/>
</svg>
