<svg xmlns="http://www.w3.org/2000/svg" fill="none" viewBox="0 0 240 181" preserveAspectRatio="none"><path fill="#D6D6D6" d="M234.052 33.803c-2.084-.51-3.984 1.24-5.219 2.759-1.922 2.41-3.296 5.452-3.435 8.931-.322 5.225 3.469 10.474 9.087 9.372 4.288-.98 5.833-5.436 5.462-9.67l-.005-.06c-.137-2.038-1.03-3.917-1.916-5.667-.982-1.89-2.012-5.057-3.974-5.665Zm4.55 49.476-.016-.035c-.755-1.686-2.284-1.198-3.28.462-.776 1.254-1.214 2.77-1.598 4.205-.739 2.8-1.185 5.804-1.697 8.809-.657 3.776-1.422 7.637-3.088 11.13-3.047 6.871-10.148 6.212-11.669 13.5-.79 4.464.755 9.518 4.216 12.104 3.176 2.19 7.469.547 10.103-1.826 2.818-2.388 4.283-6.084 4.529-9.806.224-2.967.141-5.969.627-8.902.83-5.612 2.324-11.104 2.583-16.8.072-2.064-.046-4.134-.08-6.194-.094-2.215.208-4.614-.625-6.645l-.005-.002Zm-.214 60.913c-.277-3.413-2.567-6.485-5.718-7.816-4.272-1.826-9.289-.764-13.377 1.099-3.664 1.62-6.287 4.534-9.537 6.951-2.434 1.895-5.564 3.309-7.256 5.962-1.94 3.092.072 6.113 3.627 6.252 1.403.093 2.906-.2 4.269-.723 2.631-.942 4.777-3.317 7.726-2.96 1.827.177 3.53 1.135 5.555 1.716 3.269 1.006 7.096 1.238 10.047-.723 3.162-2.044 4.979-5.959 4.67-9.708l-.006-.053v.003ZM218.346 17.136c.082 2.049 2.383 3.562 3.186 5.497.598 1.216.816 2.665 1.326 4.005 1.073 3.109 4.974 4.574 7.941 3.309 3.739-1.487 4.067-5.855 5.081-9.236.587-2.108 1.577-4.061 1.993-6.23a15.84 15.84 0 0 0 .235-3.64v-.056c-.112-2.031-.656-4.12-2.297-5.303-1.289-.958-3.181-.907-4.312.256-1.642 1.61-1.356 4.393-2.367 6.213-1.239 2.223-4.131 1.598-6.279 1.865-1.956.147-4.545 1.211-4.507 3.322v-.003Zm6.908 88.921c3.886-3.88 3.987-9.74 4.433-14.85.293-2.824 1.014-5.578 1.98-8.243.947-2.61 1.972-5.246 3.135-7.757 1.601-3.456 3.002-7.296 1.961-11.096l-.013-.048c-1.195-4.005-4.606-3.248-6.148.227-1.609 3.511-1.919 7.8-4.739 10.682-2.151 2.305-5.308 3.714-7.789 5.732-2.183 1.72-3.944 3.807-5.519 6.134-1.081 1.633-2.044 3.237-3.309 4.622-1.286 1.527-3.13 2.78-3.864 4.673-.803 2.505.942 5.014 2.17 7.223.798 1.308 1.582 2.639 2.634 3.763 4.016 4.384 11.292 2.927 15.071-1.068l-.003.006Zm5.089 60.096c-.608-5.059-5.396-7.576-10.137-7.458-4.788-.102-9.618 1.817-14.226 2.276-4.053.355-9.572-.561-10.962-4.993-.299-1.054-.259-2.209-.019-3.314.286-1.294.82-2.959.473-4.053-.571-1.903-2.853-2.002-4.539-1.191-2.861 1.417-4.422 4.822-5.097 7.894-2.148 9.465 4.91 15.25 13.425 16.992 2.746.564 5.585.729 8.301 1.457 1.879.467 3.747 1.049 5.674 1.303 3.677.485 7.423-.369 10.948-1.425 3.563-1.054 6.653-3.288 6.164-7.437l-.005-.051Zm-19.322-83.477c1.918-4.547 6.529-5.404 9.902-8.329 4.182-3.58 6.194-10.415 5.513-16.275l-.005-.058c-.504-3.65-1.411-7.541-4.331-9.967-3.733-3.005-9.937-3.442-14.69-1.465-2.238.896-4.002 2.599-5.804 4.12-3.877 3.648-11.132 2.925-14.553 6.684-1.228 1.383-.852 3.325.816 4.169 1.604.867 3.688.806 5.532.63a66.215 66.215 0 0 0 6.503-1.076c1.617-.355 3.175-.91 4.795-1.324 1.628-.416 3.333-.637 4.691-.106 2.669.942 2.965 4.264 1.826 6.519-2.479 4.792-8.379 6.474-8.95 12.8-.382 3.31.595 9.327 4.29 10.175 2.938.22 3.357-4.472 4.465-6.495v-.002ZM194.655 19.88c2.762-.758 4.681-3.255 6.877-4.968 2.967-2.226 6.972-3.872 10.794-3.464 3.346.448 6.879 2.263 10.295.907 1.603-.496 3.543-2.153 3.01-3.877l-.011-.032c-.87-2.17-4.483-1.924-6.578-2.343-2.041-.299-4.099-.75-6.161-.808-2.717-.105-5.465.493-8.211.92-4.494.814-6.858.467-10.469-2.292-1.609-1.206-4.403-2.46-5.417-.12-.659 1.516-.643 3.362-.931 4.998-.365 2.428-1.27 4.905-.493 7.263.883 3.01 4.296 4.726 7.298 3.816h-.003Zm29.417 17.996c-.595-3.554-4.992-4.202-8.011-4.6-5.622-.705-11.095-.12-15.602 3.066-3.101 2.116-5.558 5.038-9.609 5.091-3.643.046-7.282-.314-10.762-1.182-1.606-.376-3.143-.792-4.184-1.724-2.066-1.822-1.788-5.08-3.088-7.314-.752-1.31-1.785-1.812-2.793-1.078-1.014.67-1.831 2.848-2.325 4.54-1.382 5.016-4.021 10.788-.293 15.19 6.996 8.607 21.54 3.456 29.315-.42 2.381-1.204 4.35-2.901 6.573-4.441 2.383-1.66 5.134-2.749 8.021-3.114 1.495-.2 3.018-.211 4.529-.147 3.389.203 8.469.616 8.232-3.824l-.005-.043h.002Zm-44.798-6.532c-1.79 1.815-.411 4.427 1.444 5.817 1.681 1.292 3.978 1.97 6.153 1.884 4.702-.07 8.158-3.666 11.731-6.196 2.167-1.526 4.48-2.837 7.02-3.648 2.061-.672 4.27-1.022 6.431-1.478 2.087-.504 6.109-1.238 5.823-3.768l-.005-.035c-.638-2.43-4.243-4.088-6.621-4.872-4.694-1.465-9.852-.411-14.26 1.529-2.535 1.113-4.587 2.59-6.674 4.405-1.126.972-2.239 2.002-3.49 2.805-1.206.793-2.578 1.342-3.982 1.801-1.219.409-2.679.857-3.57 1.756Zm-13.033 116.526c2.621-3.082 5.855-6.364 10.055-7.036 2.412-.379 4.705.437 6.957 1.152 3.229.953 6.89 1.674 10.361 1.695 9.743-.339 20.662-8.4 19.96-19.146l-.005-.054c-.256-3.325-2.959-5.908-6.265-5.518-2.773.283-4.844 2.508-6.832 4.277-6.439 5.762-9.008 5.852-17.238 5.53-7.173.104-15.989 2.358-20.427 7.725a16.067 16.067 0 0 0-3.49 8.01c-.235 2.063-.224 4.406 1.363 5.844 2.004 1.564 4.296-.928 5.559-2.479h.002Zm40.059-41.153-.005-.056c-.227-2.319-1.457-4.533-3.53-5.505-2.269-1.04-5.271-.392-7.686.054-2.871.504-5.486 2.588-3.591 5.577.854 1.291 2.444 2.263 3.802 3.226 1.569 1.075 3.25 2.327 5.052 2.751 3.805.939 6.388-2.46 5.958-6.047Zm-6.572-31.037c1.238-1.411 2.38-2.89 3.319-4.434.694-1.22 1.511-2.73 1.215-4.14l-.008-.031c-.644-1.841-3.523-1.705-5.329-1.599-7.157.462-13.014 2.445-16.382 8.812-.705 1.318-1.212 2.732-1.569 4.19-.494 2.03-.699 4.175-1.785 5.974-3.224 4.744-4.393 5.54-.238 10.356 1.559 1.799 3.045 3.739 5.412 4.472 3.154.972 7.605 1.068 10.337-.122 4.006-1.738 3.728-6.754 3.168-10.434-.368-3.173-1.751-6.516-.574-9.513.531-1.324 1.508-2.447 2.434-3.525v-.005Zm-40.761 20.147c-4.59 1.268-9.27 2.549-13.705 4.134-1.108.403-2.33.95-3.194 1.66-3.982 3.559 2.748 6.086 6.113 6.262 1.764.158 3.456-.037 5.041-.429 2.332-.577 4.624-1.556 7.066-1.38 2.418.102 4.616 1.228 6.943 1.892 2.18.638 4.638.814 6.349 2.461 1.395 1.312 2.22 3.26 3.308 4.829 2.103 3.091 4.884 5.607 8.465 7.163 2.199.926 4.758 1.352 7.077.744 2.623-.616 4.883-2.991 4.512-5.748l-.005-.045c-.582-3.629-4.622-4.563-7.213-6.599-.59-.438-1.15-.913-1.676-1.425-2.53-2.402-4.189-5.644-6.42-8.275-3.349-3.723-7.784-6.052-13.281-6.583-3.194-.254-6.335.496-9.38 1.34Zm30.258 77.559c-.251-3.066-2.981-5.638-6.108-5.486-3.752.035-7.669 3.917-5.599 7.656 2.693 4.934 12.251 4.512 11.712-2.114l-.005-.053v-.003ZM165.529 17.098c-2.957 4.523 4.531 6.116 8.101 6.175 6.573.33 11.392-5.26 10.538-11.736l-.008-.056c-.454-2.98-1.734-6.716-4.003-8.704-1.83-1.594-4.744-1.823-6.681-.302-2.429 1.833-2.461 5.169-2.175 7.95.648 5.352-3.253 3.807-5.775 6.673h.003Zm-12.587 77.567c6.879-2.044 13.243-5.767 18.78-9.89 2.621-1.993 5.375-4.063 7.096-6.927.899-1.51 1.593-3.14 2.316-4.742 1.454-3.108 2.65-6.503 1.935-9.953l-.011-.05c-.451-2.824-3.055-4.932-5.825-3.66-1.516.67-2.519 2.352-3.098 3.929-.659 1.732-1.244 3.522-2.359 5.022-1.185 1.654-2.976 2.949-4.641 4.29-2.679 2.12-5.358 4.158-8.32 5.978-4.899 3.264-9.681 3.925-15.234 2.001a43.194 43.194 0 0 1-5.86-2.596c-2.322-1.222-4.795-2.514-7.504-2.25-3.215.308-6.45 2.274-7.586 5.247-.718 1.729-1.049 4.085-1.1 6.103-.323 4.846 1.964 9.32 5.761 11.695 3.035 2.01 7.069 2.869 10.57 1.666 1.863-.612 3.248-1.922 4.841-2.944 2.986-2.038 6.858-1.83 10.236-2.92h.003Zm28.768 59.192-.008-.054c-.261-2.428-1.681-4.915-4.08-5.577-2.684-.814-5.211.454-6.559 2.818-1.027 1.649-1.9 3.517-3.365 4.846-2.383 2.284-6.097 2.594-9.366 2.279-9.7-1.18 2.314-17.74-6.33-23.965-1.475-1.129-4.048-1.53-4.886.421-.611 1.422-.29 3.098-.274 4.929.152 3.992-1.174 7.85-1.775 11.757-.587 3.57-.937 7.122.019 10.586 1.881 6.714 9.163 10.473 15.709 11.407 6.674.905 12.689-1.267 16.801-6.244 2.89-3.586 4.685-8.525 4.114-13.206v.003Zm-37.74-25.537c2.936 2.201 6.346.424 9.604.95 1.222.173 2.415.576 3.613.848 2.751.798 5.132-.715 7.912-1.662 3.853-1.473 10.071-1.436 9.887-6.647v-.049c-.198-3.754-3.821-6.364-6.399-8.709-3.904-3.541-10.044-5.086-15.136-3.568-1.539.491-3.01 1.169-4.496 1.777-2.514 1.116-5.393 2.02-7.05 4.339-2.821 3.803-1.638 10.089 2.065 12.718v.003Zm14.826-74.194c-1.505.827-2.543 2.159-3.338 3.709-2.676 4.974-.339 10.748 5.444 11.661 5.169.838 10.228-2.949 10.068-8.384v-.056c-.056-5.777-7.2-9.537-12.174-6.93Zm-25.23-29.887c-1.59 2.957-4.475 5.377-5.142 8.731-.515 2.653.902 5.783 3.218 7.28 2.14 1.409 5.156 1.582 7.314.168 1.906-1.246 3.013-4.187 3.336-6.783.24-1.86.045-3.712.256-5.561.256-2.578 1.62-5.063 3.352-6.848 5.673-6.348 21.579-2.34 21.177-13.342l-.006-.05c-.755-6.058-7.173-5.933-12.035-5.89-1.483-.003-2.98.01-4.451.136-1.98.155-3.925.368-5.905.168-2.441-.213-4.846-1.275-7.25-1.662-3.288-.683-7.168.643-8.742 3.728-1.74 3.394-.008 7.405 2.146 10.196 2.769 3.218 5.12 5.342 2.735 9.726l-.003.003Zm11.538 18.396c-2.212 1.316-4.867 2.148-7.114 3.464-3.167 1.716-5.225 5.22-5.024 8.825.09 2.422.928 4.712 1.385 7.084.843 4.79 1.689 9.062 5.449 12.46 2.022 1.931 4.816 3.1 7.722 3.506 1.43.203 3.848.341 4.635-.91.988-1.927-2.626-4.862-3.311-6.823-1.409-3.077-1.834-7.216-.766-10.693 3.41-10.791 17.014-13.313 16.438-26.765v-.058c-.123-3.016-.78-5.986-2.594-8.4-2.522-3.494-7.789-5.217-11.632-2.68-1.385.854-2.767 2.52-2.49 4.096.24 1.321 1.884 2.13 2.866 3.36.961 1.073 1.134 2.842.83 4.31-.728 3.925-2.999 7.268-6.396 9.219l.002.005Zm4.347 130.915c-.4-2.727-2.305-5.284-4.979-6.108-3.714-1.177-8.336 1.126-9.294 4.835-.521 1.988-.072 4.272 1.099 5.943 1.644 2.319 4.867 2.719 7.547 2.281 3.866-.493 6.241-2.924 5.635-6.9l-.008-.054v.003Zm-12.122-56.924c1.451-.704 2.665-2.22 2.164-3.365l-.011-.032c-.849-1.884-3.701-2.807-5.598-3.832-1.783-.891-3.541-1.857-5.153-3.002-5.946-3.695-6.373-12.173-11.408-16.536-2.41-2.055-5.598-2.76-8.75-2.506-5.486.529-12.55 3.379-15.466 7.654-2.162 3.276-1.049 7.106 3.426 6.428 2.863-.459 5.633-2.087 8.286-3.31 3.439-1.69 6.754-3.081 7.73 1.22.547 2.431.681 5.153 1.588 7.501 2.316 6.103 7.96 10.773 14.636 11.307 2.85.227 6.055-.219 8.556-1.527Zm1.115 38.021c.152-2.53 1.7-5.284.755-7.755l-.016-.037c-1.681-3.192-4.979.413-6.647 1.868-1.985 1.793-4.243 3.119-6.097 4.886-4.227 4.104-9.38 12.277-4.094 17.414 6.175 5.51 13.054-1.059 15.258-7.162 1.118-2.952.523-6.116.841-9.214Zm-10.935-4.705c1.326-2.348 2.14-4.974 3.992-6.938 1.24-1.39 2.852-2.386 4.25-3.597 2.221-1.852 3.483-4.785 3.272-7.685v-.054c-.12-2.036-1.003-3.855-2.37-5.344-2.065-2.253-7.308-6.245-10.081-4.081-1.991 2.178.414 5.972-2.773 9.257-4.253 4.118-10.142 6.837-13.918 11.36-3.512 3.757-4.638 10.709.117 13.951 2.997 2.062 7.293 2.359 10.495.581 3.05-1.643 5.326-4.475 7.013-7.45h.003Zm-20.259-77.02c-2.381 1.58-4.689 3.264-7.066 4.849-3.675 2.559-8.265 3.89-10.626 7.957-1.161 1.839-1.51 4.884 1.505 4.86 1.425 0 3.143-.758 4.544-1.359 2.89-1.291 5.93-2.21 8.819-3.477 9.172-4.44 20.524-8.176 24.817-17.668 1.561-3.847 1.281-8.192 1.068-12.264l-.006-.053c-.373-5.948-3.706-11.106-5.353-16.74-.638-1.897-1.347-4.496-2.674-5.665-1.737-1.577-4.144-.355-5.406 1.441-1.625 2.162-1.289 5.046-.739 7.616.547 2.578 1.276 5.182 1.294 7.84-.018 4.966-1.726 9.465-3.002 14.122-1.182 4.048-3.712 6.294-7.178 8.544l.003-.003Zm-3.125-49.961c-1.308.718-2.93 1.42-3.907 2.457-1.766 1.794-.63 4.048 1.34 5.265 3.944 2.482 9.286 2.02 13.702 1.036 6.53-1.332 13.02-4.006 12.713-11.213v-.056c-.128-4.569-2.089-8.985-5.436-12.126-3.162-2.975-9.78-7.981-14.233-7.576-1.874.137-3.309 1.548-3.053 3.387.31 2.097 2.25 3.434 3.261 5.198 1.681 2.89 1.297 7.37-.579 10.31-.934 1.44-2.303 2.506-3.811 3.315l.003.003Zm-8.008 108.302c3.237 2.54 5.833 4.864 10.081 5.729 2.522.566 5.385.571 7.723-.499 3.263-1.412 5.331-5.123 4.894-8.664l-.008-.051c-.267-2.519-2.391-4.488-4.961-4.195-1.769.117-3.525.95-5.227.953-2.554.029-5.359-2.02-6.325-4.192-1.758-4.446 5.001-9.441 4.609-14.05-.096-1.321-1.049-2.324-2.458-2.311-1.622-.01-3.335 1.076-4.648 2.1-4.168 3.517-8.63 7.261-11.138 12.171-1.228 2.524-1.1 5.62.696 7.856 1.79 2.247 4.542 3.402 6.764 5.153h-.002Zm18.698 36.091c-.307-6.14-5.932-9.38-11.376-6.637-3.229 1.505-4.654 5.097-7.597 6.976-2.623 1.662-5.78 2.097-8.755 2.823-2.106.475-5.58 1.15-5.593 3.538.395 3.645 8.197 5.751 11.402 6.14 5.1.822 9.66-1.822 14.199-3.677 4.406-1.726 8.003-3.704 7.725-9.11v-.056l-.005.003ZM71.733 64.076c-1.65 1.372-3.536 2.453-5.156 3.864-1.977 1.695-3.498 3.923-5.086 6.034-1.324 1.782-2.669 3.575-3.576 5.614-2.215 4.86-1.78 11.024-.31 16.246 1.193 3.832 2.859 8.315 6.384 10.209 4.072 2.095 7.776-.686 6.444-5.145-.475-1.691-1.433-3.25-1.903-4.864-.701-2.252-.56-4.54-.285-6.933.512-5.932 3.709-11.936 9.465-14.201 3.466-1.55 7.514-2.04 11.32-1.647 1.715.131 3.415.112 5.12-.075 1.473-.152 3.01-.208 4.224-.474 2.522-.451 3.939-2.034 5.655-3.827 5.545-4.552 8.856-12.16 8.451-20.053v-.06c-.208-3.551-.795-6.81-2.282-9.854-1.128-2.37-3.973-4.6-4.715-.49-.291 1.715-.248 3.561-.195 5.603.102 3.194.265 6.225-.507 9.275-1.094 4.323-4.106 10.007-8.579 11.248-2.02.491-3.898-.574-5.446-1.799-4.182-3.367-9.697-6.078-14.642-2.484-1.593 1.137-2.874 2.594-4.382 3.808v.005Zm-2.925-43.69c.712 2.802 2.63 5.993 5.31 3.285.72-.75 1.246-1.882 1.74-3.008 1.355-3.389 2.895-5.545 6.602-6.367 5.638-1.64 14.084 3.616 18.463.518 1.249-.96 1.737-2.591 1.51-4.152l-.008-.048c-.63-4.248-5.388-5.164-8.945-5.823-1.774-.35-3.543-.734-5.272-1.254-2.44-.715-4.729-1.684-7.31-2.308-5.862-1.583-14.39-.056-14.719 7.14-.098 1.514.155 3.072.54 4.55.69 2.485 1.432 4.969 2.089 7.47v-.003Zm21.975-3.998c-1.986-.528-4.097-.13-6.015.497-5.233 1.54-8.43 5.982-7.52 11.445.542 3.197 2.66 5.849 3.424 8.955.712 2.72.56 5.841 1.07 8.673.296 1.747.798 3.437 1.617 4.984 1.921 3.827 6.588 6.386 10.722 5.841 4.779-.579 7.183-5.315 7.087-9.787v-.056c-.01-4.745-2.196-9.279-4.875-13.02-1.358-2.065-3.354-4.045-3.453-6.642-.107-2.356 1.921-4.653 1.873-6.767-.077-1.977-1.902-3.6-3.928-4.117l-.002-.006Zm2.033 148.079c4.769-2.592 8.384-7.672 7.976-13.279v-.056c-.312-4.48-2.17-8.622-4.181-12.555-1.05-2.025-2.013-4.067-3.325-5.86-.828-1.115-1.911-2.14-3.237-2.575-1.564-.566-3.57-.085-4.035 1.655-.267.867-.165 1.953-.043 3.098.35 2.353.144 4.894-1.42 6.788-2.153 2.671-5.462 4.491-7.943 6.928-3.304 2.962-4.956 7.09-3.296 11.351 3.117 7.627 13.052 8.28 19.501 4.502l.003.003Zm-4.987-56.881v-.059c-.24-3.528-1.241-7.101-2.306-10.404-.912-2.829-2.316-5.623-2.244-8.665-.067-2.447 1.94-4.969 2.37-7 .581-3.092-3.544-3.468-5.74-2.355-1.911.835-3.453 2.404-4.425 4.229-2.721 5.28-1.195 11.824.558 17.18 1.406 3.679 2.647 7.127 1.377 11.106-.814 2.721-2.295 5.203-3.688 7.519-.784 1.337-1.654 2.826-1.724 4.385.056 3.85 5.164 2.439 7.266 1.099 5.815-3.41 8.945-10.391 8.553-17.035h.003Zm-26.38 47.071c3.132-1.606 4.602-5.113 6.77-7.589 1.253-1.417 2.9-2.415 4.653-3.095 1.34-.542 2.78-.964 4.043-1.601a6.035 6.035 0 0 0 3.45-6.439l-.008-.051c-.411-3.293-3.541-5.641-6.778-5.609-4.878.005-8.947 3.335-13.425 4.811-5.839 2.17-16.763 4.462-13.9 12.937 2.004 5.966 9.374 10.036 15.194 6.639v-.003Zm-2.032-97.972c-2.74.645-6.377.373-8.64-1.284-1.91-1.355-2.858-3.549-4.392-5.473-1.407-1.82-3.237-3.215-5-4.694-1.85-1.52-3.766-3.255-6.226-3.589-5.732-.739-9.74 5.105-6.133 9.876 1.055 1.428 2.637 2.314 4.014 3.384 1.56 1.18 2.663 2.7 3.584 4.443 2.04 4.336 5.593 7.648 10.414 8.49 3.883.743 7.817-.183 11.502-1.395 10.124-3.111 19.004-12.859 18.399-24.493v-.056c-.206-3.227-1.148-6.277-3.248-8.662-1.852-2.271-6.479-4.04-7.533-.355-.579 3.015 1.473 6.132 1.948 9.126 1.553 6.746-2.079 13.206-8.686 14.682h-.003Zm12.774 110.917c-.069-4.408-3.615-8.387-8.08-8.251-5.74.152-10.03 4.174-8.579 10.09 3.02 9.595 16.966 9.056 16.662-1.78v-.059h-.003Zm-21.745-32.054c2.316-.541 4.416-1.79 6.282-3.18 5.563-3.99 9.47-10.341 8.942-17.415l-.006-.058c-.16-3.728-2.564-6.525-4.902-9.169-2.044-2.458-4.92-5.927-8.39-4.176-2.19 1.19-2.966 3.906-2.868 6.302.04 1.401.328 2.832.473 4.179.976 5.836-4.542 9.401-6.618 14.274-2.322 5.083 1.31 10.746 7.087 9.246v-.003ZM47.884 30.753c-2.743 4.387-5.574 9.427-2.022 14.21 2.497 3.17 7.205 4.423 11.18 4.205 3.08-.18 5.874-2.28 4.812-5.41-.432-1.363-1.66-2.58-2.76-3.522-.77-.704-1.574-1.382-1.971-2.326-1.505-3.774 7.074-8.409 6.625-18.04v-.058c-.197-3.859-1.107-7.616-2.913-10.93-1.263-2.188-3.787-3.79-4.646-.133-.798 3.65-.091 8.045-1.644 11.602-.88 2.041-2.34 3.75-3.645 5.644-1.078 1.537-2.047 3.151-3.018 4.758h.002Zm3.333 133.116c-.77-4.507-4.958-6.359-8.872-7.624-3.346-1.147-6.445-2.749-9.737-4.005-2.498-.94-4.948-2.09-7.002-3.806-1.687-1.339-3.056-3.044-4.596-4.531-3.525-3.53-7.218-2.014-7.263 2.917.016 2.877.798 5.964 2.799 8.109 1.31 1.428 3.168 2.298 5.011 3.253 2.45 1.305 5.132 2.695 6.864 4.683 2.593 2.88 2.684 7.421 5.035 10.501 1.657 2.391 4.686 3.853 7.565 3.085 2.015-.489 3.632-1.871 5.129-3.229 2.647-2.394 5.775-5.388 5.078-9.303l-.008-.05h-.003ZM38.014 19.964c-.948.814-1.863 1.7-2.863 2.423-2.674 1.983-6.746 2.751-9.775 1.588-2.508-.785-5.332-6.052-7.256-1.59-.97 2.79-.413 6.438.131 9.35.454 2.196 1.003 4.408 2.626 5.996 2.514 2.279 6.348 2.652 9.638 2.175 5.11-.86 7.67-4.475 9.305-9.084.806-1.988 1.887-3.568 3.643-4.678 1.417-.926 3.058-1.558 4.347-2.684 2.215-1.86 3.317-4.617 3.391-7.645v-.056c.027-2.394-.52-4.785-1.88-6.69-1.36-1.898-3.478-2.325-4.468.237-.707 1.74-.894 3.776-1.806 5.452-1.105 2.164-3.139 3.568-5.03 5.206h-.003ZM50.668 87.5v-.059c-.491-7.626-2.885-14.641-9.228-19.172-1.31-.953-3.015-2.005-4.651-1.844-.776.088-1.324.512-1.47 1.147-.326 1.126.867 2.869 1.747 3.923.814 1.016 1.564 2.06 2.21 3.333 1.556 3.22 3.05 7.042 2.58 10.719-.376 2.965-2.137 5.542-4.104 7.712-1.732 1.889-3.354 3.816-5.814 4.213-5.404.606-10.46-4.955-15.701-5.822-6.984-1.223-8.193 5.98-5.751 11.004 3.576 7.456 11.133 13.738 19.717 13.38 13.599-.646 21.073-15.234 20.465-28.534Zm-26.976 50.167c.64 4.518 2.655 9.388 6.976 11.304 2.612 1.161 6.057 1.056 8.322-.718 2.824-2.282 3.49-6.103 3.235-9.855l-.006-.056c-.232-3.482-2.132-6.439-3.383-9.587-1.17-2.733-.267-6.239-1.61-8.713-2.078-3.432-6.28-3.162-9.592-1.839-1.543.571-3.165 1.212-4.444 2.239-2.986 2.319.217 5.801.473 8.699.341 2.802-.38 5.706.032 8.526h-.003ZM2.502 35.625c.141 3.968 3.231 5.585 6.743 3.773 1.37-.701 2.426-1.675 2.949-3.036.627-1.54.405-3.555.227-5.468-.198-2.791-.19-5.95.43-8.747.562-2.607 1.8-4.814 4.333-6.057 2.943-1.43 6.495-2.826 9.748-1.78 1.694.541 3.343 1.48 5.16 1.555 1.97.118 3.931-.763 5.498-1.902 2.58-1.75 4.381-4.868 3.706-8.054l-.01-.05c-.735-3.579-4.227-4.091-7.32-4.246-2.832-.155-5.655-.288-8.494-.558-2.8-.301-5.294-.872-8.235-.59-1.198.1-2.401.291-3.589.532-2.25.49-4.87.984-6.535 2.513-2.476 2.343-2.492 6.213-2.96 9.396-.434 3.344-1.173 6.6-1.419 10.012-.235 2.743.021 5.55-.099 8.28-.045 1.473-.221 2.957-.138 4.43l.005-.003Zm22.757 17.25c-.34-3.64-2.354-8.262-5.63-10.082-2.72-1.388-6.739-.857-9.135.96-1.759 1.38-2.522 3.736-2.471 6.229.085 3.18 1.494 6.279 3.093 8.968 1.297 2.143 2.914 4.032 3.978 6.26.996 1.983 1.505 4.174 2.22 6.271.905 2.626 2.229 5.132 3.963 7.24 1.633 2.023 3.747 3.498 6.314 4.515 2.305.936 8.088 2.62 8.336-1.163v-.04c-.117-2.88-3.506-6.285-5.244-8.705-2.647-3.424-5.446-7.194-5.758-11.661-.23-2.882.63-5.847.334-8.79v-.003Zm3.226 121.291c-.56-2.185-2.591-3.626-4.467-4.701-7.021-3.55-10.108-3.822-11.819-12.51-.9-3.875-1.022-8.142-3.29-11.517-1.062-1.471-2.7-2.308-3.992-1.908-2.978.904-2.423 7.063-2.874 9.726-.825 6.909-2.85 16.385 1.24 21.668 3.174 4.131 7.82 4.43 12.647 4.603 2.748.099 5.745.689 8.384.056 2.575-.6 4.83-2.759 4.181-5.371l-.01-.043v-.003ZM4.509 86.281c2.45 2.545 6.26 2.118 9.513 2.092 3.317-.054 8.552.8 8.23-4.016l-.006-.048c-.424-3.723-3.888-5.98-5.852-8.905-1.398-1.999-2.212-4.336-3.167-6.612a225.943 225.943 0 0 0-2.258-5.225c-.718-1.53-1.54-3.173-3.085-3.998-2.348-1.254-4.739.414-5.449 2.85-.565 1.692-.68 3.715-.774 5.556-.186 4.187-.15 8.371.435 12.459.297 2.103.892 4.296 2.41 5.85l.003-.003Zm.781 43.816c.588 2.169 1.028 4.499 2.498 6.255 1.492 1.908 4.392 2.428 6.25.835 2.484-2.106 3.38-5.673 3.333-8.833v-.056c-.06-3.97-1.828-7.53-3-11.234-.856-2.588-.894-5.622-1.87-8.019-1.388-3.274-7.392-8.459-10.602-4.798-3.952 5.134-.809 13.332 1.107 18.682.862 2.341 1.67 4.721 2.284 7.168Z"/></svg>
