<svg xmlns="http://www.w3.org/2000/svg" fill="none" viewBox="0 0 240 182" preserveAspectRatio="none"><path fill="#D6D6D6" d="M212.055 17.485c2.625 2.013 5.02 4.334 7.01 6.978 1.144 1.504 2.163 3.097 3.104 4.731 2.299 3.89 4.015 8.252 7.768 10.803 2.958 2.044 7.267 1.975 8.988-1.566 1.121-2.259 1.126-4.906 1.045-7.745v-.055c-.311-6.523-1.287-12.798-2.218-19.215-.97-7.62-3.303-9.521-10.926-9.795a295.558 295.558 0 0 0-15.161.022c-3.279.175-9.02-.106-10.232 3.654-1.082 5.398 7.072 9.205 10.617 12.188h.005Zm27.359 94.05c-.259-2.924-1.743-6.833-5.398-5.247-1.444.661-2.619 1.992-3.716 3.165-1.923 2.094-3.931 4.03-5.884 6.074-2.884 2.828-4.123 5.934-4.237 10.05-.082 8.786.43 13.349-6.808 19.65-2.168 1.911-4.464 3.659-6.78 5.393-2.827 2.081-5.78 4.143-8.981 5.607-2.61 1.2-5.375 1.944-8.145 2.672-5.129 1.245-10.092 3.213-14.85 5.294-3.331 1.511-6.926 3.069-9.304 5.941-2.776 3.39-1.946 7.929 2.242 9.588 2.98 1.193 6.472.869 9.664.921 3.823-.047 7.687.417 11.373.728 3.566.284 7.243.437 10.887.571 2.971.094 6.02.106 8.934-.477 3.16-.63 6.16-1.817 9.062-3.197 6.518-3.001 11.635-7.223 14.588-13.791 2.696-5.914 4.284-12.776 4.788-19.252.284-3.682.217-7.129.503-10.657.482-7.561 2.761-15.253 2.067-22.981l-.005-.05v-.002ZM152.53 24.863c-4.921 6.855-2.042 16.003-.049 23.482 1.106 4.04 1.741 8.166 1.839 12.356.069 6.603-.108 13.267 2.773 19.384 2.711 6.01 7.665 12.44 14.559 13.346 3.101.38 6.188-.539 9.173-1.477 2.464-.77 4.985-1.452 7.696-1.835 20.277-3.024 24.542 14.408 34.159 13.704 5.346-.538 8.956-4.948 10.86-9.881 1.765-4.477 3.062-9.529 3.207-14.413v-.05c.107-3.281-.089-6.61-.365-9.894-.277-3.17-.835-6.343-2.366-9.153-1.755-3.309-4.748-6.01-7.311-8.874-1.696-1.855-3.252-3.83-4.825-5.79-2.928-3.697-6.296-7.062-8.844-11.05-4.544-7.526-8.275-16.102-15.621-21.361-5.395-3.823-12.63-5.094-19.21-4.01-2.733.471-5.329 1.415-7.867 2.494-6.82 2.92-13.348 7.017-17.805 13.027l-.003-.005Zm62.434 96.139v-.052c-.037-7.825-5.788-14.361-12.926-16.781-6.766-2.059-17.534-1.701-23.779 1.825-4.676 2.57-7.881 7.119-11.269 11.138-1.543 1.81-3.156 3.559-4.926 5.107-2.939 2.565-6.324 4.514-9.736 6.37-4.963 2.642-9.954 5.603-15.24 7.445-5.477 1.968-11.391 2.459-16.946 4.116-12.801 3.746-24.068 13.01-16.643 27.117 5.798 10.662 20.425 15.037 33.018 11.494 6.366-1.59 11.566-5.272 16.828-8.901 5.079-3.408 10.257-6.806 15.756-9.517 18.875-8.491 46.451-13.232 45.856-39.364l.007.003ZM94.83 22.905c6.654-.197 13.546-3.05 19.926-3.87 5.507-.715 10.736 1.371 15.687 3.527 3.618 1.368 7.524 3.511 11.403 3.338 3.44-.081 5.694-2.854 7.763-5.294 1.351-1.57 2.869-2.987 4.662-4.037 3.247-2.207 10.943-3.55 10.778-8.368v-.035c-.835-5.417-10.361-5.382-14.716-5.827-5.033-.309-9.929-.625-14.9-.76-3.755-.097-7.607.212-11.222.412-4.077.27-8.153.27-12.247.247-5.759-.047-11.823.602-17.176 2.943-4.719 2.099-11.524 5.61-10.5 11.702 1.006 4.8 6.124 6.291 10.54 6.022h.002Zm18.306 114.082c3.914-1.461 7.06-4.4 10.28-6.834 1.879-1.428 3.859-2.712 5.965-3.786 3.079-1.602 6.42-2.629 9.645-3.889 4.289-1.615 8.329-4.101 11.991-6.637 5.995-3.993 10.637-9.259 10.21-16.914v-.052c-.393-6.679-5.43-11.956-11.739-13.625-3.385-1.01-7.166-1.543-10.672-1.336-2.338.136-4.657.632-6.906 1.282-3.134.916-6.265 2.04-9.055 3.568-2.812 1.533-5.511 3.607-8.153 5.615-1.632 1.257-3.269 2.518-4.775 3.92-3.776 3.344-5.838 8.041-8.376 12.268-2.716 4.553-6.376 8.82-7.376 14.21-2.051 10.519 10.527 15.67 18.961 12.208v.002Zm26.1-104.291c-9.464-5.84-25.462-7.28-37.685-4.61-6.934 1.506-12.415 6.284-17.28 11.23-2.844 2.925-5.177 6.2-8.871 7.945-2.494 1.3-5.346 2.139-7.697 3.842-.78.563-1.504 1.218-2.188 1.91-1.651 1.693-3.123 3.562-4.654 5.367-4.26 4.902-8.556 10.023-10.926 16.164-2.798 7.23-4.749 15.148-4.472 22.983.368 8.237 4.299 16.618 11.18 21.114 6.71 4.341 15.974 4.946 23.011 1.19 3.595-1.918 6.437-5.057 9.55-7.805 2.223-2.015 4.52-3.953 6.628-6.089 3.966-4.096 7.346-8.783 11.613-12.593 15.758-14.134 41.87-17.023 41.102-43.705v-.054c-.331-6.904-3.706-13.267-9.313-16.894l.002.005ZM92 158.146c.025-4.652-.158-9.472-.852-14.139-.728-4.718-2.642-9.904-7.417-11.682-7.931-2.819-17.51 1.428-26.62-3.691-8.147-4.58-12.944-14.692-15.611-23.255-1.427-4.785-2.647-9.864-2.227-14.921.18-3.324 1.128-6.72.513-10.02-.716-4.346-4.726-7.05-9.015-5.885-2.43.618-4.306 2.46-5.85 4.398-1.48 1.852-2.9 3.778-4.63 5.415-2.802 2.684-6.13 4.768-8.69 7.684-3.722 4.104-6.391 9.531-6.171 15.176.14 6.595 4.738 11.702 6.862 17.63 1.827 5.223 2.407 10.921 4.52 16.082 2.337 6.134 5.95 11.761 10.31 16.608 2.457 2.775 5.234 5.23 7.926 7.773 2.805 2.647 5.432 5.492 8.509 7.83 7.684 5.519 17.55 8.435 27.075 7.291 12.158-1.271 21.566-9.711 21.358-22.242v-.05l.01-.002ZM31.8 35.698c-.67 4.119-.044 8.405.24 12.566.435 4.664.521 10.309 2.161 14.25 1.355 3.427 4.615 6.05 8.353 6.178 6.68.31 7.855-9.843 11.188-14.922 3.116-5.25 11.929-8.032 16.102-12.494 8.156-1.96 11.98-11.882 11.57-20.702v-.05C81.198 14.113 76.238 7.93 69.39 9.698c-4.08 1.033-7.023 4.294-10.769 6.033-3.573 1.773-7.689 2.51-11.407 3.975-7.198 2.721-14.028 8.097-15.413 15.996v-.003ZM2.023 53.77c.255 4.855.892 10.11 3.531 14.255 2.304 3.916 7.504 6.75 11.492 3.775 6.931-5.533 2.533-23.042 5.262-31.351 2.667-8.88 13.85-18.423 22.27-22.048 2.977-1.35 6.32-2.116 9.165-3.684 2.378-1.274 4.06-3.834 3.724-6.55l-.005-.043c-.533-4.79-5.652-6.158-9.758-6.676C43.695.907 39.665.6 35.643.78c-9.255.588-19.092.657-27.349 5.368C3.158 9.391.106 15.512 0 21.53c0 5.966.467 12.29.807 18.144.413 4.717.993 9.369 1.218 14.097h-.003Zm31.465 117.5c-.637-2.793-2.76-4.971-4.869-6.8-4.817-4.23-10.156-8.186-13.46-13.808-2.318-3.743-3.279-8.114-5.286-11.986-2.037-4.025-6.768-5.555-8.882-.612-1.289 3.556-.738 7.679-.689 11.435.227 4.489-.015 9.03.613 13.42.923 6.445 4.447 12.902 10.417 15.892 6.482 3.452 24.235 3.4 22.166-7.497l-.01-.044Z"/></svg>
