<svg xmlns="http://www.w3.org/2000/svg" viewBox="0 0 240 179" preserveAspectRatio="none" fill="none"><path fill="#D6D6D6" d="M173.594 151.29c2.439-1.849 4.715-3.998 7.039-6.024 2.757-2.431 5.704-4.645 8.863-6.529 6.769-4.08 14.256-6.761 20.177-11.979a42.798 42.798 0 0 0 10.989-14.947c.946-2.159 1.529-4.443 2.222-6.599.98-3.164 2.358-5.999 4.457-8.54 3.915-4.47 7.875-9.005 10.054-14.576 1.593-4 2.867-8.365 2.559-12.7l-.005-.048c-.38-5.55-4.781-9.268-10.016-6.326-3.065 1.698-5.644 4.475-8.973 5.688-2.529 1.006-5.203 1.366-7.93 1.829-2.626.44-5.261.885-7.892 1.285-5.996.919-12.253 1.411-17.938 3.863-2.585 1.09-5.099 2.519-6.955 4.563-2.546 2.766-3.459 6.266-4.527 10.056-1.871 7.382-5.661 14.028-11.965 18.408-3.907 2.842-8.233 5.208-12.132 8.068-6.319 4.412-11.455 10.771-13.116 18.411-2.331 10.849 3.365 20.347 14.521 22.233 7.255 1.248 14.824-1.846 20.565-6.141l.003.005Zm64.421-43.376c-2.479-4.483-8.442-4.598-11.214-.288-2.534 3.965-2.239 9.478-3.315 13.956-1.005 4.965-4.552 8.18-8.467 11.107-6.309 4.9-12.585 9.856-19.004 14.618-5.418 4.125-10.904 8.11-16.68 11.688a35.46 35.46 0 0 1-3.823 1.998c-3.967 1.794-8.33 2.512-12.67 3.417-2.208.478-4.627 1.088-6.491 2.169-5.106 2.939-4.17 8.34 1.498 9.513 5.301 1.088 11.725-.13 17.271-.157 3.427-.04 6.766.435 10.178.755 5.211.628 10.819.028 15.822-.825 2.775-.446 5.496-.931 8.258-1.591 2.269-.546 4.53-1.216 6.671-2.139 7.022-3.024 12.195-9.093 15.055-16.062 1.373-3.355 1.658-7.157 2.681-10.557 1.186-4.567 5.368-7.914 5.518-12.635v-.045c.161-2.789-.39-5.613-.26-8.445.31-5.263 1.631-11.932-1.02-16.482l-.008.005ZM200.63 8.389c4.635 2.979 11.044 2.669 15.309 6.414 4.243 3.607 5.814 9.475 9.471 13.53 2.136 2.45 5.631 4.666 8.893 3.317 4.865-2.098 6.006-11.302 5.393-16.052l-.007-.053c-.593-5.273-4.33-9.338-9.268-10.969-3.995-1.395-8.285-1.455-12.583-2.11-1.784-.261-3.557-.581-5.328-.916-3.845-.658-8.4-1.877-12.092-.468-3.87 1.548-2.915 5.288.215 7.304l-.003.003Zm-64.791 35.108c4.187 1.361 8.91 1.104 13.095 1.494 4.835.39 9.508 2.584 12.778 6.188 3.202 3.453 4.895 8.203 7.749 12.008 2.197 2.997 5.096 5.778 8.796 6.566 4.515.976 8.73-1.416 12.867-2.987 2.044-.745 4.165-1.32 6.304-1.58 5.303-.774 10.522 1.13 15.82.77 8.34-.315 13.793-8.027 13.711-15.99v-.05c-.023-3.164-.791-6.394-1.591-9.558-1.169-4.578-2.492-9.195-5.319-13.02-8.542-11.93-26.661-16.49-41.217-16.573-3.477-.092-7.309.333-10.721-.077-4.516-.476-7.585-3.65-11.122-6.134a17.495 17.495 0 0 0-5.243-2.412c-8.671-2.469-17.401 1.804-21.393 9.739-1.641 3.177-2.749 6.659-3.74 10.103-1.148 4.14-2.191 8.553-.715 12.676 1.493 4.447 5.503 7.57 9.941 8.832v.005Zm16.197-34.89c.077-.098.253-.05.308.057l.015.04c.03.163-.216.125-.301.06-.062-.043-.07-.108-.022-.158ZM9.205 94.17c3.912.677 7.387-2.512 11.286-.949 1.882.636 4.07 2.254 5.964 3.66 2.804 1.974 5.418 4.28 8.165 6.286 3.522 2.649 7.687 3.548 11.885 2.239 4.542-1.401 8.735-4.16 11.982-7.622 2.494-2.734 4.315-6.174 6.289-9.493 2.987-4.918 5.768-9.761 9.448-14.081 2.78-3.375 8.71-6.391 12.067-2.341 1.929 2.401 2.324 6.093 4.288 8.585 2.046 2.679 5.153 4.017 8.045 5.81 4.712 3.078 9.555 5.952 14.463 8.708 3.66 2.18 7.277 4.478 10.854 6.752 10.404 7.114 21.806 7.67 32.255.318 4.903-3.02 8.087-7.527 10.008-13.353 1.396-4.09 2.209-8.608 1.776-12.9l-.005-.05c-1.048-10.242-10.851-18.742-20.117-22.024-5.295-1.826-10.986-2.216-16.437-3.372-7.267-1.323-14.394-4.598-15.074-12.76-.288-3.15.693-6.229 1.228-9.336.428-2.464.53-5.03-.055-7.48-1.976-8.247-9.163-10.516-16.165-13.272-4.152-1.629-8.122-3.833-12.53-4.733-5.168-.968-10.606-.6-14.531 2.361-2.992 2.26-3.785 6.084-1.869 9.22 1.604 2.79 4.22 5.179 4.553 8.521.328 2.426-.34 5.076-1.028 7.457-1.41 5.036-3.59 9.703-6.594 13.913a140.905 140.905 0 0 1-7.522 9.671c-3.545 4.15-7.765 7.705-11.815 11.322-2.969 2.464-6.15 6.071-10.03 6.714-1.532.198-2.735-.465-3.22-1.766-2.774-9.828 18.409-23.852 24.412-30.941 3.637-3.828 6.727-9.801 3.797-14.827-2.906-5.113-10.568-6.839-16.362-5.716-2.82.47-5.548 1.424-8.125 2.637-11.977 5.721-19.86 16.05-27.344 26.298-3.57 5.196-7.412 10.394-10.194 16.025-3.289 7.257-4.22 16.578-.777 24.017 1.433 2.902 3.76 5.776 7.031 6.507l-.002-.005Zm132.347 71.958c-1.083-6.872-10.997-7.707-16.745-9.403-5.436-1.354-10.559-3.397-15.887-5.073-9.023-3.037-16.873-3.09-26.186-1.494-9.265 1.619-18.263 4.916-26.17 10.031-2.224 1.476-4.814 2.937-6.73 4.643-5.723 5.106 1.394 8.315 5.919 9.773 4.065 1.339 7.905 2.449 12.19 3.102 3.734.568 7.56.668 11.337.518 8.777-.528 17.145-.983 25.865-.99 2.777-.043 5.553-.141 8.325-.313 5.393-.35 10.774-.873 16.12-1.824 5.018-.94 12.337-2.796 11.962-8.928l-.005-.04.005-.002Zm-73.29-24.275c5.707-1.863 11.883-2.479 17.84-2.149 3.921.253 7.676 1.134 11.604 1.601 3.212.396 6.539.528 9.796.153 3.874-.44 7.707-1.546 11.106-3.46 6.517-3.802 11.95-11.001 11.68-18.721v-.05c-.243-6.709-4.661-12.28-10.056-15.877-4.938-3.432-10.459-6.049-16.32-7.467-8.095-2.041-14.837-3.535-23.014-.708-5.006 1.664-9.868 3.985-13.798 7.512-4.813 4.35-8.63 9.601-12.723 14.609-4.375 5.313-9.939 6.201-15.234 1.588-1.676-1.451-3.092-3.167-4.58-4.803a68.811 68.811 0 0 0-6.962-6.776c-2.58-2.146-5.308-4.225-8.37-5.476-7.33-3.03-14.291.078-16.493 7.725-3.274 10.904 2.347 21.768 3.2 32.614.573 5.999-.633 10.242-2.572 15.787-.753 2.449-1.183 4.793-.665 7.21 1.22 5.703 7.642 9.2 13.283 8.64 2.972-.263 5.643-1.711 7.885-3.65 2.469-2.114 4.54-4.678 6.909-6.896a38.718 38.718 0 0 1 5.788-4.531c5.228-3.259 11.17-5.54 16.44-8.805 4.933-2.894 9.831-6.246 15.257-8.07Zm-62.92-97.22c4.716 2.746 7.713-4.269 9.631-7.553 1.228-2.209 2.562-4.368 4.05-6.411 3.512-4.81 7.675-9.153 12.918-11.782 4.913-2.795 16.562-4.706 15.897-11.898l-.005-.037c-.958-4.588-6.934-5.103-10.852-5.486C33.184 1.16 29.47.782 25.595.68c-4.478-.045-8.93.205-13.376.565-4.205.358-8.35 1.529-9.446 6.124-.557 2.071-.545 4.35-.587 6.506-.036 2.977-.188 5.9-.226 8.883a806.06 806.06 0 0 0 .008 10.137c.145 3.932-.02 9.168 3.374 11.742v-.003Z"/></svg>
