<svg xmlns="http://www.w3.org/2000/svg" fill="none" viewBox="0 0 240 241"><path fill="#D6D6D6" d="m.674 120.336-.674.683h1.358l23.071 23.029-10.701 37.05 36.31 8.726 9.124 34.877 35.926-10.122 25.81 25.762 26.715-27.068 31.114 7.477.67 1.129.262-.905.944.226-.679-1.145 9.237-31.982 33.254-9.369 1.16.652-.238-.912.934-.263-1.176-.661-8.422-32.194 23.989-24.307H240l-.674-.672.674-.684h-1.358l-23.071-23.028 10.701-37.05-36.311-8.726-9.123-34.877-35.926 10.122L119.102.341l-26.715 27.07-31.114-7.478-.67-1.13-.262.906-.944-.227.68 1.146-9.238 31.981-33.254 9.37-1.16-.652.238.912-.934.263 1.176.661 8.422 32.194-23.989 24.306H0l.674.673Z"/></svg>
