<svg xmlns="http://www.w3.org/2000/svg" fill="none" viewBox="0 0 240 241" preserveAspectRatio="none"><path fill="#D6D6D6" d="M180 197.484c-18.48 0-35.008-8.354-46.015-21.492 9.387 21.328 19.705 38.574 27.129 49.824 3.958 5.998-.332 14.525-7.519 14.525h-67.19c-7.187 0-11.477-8.527-7.519-14.525 7.424-11.25 17.742-28.496 27.129-49.824C95.008 189.13 78.48 197.484 60 197.484c-33.137 0-60-26.863-60-60s26.863-60 60-60c.837 0 1.67.017 2.5.051A60.01 60.01 0 0 1 60 60.341c0-33.137 26.863-60 60-60s60 26.863 60 60a60.02 60.02 0 0 1-2.5 17.194 61.205 61.205 0 0 1 2.5-.05c33.137 0 60 26.862 60 59.999s-26.863 60-60 60Z"/></svg>
