<svg xmlns="http://www.w3.org/2000/svg" fill="none" viewBox="0 0 240 181" preserveAspectRatio="none"><path fill="#D6D6D6" d="M239.935 50.264c-.017-4.125-2.101-7.509-5.263-10.039-5.385-4.253-9.592-9.78-13.684-15.274a441.892 441.892 0 0 1-12.397-15.846c-5.263-7.052-8.97-8.31-17.567-7.99h-8.315c-2.655.18-8.433-.765-7.904 2.777.162.922.935 2.422 1.668 3.513 1.699 2.645 3.457 5.326 5.088 8.04 7.672 12.114 11.161 27.078 20.242 38.195 3.583 4.205 8.108 8.672-1.071 5.797-6.913-2.343-12.82-6.556-18.237-11.166-9.249-7.436-7.092-16.184-8.264-26.618-.703-5.014-2.313-15.77-6.304-18.761-2.953-2.197-6.622-1.693-10.374-1.774-2.446.096-7.09-.481-7.427 2.744-.144 1.577.917 3.989.859 5.135-.005.363-.151.743-.512.862-1.131.398-3.235-.97-4.613-1.502-3.855-1.928-7.947-3.414-12.115-4.53-6.074-1.65-12.217-2.76-18.489-2.87-5.329-.136-10.695.189-16.02.25-2.149.06-7.314-.122-3.497 2.632 4.783 3.314 9.681 6.44 15.06 8.978 8.023 3.986 17.743 4.061 25.015 9.552 7.055 5.369 11.578 13.225 16.705 20.426 4.929 6.786 10.379 13.203 16.433 18.983 7.894 7.033-1.275 6.891-6.561 4.636-8.866-3.424-17-8.221-25.209-13.008-5.425-3.135-11.003-6.214-15.601-10.512-2.152-2.009-4.034-4.291-5.796-6.652-7.339-10.243-15.226-20.11-23.777-29.39-2.865-3.328-6.71-5.583-11.2-5.671-1.716-.113-5.037.005-5.568 1.585-.459 1.91 1.043 3.656 1.955 5.258 2.03 3.213 5.095 7.491 6.35 10.787.737 2.116-.76 2.127-2.908 1.104C68.789 13.799 56.914 7.65 44.32 3.024c-3.993-1.42-8.211-1.932-12.434-1.907-8.164.005-16.332-.028-24.494.013-2.093-.015-4.898.48-5.93 2.109C-.214 6.87 4.89 9.02 7.77 9.922c5.193 1.617 10.371 3.19 15.509 4.928 5.576 1.837 6.903 3.107-.078 4.026-4.8.7-9.53 1.48-14.466 1.91-2.025.187-4.28.368-6.006 1.421-4.087 2.606-1.792 7.877 2.098 9.378 4.765 1.86 9.824 3.062 14.7 4.637 7.214 2.088 14.611 3.834 21.25 7.455.817.345 9.925 5.385 5.246 4.24-13.762-4.67-27.277-10.645-41.538-14.021C1.45 33.604.36 35.451.167 38.506c-.01 4.443-.96 10.352 3.235 13.282 1.81 1.328 4.435 2.074 6.897 2.948 7.596 2.761 15.4 5.26 22.777 8.529 4.082 2.089-.695 3.613-2.857 4.235-6.093 1.804-12.515 3.092-19.11 3.825-3.003.39-5.903.305-8.284 1.741-2.597 1.492-3.091 5.279-1.086 7.448l.028.03c1.5 1.694 4.057 2.092 6.292 2.286 10.53.877 21.379.31 31.349-3.465 6.138-2.403 12.608-5.767 19.424-3.96 2.6.576 5.034 1.61 7.443 2.685 2.046 1.018 5.858 2.356 6.883 4.004.635 1.557-2.41 2.099-3.64 2.505-12.4 3.104-25.366 5.986-37.367 10.335-2.988 1.151-5.752 2.726-8.506 4.336-6.176 3.83-13.145 6.388-19.275 10.301-4.49 2.973-4.36 8.098-4.268 13.132.199 2.346-.706 7.675 1.685 8.68 1.164.355 2.578-.35 3.79-.99 6.88-4.069 14.014-7.96 21.381-11.366 14.617-6.932 5.576-.363-.768 4.205-7.25 5.679-15.146 11.104-22.614 16.599C.205 142.696-.1 147.186.021 151.336c.005 1.754.03 3.515.053 5.271.196 3.374-.459 6.561 1.678 8.874 3.1 3.631 18.469-2.996 19.134.156-.043 2.961-11.056 11.606-10.272 14.083 1.4 2.298 6.765.156 8.94-1.497 7.923-6.125 13.363-15.644 22.401-20.278 5.617-2.948 11.757-5.052 17.575-7.551 5.654-2.512 6.135-1.625 2.267 2.844-8.526 10.107-20.079 17.434-30.684 25.323-1.96 2.005.2 2.267 2.545 2.373 6.176.368 10.986-1.738 15.8-5.344 4.017-2.774 8.313-5.059 12.2-7.967 2.374-1.756 4.62-3.676 6.998-5.43 1.884-1.406 3.827-2.749 5.734-4.124 8.615-6.043 15.257-14.088 21.71-22.322 4.097-5.447 10.189-8.111 16.178-10.923 9.119-4.278 18.073-8.995 27.059-13.485 3.451-1.491 8.811-5.041 12.477-4.117 3.421 1.754-4.203 9.89-6.191 11.117-1.426 1.046-3.031 1.839-4.724 2.53-13.13 4.989-26.683 10.771-36.333 20.777-2.029 2.053-3.964 4.187-5.964 6.281-2.29 2.568-5.078 4.709-6.98 7.574-2.998 5.082 3.278 3.709 5.929 2.129 6.417-3.527 13.014-6.929 19.751-9.932 3.608-1.661 11.271-5.45 4.755.967-9.522 9.227-21.659 15.65-33.615 21.803-4.545 2.391-9.813 4.23-13.855 7.385-2.95 2.582.282 3.099 3.268 3.104 6.31.033 12.636.002 18.95.012 4.281-.017 8.524.197 12.568-1.096 5.835-1.965 10.839-5.868 15.778-9.451 7.781-5.898 14.652-12.666 20.983-20.028 1.5-1.709 3.095-3.485 4.843-4.888 2.666-2.273 5.395-2.739 4.135 1.635-3.228 8.955-8.252 17.715-14.616 24.76-1.492 2.071-10.989 8.088-4.256 8.905 4.25.352 8.783.09 13.077.163 3.92-.03 7.818.245 11.391-1.237 5.085-2.167 8.317-7.065 11.036-11.673 3.593-7.048 5.382-10.993 12.245-15.629 4.616-3.45 9.487-6.282 14.954-7.942 12.08-3.959 25.882-6.194 37.767-10.946 2.386-1.312 3.19-3.658 3.24-6.425.048-25.612.089-51.246-.015-76.859v.005ZM99.03 107.779c-2.568 2.283-4.956 4.75-7.813 6.627-4.138 2.683-8.84 4.497-13.244 6.694-21.656 10.109-43.184 22.093-67.33 26.373-2.678.436-2.922.091-.445-1.091 16.964-7.707 33.211-17.269 47.371-29.179 2.11-1.85 4.007-3.908 5.974-5.896 2.125-2.112 4.468-4.135 7.146-5.468 3.785-1.94 8.131-2.099 12.29-2.439 5.206-.393 10.483-.93 15.786-.967 1.26.042 3.17-.008 3.737.939l.008.02c.38 1.311-2.389 3.342-3.483 4.385l.003.002Zm31.568-34.146v.02c-.105 1.87-10.209 2.532-12.29 2.1-6.032-.74-10.84-4.166-15.942-7.267-6.32-3.866-11.815-8.847-17.925-13.004-6.687-4.591-12.825-9.729-19.512-14.322-2.547-1.703-5.273-3.122-8.1-4.296-7.06-2.943-14.133-5.137-21.712-6.55-.88-.19-3.714-.676-3.535-1.273.486-.953 5.23-1.782 6.77-2.132 7.31-1.534 14.984-.035 21.488 3.53 16.5 8.645 33.513 16.75 49.044 26.766 4.256 2.903 8.106 6.377 12.314 9.363 2.242 1.638 4.601 3.162 6.971 4.636.923.567 2.573 1.772 2.434 2.437l-.005-.008Zm78.056 48.896c-.219 1.416-3.066 2.364-4.407 3.099-10.401 4.694-17.373 13.42-26.468 20.062a348.864 348.864 0 0 0-3.105 2.333c-2.293 1.695-4.527 3.671-7.055 4.744-2.597.99-3.212-.615-2.416-3.101.701-2.17 1.739-4.231 2.615-6.33 1.197-2.701 2.308-5.571 3.77-8.151 1.564-2.892 3.935-4.515 7.115-5.871 2.359-1.038 4.795-1.965 7.196-2.9a424.226 424.226 0 0 1 11.901-4.379c1.657-.567 3.285-1.04 5.004-1.194 1.683-.156 5.649-.083 5.85 1.668v.023-.003Z"/></svg>
