<svg xmlns="http://www.w3.org/2000/svg" fill="none" viewBox="0 0 240 181"><path fill="#D6D6D6" d="M236.636 100.064c-.68-1.596-.104-2.92-1.512-3.737-1.416-.82-3.433-.135-3.913 1.068-.118.09-.236.177-.357.267-.45-.992-2.177-2.192-2.846-.624-.391.958.157 2.225.267 3.113-2.683-.084-5.324.596-6.316 2.225-1.539 2.532 1.7 4.032 4.004 4.004-.439.607-.809 1.05-.801 2.135v.09c.492.382.753.626 1.691.624l2.136-2.403h.533c-.073 2.085-.789 6.271.534 7.474.382.345 1.071.252 1.425.623.497.52.837 1.369 2.045 1.158 3.065-.537 3.478-6.066 3.38-9.786.986-.269 1.747-.736 2.579-1.067 1.955-3.414-2.242-3.74-2.846-5.158l-.003-.006Zm-4.537 57.909-.09-.177c1.278-1.112 3.276-2.497 3.646-4.447.155-.809-.185-1.599-.443-2.046-1.366-2.36-4.619-.694-6.049.357-1.057-4.509-5.566-2.764-6.049.978-.801.031-1.602.059-2.402.09-2.147.792-1.13 4.88-.624 6.672l-2.579 3.026c-1.514 1.138-3.422 1.478-3.914 3.647-.303 1.332.464 1.952.891 2.759.537 1.011.691 2.231 1.601 2.846 1.751 1.185 4.945-1.984 5.425-3.026l.978-.891c.784 1.697.736 4.316 3.203 4.358 1.503-1.301 2.484-3.953 2.846-6.316 2.481 1.394 10.673 5.72 11.207-.801-.236-.623-.475-1.244-.711-1.868-.278-.402-6.445-5.051-6.939-5.158l.003-.003Zm2.759-112.172-.267.177c-1.116-1.11-1.605-6.164-4.358-4.804-1.601.753-1.118 3.18-1.868 4.804v.177c-.568-.466-1.332-1.387-2.402-.8-.703.424-.756 4.832-.444 5.425-.764.938-2.655 1.672-3.914 2.045-1.149 1.885.337 3.152 2.492 3.026-.93 2.22-2.649 5.959-.444 8.007 1.708.374 3.45-.817 3.914-2.225l.267-.177c.511 1.382 2 5.31 4.27 3.824 2.144-1.405 2.832-5.886 2.846-9.342.573.242 1.692.548 2.312.177 1.032-.669-.716-1.138-1.334-1.157l2.579-1.602c1.354-1.81-.879-3.357-2.402-3.557 1.346-1.697 3.548-2.16 3.557-5.248l-.801-.8c-1.66-.72-3.596 1.09-4.003 2.045v.005Zm-8.808 13.346-.267.177c.168-.509.149-.745.711-.891-.149.236-.298.475-.444.71v.004Zm-5.425-37.094.533.534c-1.567 1.048-6.023 4.77-3.646 7.74 1.663 2.076 5.436-.014 7.116-.711h.09c.076 3.16 1.096 6.53 3.557 7.383 2.579-.076 2.854-4.804 2.936-7.383 1.396 1.118 3.208 5.313 6.226 3.47 3.155-1.928-.439-7.833-2.402-8.628l-1.512-1.602c2.956-2.084 5.793-6.459 5.692-11.474-2.891-3.388-7.586 1.16-8.451 4.004-.149.118-.298.236-.444.357-.008-3.006-.534-7.235-3.647-7.207-.665.669-1.073.765-2.135.891-.694 1.073-.851 2.464-.8 4.357h-.09l-2.313-.71-2.579-1.425c-.682.15-1.362.298-2.045.444-2.548.433-4.161-.508-4.537 2.046-.425 2.874 7.262 5.616 8.451 7.917v-.003Zm15.21-8.007c-.149.503-.298 1.008-.444 1.511-.444.118-.89.236-1.334.357l1.778-1.868Zm-5.071 156.649c-.761.373-.952 1.298-1.601 1.778-1.11.823-2.529.854-3.203 2.135.095 1.441.829 2.023 1.157 3.203.397.281.708.438 1.425.444.011 1.45.643 2.52 1.958 2.669.278-.127 2.635-1.753 2.759-1.958l.624-1.869c.941-1.438 2.888-1.657 3.736-3.379-.003-2.096-4.899-3.473-6.849-3.026l-.006.003Zm6.316-36.027c-1-.969-1.694-2-3.113-2.579a417.17 417.17 0 0 0-1.691-.444h-.177c.868-.955 5.175-1.888 4.537-3.913-.433-1.38-4.079-.753-5.158-.357h-.267c.157-2.231 1.07-4.765-.624-6.049-2.866.214-4.779 2.942-5.959 4.891l-.624 1.335c-.303.157-3.669-.913-5.158-.534 1.27-3.197.365-5.95-.89-8.541 2.475-1.416 7.493-.047 8.628-2.846 1.382-3.405-4.622-3.804-7.561-3.736.309-1.616 2.416-3.372 1.602-5.159-.368-.598-.981-.275-1.602-.623-.326-.357-.652-.711-.977-1.068-1.06-.702-2.931-.05-3.737.357-.118-.298-.236-.593-.357-.891-.298-.149-.593-.297-.89-.444-.745.175-.753.759-1.158 1.245-1-1.604-2.071-3.506-3.914-4.27-.845 0-1.267.309-1.511.89-.511.166-1.593-.559-2.492-.09-.874.531-.697 2.532-.357 3.557 1.276 2.756 2.551 5.515 3.824 8.274.323 1.377-.961 2.265-1.335 3.113-.623 1.896-1.244 3.796-1.868 5.692l-.978 2.045c-.196.975.45 1.579.801 2.046 3.183.778 5.08-1.534 7.293-2.313l1.068-1.067c.604 1.211 1.542 3.146 2.759 3.736.388.61.129 1.172.09 2.313.444.503.831.98 1.511 1.244l.177.267c-2.649.868-6.15-.028-8.094 1.335-.135.46-.255.91 0 1.334.509 1.028 1.691.43 2.669.978l.801.891c1.579 1.118 3.944 2.028 6.226 2.312-.335 1.851-3.838 8.111 0 8.718 2.292.362 4.444-3.538 5.425-3.47 2.32 1.562 5.411 5.714 9.075 2.936.696-2.678-1.897-5.667-3.737-6.406-.09-.118-.177-.236-.267-.357 3.394-1.135 8.024.298 8.007-4.357l.003.005Zm-7.027 8.005.624.71c-.385.284-.787.054-1.245-.089l.624-.624-.003.003Zm-3.559-1.422.8.624c-.272.078-.612-.343-.8-.624Zm2.048-72.676c-1.59.04-2.68 1.225-2.936 2.58-.09.058-.177.117-.267.176-.073-1.888-1.07-5.461-3.29-5.07-1.694.297-2.815 3.528-3.026 5.337-1.36-.913-2.832-2.582-4.891-1.958-1.652 2.329.902 3.293 2.045 4.624h.177c-1.733 2.1-4.262 2.728-3.38 6.583-.901 1.155-.856 1.947-.533 3.647-1.225-.697-2.411-1.546-4.181-1.692.194-3.23 4.175-7.113 1.778-10.319-2.292-3.068-7.636 3.119-8.184 4.891-.691.08-.924-.48-1.868-.533-.444.416-.89.831-1.334 1.244-2.703-.463-7.114-2.45-8.541.711-.441.98-.014 2.293.444 2.936.525.736 1.393.997 2.045 1.601-.416.565-.832 1.127-1.245 1.692-1.581 2.674-.663 5.546 2.58 5.782v.09c-.849 1.323-3.344 4.587-1.245 6.315 1.941.352 3.975-.682 5.338-1.334.354.69.756 1.388 1.691 1.511 1.737.526 3.49-3.767 3.47-5.692 3.369 1.152 5.973 9.156 10.94 7.117 4.723-1.939-2.697-7.65-3.737-8.985 1.981-.472 3.833-2.172 2.67-4.624v-.09c1.025.36 1.834.913 3.202.977-.154 1.054.059 1.765.357 2.492.43.245 1.017.298 1.779.267.224.83.713 1.175 1.778 1.158.545 3.916 1.34 4.871 3.293 7.206 4.366-.441 4.644-6.422 4.537-11.387 1.714 1.253 4.686 4.139 7.56 2.225.913-.606 1.369-1.185 1.335-2.758-.565-.711-1.127-1.425-1.691-2.136-1.051-.792-2.397-1.191-3.203-2.225h-.177c.997-1.253 3.003-1.702 3.557-3.38.252-.767-.152-1.345-.357-1.868-.958-2.453-2.051-3.914-5.425-3.914.261-1.581-.003-2.663-1.068-3.202l.003.005Zm-23.575 9.519c.436-.706.984-1.523 1.779-1.869-.382.83-.787 1.647-1.779 1.869Zm-6.582-34.605c-.717 2.852 3.059 7.395 4.714 8.628-.469 1.616-2.663 1.32-1.424 4.004-1.02 1.427-1.458 3.632-.267 5.158 2.447.632 3.422-.854 4.714-1.868.239 2.079.638 5.413 1.958 6.492 2.371 1.942 4.723-1.138 5.159-3.203 2.354.967 6.178 2.077 7.917-.266 2.219-2.99-.829-8.359-3.113-9.252l-.09-.177c1.385-1.694 5.071-2.307 4.27-5.515-1.323-.916-3.34-.514-4.804.09.86-1.961 2.284-3.38 1.778-6.226-2.551-1.568-5.369 1.947-6.048 3.737l-.177.09c-1.203-3.231-1.206-3.68-3.914-5.426-.551-.354-.688-.845-1.512-.977l-.977.09c-.953 1.62-.941 4.439-.891 7.026-2.638-.275-5.304-5.206-7.293-2.402v-.003Zm19.394 16.278c-.236.06-.475.118-.711.177l-.09-.177h.801Zm-21.083 110.037c2.768-1.225 6.403-1.113 6.406-5.158 2.913-.219 4.807-5.715 5.158-8.718h.09c1.683 1.306 3.414 2.984 5.782 3.557 2.217.536 4.253-1.29 3.557-3.824-.683-.919-1.366-1.837-2.046-2.759l-.89-.891c2.329-.826 5.554.087 5.515-3.202-1.582-1.829-4.785-2.636-8.184-2.58.638-.803 2.219-1.89 1.868-3.292l-.534-.801c-1.548-.39-2.804.329-3.913.891-.72-1.686-.649-4.751-2.046-5.782-1.708-1.262-4.877 1.907-5.515 2.936-.562 1.719-1.126 3.438-1.691 5.158-1.191.652-2.764-.214-4.447.177l-2.759.978-4.091.266c-.261.402-.475.708-.534 1.335.922 2.191 4.672 1.093 6.049 2.846l-1.691 2.225c-.239.885.171 1.646.444 2.045 1.497 2.197 5.161.385 6.582-.89l.267-.09c1.183 1.927 1.47 5.248 1.425 8.361h-.09c-2.357-1.107-5.498-1.582-8.985-1.512-.149-1.157-.298-2.312-.444-3.469-.444-1.082-3.543-3.782-5.425-3.026-1.017.41-.86 1.896-1.245 2.135l-1.067-.09c-2.085.332-2.554 1.52-2.492 4.004-2.779-.037-9.474.587-10.674 1.958-2.514 2.866 3.406 5.678 5.782 5.872l.09.177c-4.028 2.891-1.264 7.56 4.181 5.248h.09c-.208 2.655 1.466 7.237 4.624 5.338 1.883-1.132 1.028-4.869 2.759-6.049 1.506 2.102 5.465 6.417 8.985 4.091.635-.419 1.284-.885 1.511-1.692.677-2.385-1.565-4.079-2.225-5.605l-.177-.177v.009Zm4.358-146.95-.267.177c-1.708-1.47-6.493-9.564-10.14-6.94-.842.607-.708 2.655-.356 3.737.736 2.253 1.531 4.647 2.669 6.582.444.683.89 1.363 1.334 2.046l2.225 2.225c-1.008.918-2.017 1.837-3.026 2.759-1.351 1.876-3.385 7.81-.356 9.251 3.138-.008 7.619-5.326 8.451-7.74l3.112.8c2.894.914 13.497 4.749 13.7-1.157-2.054-2.607-5.412-4.689-9.873-4.804l-.09-.09v-.09c2.675-1.022 9.923-4.189 7.206-7.74-2.523-.63-4.624.894-6.582 1.691.826-1.753 2.939-8.855.09-9.872-3.737-1.335-7.204 6.813-8.094 9.162l-.003.003Zm10.319 148.018c.07-2.11.16-4.858-1.068-5.693-2.337-1.59-4.337 2.546-4.624 4.181-1.939.461-3.942-.27-4.981 1.245-1.815 2.643 1.213 3.655 3.823 3.556-.053 1.107-.255 2.504.09 3.47 1.34 3.748 5.327 3.329 5.872-.89 1.815-.135 3.248-.009 4.181-.978.587-2.787-.804-4.726-3.29-4.891h-.003Zm-18.146-158.16c.081 1.033.488 1.43 1.244 1.778 1.155-.014 1.309-.425 1.868-.978.885 1.287 1.607 4.515 4.091 3.824 1.419-.573 1.59-2.563 1.512-4.625 2.028-.452 4.009-.7 4.891-2.312-.003-.994-.464-1.48-1.335-1.601 1.245-1.436 3.273-1.644 3.38-4.27-.298-.504-.593-1.01-.89-1.512-2.001-1.43-6.179-.023-8.184.357-1.037-1.119-.981-2.67-3.203-2.67-.795.888-1.113 2.167-1.425 3.557-.177.06-.357.118-.534.177-.809-.654-1.056-1.843-2.312-2.045-2.708-.921-1.725 3.048-.977 4.09-.919.855-1.886 1.299-2.313 2.67-.977 3.127 1.703 4.574 4.181 3.557l.006.002Zm10.94 116.441c-.883-2.368-7.01-2.095-9.429-1.157h-.624c.565-3.38.59-4.391-2.225-5.515-.528-.211-1.239-.666-2.045-.357-2.45.938-2.419 4.58-4.091 6.316-2.18-.925-3.124-2.827-5.158-3.824.385-.742.77-1.483 1.158-2.225.699-2.045.033-4.807-.09-6.939 4.947 1.326 9.411 3.141 14.766 4.18 2.284.444 5.979.205 7.027-1.157.975-1.265.323-3.102-.534-4.004-1.91-2.012-6.476-4.487-9.341-5.425 1.489-1.79 7.02-3.037 6.759-6.226-.371-4.551-10.389-1.674-12.721-.711h-.09c.831-2.91 3.321-9.546.09-11.74-2.728-1.855-7.03 4.256-7.384 6.315-.118.09-.236.177-.356.267-.987-1.953-4.692-6.678-4.091-9.518l.801-2.58c2.688 1.208 5.835 5.496 9.428 2.76.593-2.288-1.947-4.763-3.646-5.339-.203-.34-.332-.598-.357-1.157 2.52-.07 7.594-1.942 6.849-4.982-.702-2.865-7.226-4.062-11.207-2.935h-1.244c-.478-6.288-6.796-8.097-7.294-.801-.385.236-.77.475-1.157.71-.978-.148-1.958-.297-2.936-.443-2.099.36-1.543 2.287-.801 3.557l-1.868.977c-.309.41-.455 1.234-.267 1.869.75 2.517 3.829 1.727 5.782.89 1.393 1.138.034 6.223 2.579 8.094-.003 5.636-.115 10.733 1.245 15.124-1.841.683-3.92.989-2.846 3.647-1.259 1.652-8.98 8.729-4.715 11.386 3.197 1.992 5.223-2.219 7.117-3.025.859-.118 1.719-.236 2.579-.357-.076 5.082-.051 9.715 4.357 10.319-.222.708-.764.933-.977 1.512-.812 2.216 2.174 3.722 3.023 4.804-2.97.087-8.831 1.435-8.541 4.447.396 4.088 6.346 2.501 8.718 1.335-.354 2.093-1.383 3.557-1.425 5.872h-.09c-2.716-2.032-5.661.637-7.56 1.868-1.349-6.459-8.563-6.897-8.361.89h-.09c-1.452-.612-4.529-2.506-6.583-1.334-2.862 1.635.155 6.251 1.959 6.939.118.149.236.298.356.444-1.899 1.043-8.925 8.103-4.891 10.586 3.276 2.018 7.274-5.135 9.429-6.138l.623-.624c.826 1.818.849 5.029 2.492 6.049 3.779 2.349 6.016-4.304 5.959-7.65l2.846.267 1.779 1.778c1.497 1.124 5.234 2.16 6.582.177 2.45-3.596-5.529-7.187-8.361-7.473 1.276-1.394 2.551-2.787 3.824-4.181l.177-.177c.649 1.644 2.633 2.099 4.358 1.158 2.138-1.166 4.975-4.161 5.782-6.583l.177-.09c1.41 1.017 7.228 8.125 9.608 4.625 1.601-2.358-4.161-7.437-5.158-8.718 2.292-.562 11.389-3.035 10.319-5.782l.006.005Zm-8.005-14.143c-.118.161-.095.051-.177.09l.177-.09Zm-40.386 44.211c.177-.357.357-.711.534-1.068.118-.09.236-.177.357-.267.149.09.297.177.444.267-.352.483-.762.798-1.335 1.068Zm35.849-107.992c-.118.09-.236.177-.357.267-3.346-5.04-4.911-.005-6.226 3.026v.177c-1.281-.399-4.056-2.829-5.604-1.958-.571.267-.669.62-.891 1.245-.978 2.753 3.45 2.983 4.447 4.537-2.211.626-4.335 2.91-2.759 5.425-.932 1.18-4.652 5.35-1.958 7.206 2.259 1.554 6.083-2.31 6.583-3.823.118-.09.236-.177.357-.267.084 2.157.868 5.085 2.579 5.605 2.806.854 4.068-3.686 4.357-5.605 2.858 1.469 4.965 3.652 8.184 4.714 2.175.716 3.827-.169 3.824-2.312-.444-.652-.891-1.304-1.334-1.958-.846-1.074-3.799-3.24-5.072-3.824-.415-.444-.831-.89-1.244-1.335 1.978-1.014 4.675-5.487.801-6.405.146-1.959 1.876-3.481 1.067-5.692-1.087-2.973-5.962-1.023-6.76.977h.006Zm-10.319-28.465c-1.149-.472-1.638-1.619-2.492-2.402l-1.425.356c-.893 1.48-.368 3.838-.089 5.605l-3.38-.623c-2.922.505-2.467 4.68-1.335 6.76-.618.92-1.582 1.831-1.778 3.112-.607 3.936 4.234 1.663 5.425.89.177.416.357.832.534 1.245.556.365 1.107.368 1.778.09.568.86 1.211 1.9 2.579 1.958 1.242-.497.995-1.008 1.512-2.225.241-.27.618-.292 1.157-.267.475-.665.495-1.2.09-1.958l.177-.177c.742 1.009 2.543 3.13 3.824 3.47.896.236 1.441-.298 2.045-.444.773-1.22.104-2.871-1.067-3.38l-.978-1.067c1.82-1.194 4.748-1.279 4.804-4.27-1.969-1.83-3.557-1.004-5.692.09-.149-1.217-.298-2.431-.444-3.648.632-3.894 1.267-6.374-2.312-7.74-2.25.925-1.562 2.914-2.936 4.625h.003Zm-8.361 17.435c-2.616-.643-4.206 2.012-4.892 3.824-2.376 1.624-5.843-2.947-8.807-2.402-.868.16-1.821 1.2-1.512 2.492l1.602 2.669c.123.733-.425 1.096-.534 1.601l.177 1.779c-.334 1.478-1.183 1.16-.444 3.026 1.306.767 2.95-.245 4.18.444h.177c-.056 2.19-2.289 4.618-.8 6.672 1.416 1.953 5.554-2.158 6.405-2.58l.534-.533c.826 2.073 5.453 7.375 7.917 3.737 1.357-2.006-1.944-6.198-2.135-8.541 1.852-.05 2.846-.894 4.271-1.335 2.227-.688 7.712-1.475 6.939-4.804-.823-3.537-9.746-1.222-11.921-.357h-.267c.256-2.362.18-4.292-.89-5.692Zm-6.406-25.62c-.621.827-2.172 2.877-.357 3.557 1.703.638 2.113-1.671 3.38-2.045.149.09.298.177.444.267.756 1.39.056 3.33 1.335 4.18 2.424 1.616 4.132-2.25 4.27-4.09h.09c1.41.966 4.29 2.79 5.515.267-.104-2.006-1.644-2.301-1.958-3.914-.031-.118-.059-.236-.09-.357 2.166-.784 4.79-.972 4.891-3.823-1.73-2.195-3.953-3.023-8.007-2.936-.382-1.596-1.402-6.004-3.914-4.358-1.373.9-1.463 2.756-2.492 4.004-.896-1.256-3.354-5.12-5.871-4.18-2.001.744-1.099 4.767.356 5.424l.624.711c-1.323.638-1.259 1.607-2.045 2.76-.385.415-.77.83-1.158 1.244-1.216 2.877 2.467 3.382 4.982 3.29h.005Zm.357 121.778c2.939.961 3.147-4.2 4.18-5.692.537-.773 1.737-1.042 2.58-1.512.196-.519.365-.907.356-1.691-.879-.638-2.975-1.006-3.646-1.868-.944-1.211-.486-3.172-2.402-3.47-1.599.837-1.144 2.321-2.136 3.737-.859.651-1.719 1.303-2.579 1.958-.365 1.683.621 2.93 1.869 3.29.769 2.301-.413 4.366 1.778 5.248Zm.624 31.225c-1.672-1.355-1.222-4.701-3.113-5.872-2.894-1.79-3.877 2.124-3.824 4.804-2.27-.042-3.074 1.551-2.492 3.557-2.101.511-4.138 1.115-4.447 3.47.713 1.359 1.899 1.935 4.003 1.601-.09 3.531 2.953 2.691 4.625 1.511 2.635 3.526 4.902 1.754 4.714-2.935 2.172.932 3.433.738 4.714-.891.357-.385.711-.77 1.068-1.158.694-2.191-3.158-4.722-5.248-4.09v.003Zm-13.699-56.131 1.601-.177c.812.101 1.762.129 2.312-.267.632-.455.795-1.309 1.158-2.045.564-.399 1.955.8 2.669.977 1.494.377 2.599-.449 3.38-1.067.536-2.138-.866-3.119-1.512-4.538l-.357-.356c2.256-1.335 5.748-.812 5.782-4.448-1.197-1.537-2.166-2.728-4.891-2.759.43-.983 1.379-2.315 1.067-3.823-.511-2.481-4.129-1.964-5.958-1.068-.433-2.107-2.487-3.801-4.181-1.691-.478-.54-.641-1.085-1.245-1.512-2.264-.492-2.511 1.542-2.402 3.737-1.132-.59-2.747-1.034-3.913-.177-.571 2.23 1.011 3.363 1.958 4.624-3.158.624-6.861 1.439-8.274 3.824-1.821 3.079 2.343 4.489 5.071 4.18v.09c-.669.877-3.014 3.026-2.045 4.715 1.809 3.846 6.622-1.518 8.007-2.136-.07 1.956.23 3.602 1.778 3.914l-.005.003Zm-2.049-92.334c-1.789-1.495-1.446-3.874-4.804-3.47-.716 1.06-.553 2.748-.09 4.004-2.273 1.02-10.288 1.79-7.74 5.959.748 1.222 2.9 2.253 4.004 3.736-1.442 1.849-1.641 5.864 2.312 5.071 1.587-.32 2.818-1.3 4.18-1.958.481.554.506 1.191 1.245 1.512 1.512.733 4.299-1.557 4.624-2.67 2.498 1.956 6.091 8.556 10.764 4.892 3.452-2.708-2.838-8.67-4.982-9.342l-.177-.267c2.863-.62 6.611-1.57 6.673-4.98-3.127-2.956-5.467-1.734-9.429-.357h-.09c.13-5.091-5.759-7.985-6.492-2.136l.002.006Zm2.403 44.12c-3.928-.073-8.227-.475-10.674 1.335-2.983 2.205.02 5.531 2.669 6.049l.09.177c-1.669 1.016-6.751 4.22-5.248 7.206 1.18 2.346 4.903.255 6.406-.267-.618 1.444-1.669 3.759-.09 4.981 2.778.565 4.975-2.298 5.338-4.447l.177-.09c1.194 1.955 2.329 8.805 6.316 6.226 2.809-1.815-.172-8.977-.978-11.297.891-.236 1.778-.475 2.669-.711.95-.503 1.899-1.009 2.846-1.512.995-.317 2.495-.1 3.203-.71.444-.383.525-1.231.534-2.046-2.032-1.902-1.301-.27-3.29-1.067l-1.602-1.512a727.57 727.57 0 0 0-2.759-1.244c.838-2.279 1.574-6.257-1.067-7.027-2.894-.843-4.456 3.54-4.538 5.959l-.002-.003Zm-19.392 89.668c2.054 1.7 4.695-.599 5.159-2.492l.267-.177c1.143 2.579 3.143 7.268 7.026 6.405 1.854-3.101-.202-7.138-.534-10.406 3.529.065 11.854-1.388 10.853-4.804-.671-2.295-6.647-2.562-9.962-2.492.031-.86.059-1.72.09-2.579 2.652-.7 4.329-3.453 4.714-6.406h.09c1.447 1.076 7.951 7.372 10.319 3.914 1.77-2.582-2.795-5.524-3.556-7.027l-.357-.357c1.32-.57 3.697-.696 4.537-1.778 3.692-4.762-5.47-7.243-9.075-7.65-.677-1.433-2.357-4.574-4.804-2.936-.652.683-1.303 1.365-1.958 2.045h-2.135c-1.352.264-2.714.874-3.647 1.602-3.13 2.441.961 6.593 3.026 7.56-.042 1.52.227 2.408 1.067 3.026l-.71 3.913c-.703.661-1.481 1.47-2.225 2.046-1.068-4.206-2.97-6.518-7.918-5.072-1.275 2.257.47 6.277.711 8.628-1.371-.261-2.36-1-3.913-.623-.329.508-.551.882-.534 1.778-1.815-.166-3.86.028-5.605.09.98-1.913 2.599-4.223 1.778-6.849-3.065-2.203-5.591 2.138-7.56 3.112l-.534.534c-.725-1.174-1.23-2.548-2.492-3.203-.86.093-1.093.408-1.601.801-.545-.89-.815-2.076-1.245-3.113-1.466-.435-2.621.16-2.669 1.692-1.393-1.431-1.287-3.653-3.203-4.625-.708.045-.848.245-1.334.444-1.7 3.082 2.334 10.735 3.203 13.342-1.607 1.029-3.524 1.104-4.805 2.402-2.051 2.079 0 4.889 2.225 5.425-.969 2.375-1.416 4.251-.533 7.117.177.118.356.236.533.357 2.422-.219 4.209-2.161 5.872-3.29 1.354 1.801 4.2 2.396 5.159-.177 2.801.5 5.585 5.335 8.717 4.09 4.383-1.739-2.216-9.945-3.29-11.473 3.15-.838 5.763-1.987 8.184-3.47.425 1.598 1.296 2.275 2.136 3.38-.871 2.315-1.366 5.723.533 7.293v.003Zm.801-96.961c1.97.418 3.712-.138 5.071-.801h.09c-.452 1.686-1.27 4.973.267 6.139 2.301 1.744 4.65-1.163 4.804-3.38l.177-.09c1.329 2.144 6.62 3.945 7.474.09.8-3.624-2.936-6.324-3.914-8.451l-.267-.267c2.481-1.674 7.319-3.725 7.473-7.56-2.952-2.726-5.725-.72-8.984.533h-.09c.07-2.727.115-7.978-2.846-7.473-2.532.433-2.886 4.85-3.647 7.027h-1.778c-1.88.528-.686 1.464-1.335 2.936-.357.385-.711.77-1.068 1.157-.753 1.568 1.405 3.212 1.959 4.27-2.037 1.86-6.097 1.981-3.38 5.873l-.006-.003Zm20.639 111.191c-1.596-2.09-3.285-2.843-7.117-2.759.545-1.964.7-5.633-2.312-4.714-.829.503-1.66 1.008-2.492 1.511-1.239-.121-1.731-.924-2.579-1.424-2.565-1.509-3.627 1.272-4.091 3.29-4.045.3-7.804 2.95-3.646 5.959-.158 3.042-1.54 5.801 3.292 5.071.29 1.66.278 4.065 1.425 4.891 2.694 1.941 4.262-1.846 4.447-3.824 1.009.503 2.017 1.009 3.023 1.512 4.709 1.208 6.808-2.124 5.248-5.692 2.096-.5 4.436-1.599 4.805-3.824l-.003.003Zm-18.77-150.954c.221.584.758.905 1.334 1.157 2.776 1.217 4.627-3.084 5.425-4.89 4.931.083 10.564-1.155 11.831-4.715 1.34-3.76-4.15-3.624-6.673-3.38l-.09-1.691c-.559-.337-5.22-1.453-6.048-.978-.714.329-.939 1.14-.891 2.225-.759.017-1.068.186-1.601.357l-.624.978c.084 1.447 1.006 2.545.357 4.09-.658 1.568-3.959 4.386-3.023 6.85l.003-.003Zm-29.177 21.973-3.914 1.601-.267.177c-1.666-.94-3.983-5.602-7.116-3.47-4.27 2.908-.261 9.854 3.026 10.94l.177.268c-1.776 1.447-5.156 7.53-2.936 10.406 1.849 2.397 5.928-1.093 6.406-2.669l.266-.177c1.076 2.172 3.068 5.04 5.692 5.605v.09c-2.77-.295-5.585 2.382-3.913 5.158 1.382 2.296 5.181 4.313 8.628 4.448l.09.177c-.874 2.11-2.967 6.107-1.425 8.717 2.166 3.661 6.372-.075 7.117-2.758 2.582 1.71 3.849 7.636 7.65 7.65v.09c-1.916.3-6.729 2.907-5.425 5.425.61 1.433 2.913 1.843 4.981 1.511-.598.818-2.085 3.06-.711 4.18 1.81 1.476 4.701-.654 5.158-2.044.149-.118.298-.236.444-.357 2.026 4.484 5.378.326 5.605-3.026 1.81 1.441 2.49 4.133 4.805 5.071 1.899.77 3.337-.47 3.379-2.225l-.71-1.335-.978-.71c-.031-.444-.059-.891-.09-1.335-.624-.444-1.245-.89-1.868-1.334l-.09-.177c2.037-.944 3.444-4.02.623-5.159-1.227-.494-3.214-.418-4.891-.356-.163-2.273-1.368-7.08-4.09-6.493-2.363.508-2.664 4.315-2.58 7.293l-3.469.978c3.354-2.191.646-8.903-.444-11.654v-.09c4.099.624 9.375 1.102 10.586-2.492-.247-2.438-3.768-3.877-6.049-4.357.967-1.22 3.737-2.172 3.203-4.715-.711-3.388-6.681-1.163-7.827.357l-.267.09h-.09c.32-1.826 2.284-7.968.177-8.985-.77-.278-3.355.295-4.004.711-1.284.826-1.18 3.175-1.868 4.625l-1.334 1.511-2.226 5.338c-2.405-.994-4.329-3-7.026-3.47 1.23-.463 2.29-.306 3.203-.977 3.152-2.324-.25-5.965-1.158-8.094 4.855-.163 9.176-2.141 11.03-5.426-.334-3.871-7.456-3.554-11.474-3.112.93-3.335.967-6.791-4.003-5.426l-.003.006Zm-8.364 4.268c-.09-.15-.177-.298-.267-.444l.267.177v.267Zm42.966 66.45c-2.872-3.344-7.24-2.995-11.654-1.245h-.09c.126-2.672.795-6.383-1.068-7.65-2.804-1.908-6.127 4.009-6.672 5.959l-.177.09c-1.312-1.964-2.739-4.583-6.049-4.538-2.158 2.248.784 6.277 1.158 8.541-4.161-.034-11.545 1.88-12.008 5.248-.526 3.816 5.065 3.262 8.541 3.203-.225.902-.967 2.602-.357 3.647l.89.978c.63 1.399.045 3.478 1.158 4.357 3.515 2.784 8.35-3.383 9.429-5.692.972.23 1.23.992 2.045 1.335 1.053.441 2.36.356 3.203.977 1.424 1.048 2.303 4.318 5.338 3.113 4.72-1.874-1.287-9.698-3.47-10.586l-.801-.891c3.768-1.671 10.46-1.584 10.586-6.849l-.002.003Zm-8.184 13.699c.118.149.236.298.356.444l-.09.356-.443-.177-.177-.266.356-.357h-.002Zm-5.249-89.488c-.415-.326-.831-.652-1.244-.978-1.697-.82-4.214.54-4.714 1.602-1.394.578-2.464-.75-3.914-.267-1.472.489-2.124 3.329-.267 3.913-.084.801-1.169 2.551-.267 3.557.778 1.506 3.683.497 4.804 0 .593.787.936 1.832 1.245 2.936.643.318 1.399.377 2.312.267.548 2.658 3.262 8.17 6.583 5.515 2.357-1.885.317-6.81-.09-9.252 2.118-.511 3.891-1.845 4.091-4.27-1.22-1.745-1.799-2.933-4.358-3.38-1.394.118-2.787.236-4.181.357Zm-16.188-11.03c.585 1.287 2.753 1.548 4.625 1.244-.458 2.754-.624 6.263 1.244 7.65 2.916 2.167 5.861-1.19 6.226-3.913h.09c1.455 1.554 4.009 5.02 7.383 3.113 2.386-1.349 1.194-5.122-.977-5.872a69.672 69.672 0 0 1-.444-.534c1.216-.424 2.804-.446 3.469-1.424 1.807-2.652-3.933-6.33-5.959-6.673l-.177-.267c3.282-1.323 7.403-3.905 7.384-8.45-.812-.812-1.245-1.925-2.402-2.403-3.119-1.286-6.209 2.745-8.361 3.47l-1.959 1.958c-.719-1.272-.55-3.422-1.601-4.357-3.113-2.776-3.787 2.467-4.624 4.09l-.891.978.267 2.046c-.149 1.157-.298 2.312-.444 3.47-.149.592-.298 1.185-.444 1.778-.697.963-3.619 1.89-2.402 4.09l-.003.006Zm14.233 145.172c.714-.908 2.043-1.45 2.492-2.579.295-.742.135-1.664-.177-2.225-1.531-2.754-6.987-.579-9.075.266-.682-1.109-.491-2.536-1.511-3.292-2.118-1.568-4.304.885-4.891 2.402-1.453-.717-4.479-2.832-6.583-1.512-1.658 1.04-1.461 4.448.444 5.071l.177.267c-1.422 1.017-7.058 5.701-4.004 8.007 3.31 2.498 6.235-1.475 8.718-2.312.149.09.298.177.444.267.489 1.253-.511 3.453.357 4.714 1.879 2.737 5.633-1.944 6.316-3.289 3.295 1.413 11.547 3.629 11.563-2.492-1.247-1.599-1.885-2.776-4.27-3.293Zm-7.116-76.233c-2.31-.736-2.83 1.217-3.914 1.958-.86.385-1.719.77-2.579 1.158-.371.548-.059 1.306.09 1.778.744.554 1.801.093 2.225.444.444.8.891 1.602 1.334 2.402 2.026 1.722 5.271.174 5.782-1.868.565-.118 1.127-.236 1.692-.357l.177-.978c-.492-.323-.871-.6-1.692-.623-.598-1.593-1.469-3.391-3.113-3.914h-.002Zm-25.62 18.501c3.706 1.503 4.619-3.914 5.515-6.049.419-.995 1.141-1.762 1.424-2.936 2.273 1.045 8.527 7.982 11.741 3.736 2.265-2.992-2.599-6.349-3.47-8.094l-1.601-1.601c2.849-1.93 8.566-2.088 8.628-6.76-.385-.444-.77-.89-1.158-1.334-1.067-.548-3.112-.04-4.09.177-3.506.778-6.586 1.758-9.786 2.579-1.677-1.31-3.537-4.212-6.492-3.29-.787 1.146-.745 2.868-.534 4.624-2.804.593-9.398 1.088-8.541 4.982.573 2.601 5.035 2.143 7.917 1.958-.719 2.998-3.332 10.476.444 12.008h.003Zm-10.32-93.489c-1.46 3.478 3.892 5.821 6.316 6.316-.887 1.542-2.47 2.29-2.936 4.27-1.106 4.706 1.858 5.667 4.892 3.647 1.492 6.996 6.44 3.45 7.56-1.335l.177-.09c2.818 2.043 5.608 4.077 9.162 5.426 2.41.916 4.492.129 4.447-2.58-.918-1.424-1.837-2.846-2.759-4.27l-3.736-4.714-.978-.978c1.613-.989 7.352-5.077 5.692-8.007-1.944-3.428-7.234-.638-9.695.357h-.09c.059-2.973-.832-8.347-4.358-6.94-2.773 1.107-2.615 4.906-3.824 7.65v.178C91.427 13.456 86.02 12.22 84.432 16l.003.003Zm13.967-1.958-.177 3.47-.534.533h-.09c-.421-1.216.095-3.3.8-4.003Zm7.116-6.049c.298.503.593 1.009.891 1.511.96 1.262 3.891 1.475 5.248.444l.623-.977-.089-2.846c.222-.936.809-1.447.8-2.76-.98-1.165-3.447-4.486-5.959-2.758-.444.624-.89 1.244-1.334 1.868-.992.739-2.748.89-2.312 3.026.283 1.396 1.334 1.65 2.135 2.492h-.003Zm-13.342 56.13c-1.913 1.428-1.475 5.01-3.203 6.583-3.588-1.427-8.563 1.16-9.696 3.47-1.171 2.385 1.17 4.175 3.38 4.18-1.062 1.563-4.869 4.681-2.846 7.384 2.641 3.526 7.642-1.686 8.274-4.09l.267-.178c2.453 3.546 7.482 4.549 8.628-.977 2.652 1.497 5.762 6.995 9.962 4.27 1.31-.848 1.919-1.77 1.869-4.003-1.748-2.192-3.065-5.428-5.959-6.406a26.43 26.43 0 0 0-.357-.444c1.006-.705 3.981-2.456 3.026-4.358-.939-1.918-5.768-.85-7.74-.533-.537-2.692-2.282-7.372-5.605-4.892v-.005Zm7.827 46.79c1.014.435 2.107-.174 2.669-.444.416.149.832.298 1.245.444h.09l.089-.09c.762-.365.7-1.318 1.335-1.778.846-.616 1.784-.705 2.492-1.425.031-.208.059-.416.09-.623l-.177-.444c-.924-.177-1.823.084-2.579.356-.287-.182-.894-1.778-1.335-2.225l-1.244.177c-.349.691-.484 1.425-.444 2.579-1.194.489-2.273 1.026-2.936 2.046.005.741.197 1.185.711 1.424l-.006.003Zm6.85 25.797c-1.734-2.239-2.566-5.605-5.515-6.583-.09-.118-.177-.236-.267-.357 1.32-.517 3.025-1.166 3.823-2.225 2.681-3.554-1.921-5.622-5.605-5.515.514-1.669 2.748-4.425 1.158-6.405-1.677-2.088-5.813 2.306-6.226 3.556l-.267.177c-.817-1.862-1.13-4.537-2.669-5.692-3.891-2.922-6.172 3.341-7.026 6.049h-.09c-2.577-3.739-3.945-2.599-6.05.444-.359 1.843 1.52 3.276 2.937 3.647.09.118.177.236.267.357-1.964.252-4.142.932-4.805 2.492-.382.896.096 1.657.178 2.492v2.402c.708 1.829 4.34 1.076 5.958.534h.09c-.073 4.371-.081 10.021 2.936 11.296 4.209 1.779 6.987-5.919 7.384-9.074h.09c2.722 2.034 4.714 4.956 8.184 6.226 3.171 1.16 5.551-.588 5.515-3.824v.003Zm-16.546-16.812-1.6-2.046c.089-.207.176-.415.266-.623.118-.09.236-.177.357-.267.593.68.528 1.812.978 2.669v.267Zm10.32 28.466c-.669-1.065-.371-2.796-1.512-3.38-.764-.391-1.624-.062-2.135.267-1.06.685-1.958 1.865-1.601 3.913.09.503.177 1.009.266 1.512-.325.416-.651.831-.977 1.244-.239.545.034 1.102.177 1.512.455.317.739.472 1.601.444.624 1.655 1.177 3.571 3.113 3.913 2.79.498 2.697-4.048 1.958-5.871.548-.652.998-.846.978-2.136l-1.868-1.424v.006Zm-15.034 7.827c1.596-1.919 4.92-2.321 5.605-5.158.23-.959-.228-1.689-.534-2.136-2.427-3.548-10.097-.025-12.721 1.068.087-3.203-.07-7.378-2.492-8.094-2.84-.843-3.192 3.194-3.113 5.692l-.09.09c-2.885-1.354-6.785-3.743-10.052-4.271-.031-.503-.06-1.008-.09-1.511l-2.135-2.312c-2.186.011-3.782.545-5.425 1.157-2.846-4.228-6.162-3.054-7.294 1.778-2.45-1.216-7.453-4.028-10.406-1.778-.7 2.908 2.604 4.686 3.556 6.673l.267.267c-1.904 1.368-7.301 3.888-6.672 7.383.708 3.933 6.445 2.225 9.162 1.244h.09c.025 2.773.32 6.17 1.958 7.384 2.545 1.885 5.897-2.425 6.226-4.358l.177-.09c1.014 1.166 3.56 4.698 6.138 2.936 1.04-.711.278-1.61.711-2.759.292-.772 1.203-1.199 1.425-2.312.52-2.621-3.695-6.035-5.339-6.672-.36-.807.023-2.411.09-3.47 1.425-.416 2.846-.832 4.27-1.245l1.335 2.313c1.765 2.32 5.052 4.753 8.541 5.248v.09c-1.43 1.829-6.434 4.944-5.692 8.45.18.855.728 1.155 1.425 1.512 2.624 1.346 4.75-.256 6.582-1.424.91 3.781 1.486 8.849 5.071 9.962 2.585.804 2.683-1.747 3.38-3.203l1.158-1.157c.772-1.124.823-3.077.71-4.805 4.299.666 8.097 1.81 12.188 2.669 2.815.59 5.04-.542 5.071-3.112l-.89-1.692c-2.355-2.017-8.376-3.896-12.188-4.357h-.003Zm12.455 12.898c-1.99-2.318-3.355-1.548-5.872-.267-.093-.876-.203-2.062-.624-2.669-.66-.955-3.416-1.579-4.357-.444-.885 1.065-1.054 3.082-.978 5.071-1.208.787-3.565 1.307-4.09 2.759-1.167 3.209 3.77 3.9 5.871 3.026.992.919.537 2.835 1.778 3.557 1.978-.022 3.13-2.194 3.203-4.091 1.304.576 2.195 1.284 4.09 1.068.288-.458.462-.792.445-1.601-.509-.7-1.349-1.652-2.312-1.869l-.177-.267c1.536-.786 3.02-1.955 3.025-4.27l-.002-.003ZM65.934 50.072l-.177 2.225c-.135.688-.312 1.708.09 2.312 1.189 1.798 5.406.59 6.85-.09-.79 1.484-3.299 2.933-2.76 5.425.602 2.779 4.72 1.97 5.426-.177.149-.118.298-.236.444-.356.997 2.135 2.483 4.439 4.447 5.605 2.486 1.474 3.894-1.054 3.824-3.47 1.978.95 6.313 1.89 7.827-.177 1.866-2.548-1.913-6.487-3.647-7.027-.09-.118-.177-.236-.267-.356 3.043-.75 6.271-1.902 6.226-5.782a639.55 639.55 0 0 0-1.157-1.779c-1.717-1.329-5.125-2.239-7.917-1.601.219-1.728 2.081-3.616.8-5.515-2.104-3.119-7.537 1.2-8.184 3.113-.118.09-.236.177-.356.267-.813-1.366-1.748-3.574-4.004-2.67-.764.307-1.326.745-1.602 1.512-.03 1.483-.058 2.964-.09 4.447-2.317.512-5.096 1.973-5.781 4.091l.008.003ZM79.276 8.087c.458.798.436 2.304.978 3.113 2.242 3.357 4.388-1.722 5.338-2.312.829-.15 1.66-.298 2.492-.444.593-.88.385-2.428.978-3.47.778-1.363 2.455-.916 2.492-3.203C88.255-.392 86.848 3.39 84.26 3.64c-.623-.236-1.244-.474-1.868-.71-1.86-.655-6.153-1.658-8.007-.267-3.07 2.304 2.947 5.119 4.891 5.425Zm2.403 99.45c.924.7 4.245 3.554 5.958 2.579 1.046-.494 1.4-2.509.711-3.646-1.393-2.018-2.787-4.032-4.18-6.049l-1.869-1.779c2.667-3.444 4.47-9.043-3.47-7.74.023-2.849-.792-6.372-2.758-7.206l-1.779.09-1.334-.978-.978.177c-1.298 1.882-.778 5.408-.71 8.274-3.532.171-11.848 1.25-12.542 3.824-.214.795.076 1.758.534 2.135.952.778 2.497.733 3.736 1.245 1.812.75 3.124 1.84 5.872 1.778-.523 2.113-3.144 13.05 2.045 11.564 1.908-.545 1.214-3.56 3.29-4.181 2.523-3.36 3.17.495 7.474-.09v.003Zm-13.346-73.92c.885 2.39 5.732 2.967 8.095 1.511 1.23 1.74 3.902 1.287 4.624-.623 3.706.632 4.928-2.26 3.113-4.805.528-1.264 1.025-2.236.978-4.09-1.107-2.49-2.515-4.968-5.605-2.492-.818-.14-1.082-.633-1.779-.801-2.006-.486-2.919 1.604-3.025 3.113-1.59.764-5.827 1.567-6.14 3.557-.16.491.195.969.358 1.424.27.579-1.138 1.812-.624 3.203l.005.003Zm10.5 36.293c-.512-.736-.627-1.779-1.335-2.313-2.63-1.986-8.083-1.32-11.297-.443.919-2.116 4.301-6.04 1.779-8.718-.43-.455-1.051-.939-2.136-.711-1.8.376-2.818 1.72-4.27 2.402l-.357.357c-.927-1.602-.916-4.54-3.203-4.804-1.511.651-1.242 2.056-2.135 3.29-.652.384-1.304.77-1.958 1.157-.866.71-1.39 3.178-1.602 4.447-3.278-.376-7.063-.272-8.54 1.692-2.119 2.818 1.002 5.402 3.823 5.605v.09c-1.149 1.472-5.09 4.287-4.537 7.026.784 3.88 5.4 1.366 7.56.444h.09c-.067 2.967.582 5.737 2.402 6.85 3.403 2.076 5.737-2.2 5.692-5.249 1.624 1.256 5.153 7.58 8.451 5.96 4.549-2.234-.168-8.058-.71-10.94 5.677.067 12.257-.594 12.274-6.14l.008-.002ZM53.39 12.357c-3.358-.067-9.4.604-8.895 4.004.584 3.944 5.245 3.835 9.519 3.557-.827 1.882-1.953 4.565.266 5.872 3.054 1.795 6.813-2.082 7.65-3.914 1.504-.245 2.866.323 4.271.534 1.826.275 5.217-.512 6.406-1.245 1.865-1.149.823-4.121-.89-4.714-.09-.118-.178-.236-.268-.357 2.481-.601 5.436-1.04 5.425-4.18-2.32-2.164-4.972-2.76-9.695-2.67.986-1.466 5.012-5.293 1.424-6.76C64.72.898 60.02 6.498 58.197 8c-.708-.97-4.844-5.409-6.493-3.38-1.452 1.787 1.07 6.192 1.691 7.65v.09l-.005-.003Zm20.638 162.518c-1.916-4.214-6.523-.969-5.07 2.669.53 1.332 3.435 3.647 4.803 1.601.765-1.14-.059-2.168 1.425-2.669.233-.376.36-.578.357-1.244-.425-.261-.742-.382-1.512-.357h-.003Zm.267-55.774c-.913-1.107-1.393-2.068-3.29-2.225v-.09c.225-.534.371-.978.357-1.778-.472-.618-.795-1.444-1.244-2.136-1.11.234-1.209.944-1.959 1.425-.652.236-1.303.475-1.958.711-1.214-2.579-.374-6.235-2.846-7.474-3.166-1.584-4.33 4.549-4.714 6.673h-.09c-1.057-.835-2.461-3.759-4.715-3.113-2.736.784-.365 5.715.267 7.027-.904.398-2.365.761-2.936 1.511-1.786 2.357 1.408 3.894 3.557 3.914l-.8 1.691c.118.534.236 1.068.356 1.601l-.89 1.692a595.61 595.61 0 0 1-.357 1.958c-.385.882-1.132 1.208-1.245 2.492.273.475.39.832.801 1.157 3.085.579 4.641-2.705 6.316-4.003.632 3.116 4.42 4.79 5.425.978l.177-.09c.924 1.295 5.81 5.841 7.74 3.026 1.691-2.47-1.961-5.021-2.759-6.406-.292-.509.068-.916-.09-1.512-.236-.444-.475-.89-.71-1.334 2.444-1.264 5.624-1.936 5.604-5.692l.003-.003Zm-13.612 47.5-.623-2.225c-.978-1.66-4.352-.753-5.159.357-2.399-.396-5.824-1.191-7.65.267-2.329 1.862 1.689 6.228 3.023 6.672-.205 6.92 7.215 6.072 8.094 1.692l3.293.089c3.32-.57 7.094-1.101 7.116-4.981-1.978-1.843-4.312-2.177-8.094-1.868v-.003ZM43.427 37.621c-2.096.912-4.812 2.95-5.605 5.157-.334.936-.081 2.06.267 2.76 1.408 2.812 5.243 1.553 7.474.443-.082 4.518 1.286 11.584 6.315 10.496 2.877-.62 2.79-4.632 2.67-8.006 2.165.952 6.663 2.508 9.25.8 2.476-1.635.442-5.5-1.6-6.139a74.628 74.628 0 0 1-.444-.533c2.96-.234 5.74-1.74 5.782-4.892-1.256-1.685-1.824-2.818-4.892-2.759v-.09c1.02-1.326 5.931-5.467 3.026-7.65-3.835-2.877-11.19 2.992-13.522 4.448-.846-1.192-3.029-5.125-5.515-3.293-1.863 1.374-.666 5.706-.267 7.65-.81.908-1.708 1.068-2.936 1.602l-.003.005Zm16.368 65.022c-.857-1.129-1.275-2.444-2.402-3.29-.89-.444-1.778-.89-2.669-1.334-.71-.883 2.4-3.543.267-4.625-.885-.388-1.818.21-2.312.534h-.09c.062-2.565-.615-6.816-3.47-6.316-2.329.408-3.57 3.467-4.09 5.692-.691-.55-.922-1.28-2.136-1.334-.418.174-.71.306-.977.624-.273 1.401.334 2.368.8 3.29-2.19.449-10.324-.689-7.473 3.556.683.593 1.366 1.186 2.046 1.779-.276.623-.956 1.211-.801 2.135.118.444.236.89.357 1.334-.52 2.124-3.723 3.198-1.425 6.226 2.076.531 4.178-.919 5.338-1.958l.267-.09c.568 1.607.354 4.133 1.602 5.071 3.315 2.492 6.504-2.719 7.116-5.158 4.914.067 10.013-1.354 10.052-6.139v.003Zm-17.345-2.399-.267-.267c.118-.031.236-.06.356-.09l-.09.357Zm.267-92.78c.328.494 1.19.378 1.69.71l1.335 1.245c2.088.795 2.99-1.26 2.936-3.026-.823-1.04-.41-1.978-.356-3.557-.032-.06-.06-.118-.09-.177-.618-.185-1.683.087-2.226-.09-.918-.298-2.489-2.13-3.823-.978-1.666.849-.3 2.717.177 3.557.118.77.236 1.543.357 2.312v.003Zm5.248 114.84c-.461-.452-.607-.84-1.335-1.068.101-3.669-3.189-2.436-4.891-1.334h-.09c.073-2.829.503-5.928-1.425-7.027-2.851.096-3.618 3.748-3.913 6.406h-.09c-1.49-1.163-2.866-3.717-5.425-2.225-.761.444-1.315.955-1.512 1.958-.503 2.551 1.92 3.602 2.136 5.692-1.24 1.599-6.33 7.347-4.538 10.319.497.823 1.259.759 2.402.978 3.448.663 5.934-2.057 6.94-4.358l.8-.71 1.779 1.334c1.871 1.245 4.2 2.925 6.672 3.38 1.984.365 2.799-1.975 1.959-3.38-.335-.556-.944-.747-1.425-1.157.632-1.829.22-4.054-1.334-4.538-.09-.118-.177-.236-.267-.357 1.638-.761 3.526-1.548 3.557-3.913Zm-2.76-37.807c-1.044-.978-1.977-2.24-3.646-2.58-.273-.584-.076-1.306-.267-2.135-.334-1.455-1.278-3.689-2.579-4.27-1.717.04-2.686 1.7-3.023 3.113l-1.157-.801c-1.248-.006-1.464.61-1.779 1.511-.876-.455-1.77-.783-2.936-.533-.177.267-.357.533-.534.8.113 1.76 1.262 1.633 1.959 2.67.236.623.474 1.244.71 1.868-.792.972-4.253 3.304-3.113 5.338.189.401.408.522.801.71 1.363-.08 2.66-.966 3.113-1.958l1.158-1.067c.325.624.651 1.244.977 1.868.385.236.77.475 1.158.71.69 1.13.168 2.268 1.511 2.76 2.203.8 3.242-2.16 2.58-4.004 1.637-1.798 4.978-.497 5.07-4.003l-.002.003ZM13.54 20.895c-1.84 2.445-.37 5.661 2.225 6.316-.865 1.868-4.003 5.243-3.203 8.007 1.425 4.917 6.729.444 8.451-.89.25 3.295 1.455 10.12 5.605 9.074 2.635-.666 2.784-4.99 2.67-8.184 2.061.525 11.232 4.141 9.785-1.958-.402-1.697-2.372-2.694-3.113-4.18l-.357-.357c2.722-1.636 7.456-1.891 7.473-6.226-1.43-1.354-2.425-1.852-5.425-1.779 1.245-1.907 3.447-3.155 4.003-5.692.57-2.607-2.03-4.408-4.537-3.913-2.68.528-5.911 2.048-7.56 3.736l-.267.09c-1.065-2.053-2.711-7.9-6.673-5.872-2.43 1.245-1.885 6.178-1.69 9.519-2.74.334-6.05.54-7.384 2.312l-.003-.003ZM9.98 52.297c-1.809 2.262 3.34 5.723 4.982 6.049.09.118.177.236.267.357-3.223 1.983-5.33 7.81 1.778 6.94-.124 2.564-.247 5.396.89 6.939 2.164 2.93 5.572-.312 6.14-2.67 1.632 1.327 2.033 5.145 5.247 4.27.82-.221 1.363-.364 1.692-1.067.868.093 1.744 1.16 3.113.89 2.534-.5 2.683-4.618 1.778-7.026 1.992-.561 4.124.138 5.158-1.334 1.562-2.222-.328-5.804-2.312-6.226l-.09-.177c3.686-4.405.284-6.953-5.425-6.76.014-3.326-.368-5.428-1.778-7.206-1.945-.489-3.257.916-3.824 2.312-.582.292-.919-.286-1.869 0-1.157.349-1.559 1.981-1.511 3.557-1.998-1.584-2.97-5.217-5.782-5.872-4.11-.955-2.02 4.762-1.424 6.226v.09c-2.178-.079-5.895-.705-7.027.71l-.003-.002ZM30.53 166.514v-.09c1.332-1.697 3.607-2.731 4.18-5.158 1.127-4.779-4.79-3.313-6.76-2.312-.044-1.964-1.859-5.827-4.357-4.181-1.48.975-1.559 3.332-2.312 5.071v.177c-1.273-.834-2.455-2.211-4.003-2.669-2.203-.649-5.552 1.18-4.892 3.47.425 1.478 1.964 2.172 2.67 3.47-1.51 1.857-3.76 2.576-4.358 5.425-.919 4.383 5.49 3.77 8.54 3.29-.05 3.045.762 4.711 2.76 5.692 2.351-.138 2.75-3.369 3.292-5.248l.267-.177c3.063 2.486 16.101 6.799 16.011-1.335-2.47-3.163-5.812-5.023-11.03-5.425h-.008ZM27.416 9.242c.149.606.691 1.017 1.157 1.334 2.172 1.475 3.066-.924 4.358-1.601 1.88-.694 3.846 1.112 5.872.533.545-.767.846-1.525.8-2.935-.415-.475-.831-.95-1.244-1.425l-1.958-.978C37.957.2 34.035.248 32.487 2.48c-1.598-.327-4.152-1.667-5.338-.09-1.214 1.617.4 2.94.71 4.18.273 1.084-.74 1.458-.443 2.669v.003Zm5.071 132.186c-.183-1.065-1.773-2.846-3.113-2.045-1.938.93-.407 2.686-.09 4.003-.118.77-.236 1.543-.357 2.313.86.682 1.72 1.365 2.58 2.045 1.351-.034 2.042-.666 2.492-1.602-.93-2.671.23-2.022.356-4.18-.474-.419-.899-.837-1.868-.534Zm-13.966-11.831c1.026-.073 1.228-1 2.046-1.244.876-.262 2.078.053 2.758-.357 1.56-.938 4.001-6.392 3.38-9.519-.373-1.888-1.256-3.259-2.045-4.714 3.346.081 5.287-.747 6.226-3.026 1.188-2.88-.526-6.088-2.936-6.672l-.09-.177c1.767-1.296 3.54-3.962 3.47-7.027-2.152-3.973-7.372.787-9.429 2.225-.478-3.543-1.118-11.412-4.357-11.83-2.366 1.202-2.76 5.357-2.67 8.984-2.72-1.758-4.905-4.113-7.917-5.605-1.003-.497-2.975-.997-4.003-.177-1.132.905-.795 4.19-.177 5.425.416.624.831 1.245 1.244 1.869.118.86.236 1.72.357 2.579 1.017 2.694 3.422 5.284 5.872 6.582-1.073 2.507-5.976 8.168-4.18 11.741 2.194 4.366 7.389-.803 9.341-2.225-.04 3.408.06 13.385 3.113 13.165l-.003.003ZM1.62 141.338c.031.77.06 1.543.09 2.312.031 4.529 2.397 5.027 5.248 2.759.618 2.593 1.07 6.707 3.113 7.917.8.475 1.672.059 2.402-.177 3.125-1.019 4.358-3.601 4.448-7.473l.177-.09c1.663 2.178 9.723 5.557 9.518-.534-2.312-2.345-3.941-5.765-7.74-6.582-.09-.118-.177-.236-.267-.357 1.416-1.028 5.324-3.818 3.47-6.493-1.722-2.483-6.046.073-7.65 1.068.062-2.326-.29-5.473-1.602-6.493-2.722-2.118-5.304 1.753-5.605 4.004-1.7-.576-5.855-2.262-6.76.357-.699 2.02 2.229 5.534 2.937 6.939-.593.82-1.506 1.764-1.779 2.846v-.003ZM1.53 18.139c.397.882 1.32 1.045 2.67.978l.71 2.135c.624.893 3.877 1.49 4.804.444 1.107-1.247.537-3.635.978-5.605 3.33-.79 7.49.472 7.56-3.737-1.174-1.579-1.758-2.638-4.624-2.579.79-1.792 2.545-4.07 1.958-6.492l-.89-.624c-1.804-.725-3.299 1.354-4.358 1.868L8.826 6.04C7.713 5.06 5.168.675 2.866 1.59l-.89.624c-.815 3.683.514 7.948.978 11.297-.703.902-2.38 3.026-1.425 4.624v.003Zm2.492 67.782c.568.23 1.355.368 1.959 0 .564-.503 1.126-1.009 1.69-1.512.914 1.357 4.291 3.172 3.648-.443 1.8.154 3.652 1.902 4.714-.267-.02-1.79-1.183-2.453-2.402-3.026v-.444c2.261-.166 4.158-1.14 4.18-3.557-1.303-1.671-2.135-1.871-5.07-1.778 1.131-4.664-1.164-9.286-5.072-5.338-1.792-.25-2.972-3.344-5.425-1.779-2.545 1.621.146 4.712.09 6.406-.048 1.421-2.186 2.958.267 4.18.491 3.088-2.192 6.086 1.424 7.56l-.003-.002Zm2.58-41.007c2.45 1.033 5.74 1.236 5.605-2.313-.91-1.18-1.093-3.07-1.692-4.537-.385-.742-.77-1.483-1.157-2.225-.655-1.16 3.439-5.504.8-6.94-2.087-.887-3.91 2.04-4.27 3.38-.697-.581-.84-1.595-1.601-2.135-.627.017-.815.13-1.245.267-.377.663-.031.992-.267 1.958-.267.562-.534 1.127-.8 1.692-.442 2.048 1.134 3.506 1.424 5.158-1.495 2.076-3.93 4.652-1.602 7.65 2.425.624 3.51-.941 4.805-1.958v.003Zm4.18 118.04c-.421-.396-.61-.772-1.245-.977-.233-1.329-.112-2.102-.8-3.026.444-.683.89-1.366 1.334-2.045v-.444l-.177-.177c-1.02.126-1.21.699-1.778 1.244-.424-.438-.548-.972-1.068-1.334-.854.062-1.177.351-1.691.711-.514-1.032-1.475-2.251-2.936-1.779-1.725.694-1.601 3.484-.89 5.158-2.068.486-2.068 3.532.176 3.824-.52 1.183-.918 2.804-.09 3.914.835.196 1.487.059 2.313-.09l.623-.624c1.357 2.728 4.37 1.784 4.18-1.868 1.293-.273 2.072-.888 2.046-2.492l.003.005ZM3.841 61.726c.548.474.81.977 1.512 1.334 3.967-.16 1.486-3.419 1.779-5.248.278-1.736 2.02-2.447 2.312-4.357-.09-.15-.177-.298-.267-.444-.177-.06-.357-.118-.534-.177-.874.376-1.278.904-1.958 1.424-1.085-.419-3.863-1.894-4.804-.444-.57.882.486 2.051.177 3.113L.723 59.062c-.753 2.121 1.343 3.285 3.113 2.67l.006-.006Z"/></svg>
