<svg xmlns="http://www.w3.org/2000/svg" fill="none" viewBox="0 0 240 181"><path fill="#D6D6D6" d="M192.227 38.264c8.18 1.353 15.49-4.159 23.136-6.167 22.305-7.147 24.565 8.113 23.639-22.522-.022-2.126-.032-4.674-1.56-6.245-1.455-1.484-3.981-1.575-6.046-1.589-8.371.201-16.846-.448-25.18.328-6.247.945-9.119 7.24-12.701 11.71-2.8 3.81-6 7.681-7.353 12.336-1.632 5.316.169 10.916 6.059 12.149h.006Zm46.055 2.115c-14.363-4.923-48.732 4.097-61.589 9.815-3.635 1.958 4.685 1.031 5.812 1.115 7.751-.269 15.306 1.656 22.785 3.557 9.053 2.373 18.149 4.88 27.494 5.839 7.469.98 7.243-3.415 7.19-9.579-.172-3.256.714-8.48-1.692-10.75v.003Zm-.797 29.306c-1.525-1.514-3.869-2-6.006-2.3-5.256-.613-10.475-1.464-15.211-2.707-39.465-14.07-45.114-8.3-81.357 7.96-14.47 6.693-30.775 8.578-46.499 6.666-4.478.194-16.53-4.292-18.597.543-1.852 9.936 26.028 15.53 33.401 18.033 3.127 1.042 6.148 2.424 9.211 3.651 12.524 4.91 26.229 5.786 39.551 6.357 14.14 1.243 20.057-.437 32.97-5.694 9.437-2.867 18.917-5.466 27.502-10.325 6.725-4.653 25.266-3.112 26.573-11.287.618-3.106.868-8.625-1.538-10.9v.003Zm-170.26 62.017c26.409-3.515 52.22 6.413 76.586 15.324 10.591 4.36 22.264 7.635 33.789 5.815 12.339-2.714 24.283-8.588 33.908-16.787 6.129-5.574 9.662-13.499 16.213-18.619 3.463-2.948 8.153-4.679 10.035-9.002.969-2.123 1.372-5.345-.558-6.94-3.592-1.881-9.112 1.958-12.93 3.023-23.762 10.111-50.139 15.005-75.81 11.33-24.664 1.307-48.429-6.14-69.695-18.35-4.217-2.196-8.282-4.663-12.548-6.755-15.123-7.909-34.313-1.804-44.383 11.335-7.788 9.23-13.187 20.755-18.817 31.47-3.845 9.372-1.584 19.931-2.159 29.8.078 1.989-.23 7.238 2.948 5.388 1.407-.784 3.345-2.829 5.16-4.639 14.919-17.101 35.076-30.672 58.263-32.396l-.002.003Zm161.768-5.641c-4.872 5.351-9.469 12.497 1.987 6.446 4.143-1.812 8.188-4.505 8.559-9.27.097-1.149-.215-2.553-1.138-3.125-3.252-1.232-7.193 3.85-9.405 5.949h-.003Zm-37.277 34.004c-2.853 4.162 9.166 3.644 12.683 4.376 4.615.242 30.079-2.703 33.749-5.557 2.709-2.996 1.611-8.602 1.729-12.489-.102-9.021-12.451-6.194-22.385-1.093-9.933 5.101-22.919 10.605-25.773 14.766l-.003-.003ZM16.5 172.061c-2.937 4.668-2.961 8.172 3.093 8.164 5.557.032 11.15.123 16.71-.078 12.298-1.071 24.105-5.638 36.385-6.935 11.437-1.549 22.989-1.339 34.375.457 10.443.655 19.955 4.658 30.119 6.362 33.242-.539 69.102 2.291 101.227-1.03-50.067-9.598-101.254-16.001-149.591-33.457-26.224-8.392-58.207 2.379-72.318 26.517ZM4.295 96.497c12.452-12.051 27.658-21.912 44.872-26.154 35.943-8.153 70.173 14.076 99.871-17.628 13.284-9.273 22.243-22.986 29.889-37.03 1.361-2.596 2.722-5.203 3.976-7.852.808-1.662 1.761-4.307.837-5.622-1.318-1.799-4.234-1.624-6.368-1.675-7.058.507-14.75-1.332-21.41 1.447-2.21 1.162-3.821 3.036-5.437 5.24-10.905 16.012-28.648 27.271-47.572 31.127-8.538 1.726-17.19 1.028-25.865 1.194-20.89-.83-41.323 5.831-56.902 19.757C13 65.62 3.224 71.08.561 80.85-.266 84.596.086 88.878.02 92.84c.043 3.527.233 7.281 4.274 3.656h.002ZM64.74 32.93c7.213 2.333 16.35.526 23.692-.872 10.567-1.716 20.017-6.736 29.126-12.082 5.203-3.237 18.895-9.46 17.883-16.54-.435-.725-1.388-1.146-2.706-1.35-17.354-.43-34.826-.15-52.193-.108C74.186 1.854 71.834 8 68.486 12.23c-2.276 2.846-5.288 5.26-7.35 8.159-3.46 4.781-2.347 10.58 3.603 12.54ZM.352 55.703c.08 1.332-.266 6.041 1.661 5.437 2.038-1.002 4.038-4.07 5.864-5.743 6.64-6.889 14.537-12.204 22.586-17.257 5.721-3.936 11.303-8.108 16.616-12.575C51.173 22.008 68.978.662 55.25.922c-16.626.105-33.339-.354-49.943.18-1.364.22-2.481.685-3.27 1.487-.8.803-1.257 1.93-1.48 3.316C-.008 22.462.526 39.123.35 55.701l.003.002Z"/></svg>
