<svg width="1901" height="180" viewBox="0 0 1901 180" fill="none" xmlns="http://www.w3.org/2000/svg">
<path fill-rule="evenodd" clip-rule="evenodd" d="M1900 0H0V90L0.0718033 148.003C2.71276 148.101 4.80354 148.209 5.34373 148.279C6.05399 148.371 10.3155 148.512 14.8171 148.593C19.3188 148.674 25.511 148.798 28.5921 148.874C35.6647 149.042 36.0148 149.042 50.7801 149.009C57.5326 148.993 63.4446 149.063 63.9047 149.166C64.3649 149.269 64.7451 149.209 64.7451 149.026C64.7451 148.842 65.3254 148.696 66.0356 148.696C66.7459 148.696 67.3261 148.82 67.3261 148.966C67.3261 149.285 84.6525 149.209 86.123 148.885C86.6732 148.761 87.1334 148.788 87.1334 148.95C87.1334 149.112 89.0739 149.236 91.4347 149.236C93.7956 149.236 95.7363 149.107 95.7363 148.944C95.7363 148.782 96.2965 148.852 96.9768 149.101C97.667 149.35 99.1476 149.485 100.288 149.41C101.488 149.328 102.929 149.474 103.719 149.761C105.22 150.302 107.351 150.442 106.5 149.945C105.85 149.566 109.651 149.004 112.823 149.009C114.083 149.009 118.014 148.966 121.566 148.912C125.117 148.858 128.798 148.955 129.749 149.123C130.699 149.296 132.69 149.404 134.19 149.372C135.811 149.334 137.502 149.523 138.382 149.842C139.782 150.345 139.832 150.323 139.272 149.41L138.682 148.441L144.264 148.225C147.335 148.106 150.176 148.085 150.576 148.171C150.976 148.263 153.237 148.204 155.598 148.041C157.959 147.879 163.571 147.679 168.073 147.592C172.574 147.506 177.806 147.392 179.697 147.338C181.587 147.284 187.4 147.144 192.612 147.03C214.129 146.549 216.96 146.473 222.312 146.235C225.393 146.095 228.034 146.105 228.194 146.251C228.535 146.576 234.677 146.614 235.557 146.295C236.677 145.889 243.84 145.354 243.84 145.673C243.84 145.851 244.99 145.884 246.641 145.759C248.182 145.64 251.373 145.467 253.743 145.375C256.114 145.283 258.195 145.159 258.375 145.094C259.226 144.802 261.837 145.667 262.647 146.506L263.557 147.447L258.225 147.473C255.294 147.49 252.113 147.533 251.173 147.582C245.351 147.857 234.397 148.193 232.026 148.171C230.495 148.155 229.425 148.252 229.645 148.382C229.865 148.512 229.285 148.696 228.334 148.782C227.394 148.869 226.834 148.815 227.104 148.663C227.854 148.225 224.503 148.333 221.832 148.831C220.512 149.08 217.19 149.28 214.449 149.274C211.708 149.274 208.777 149.339 207.927 149.426C207.077 149.512 204.536 149.669 202.285 149.772C200.024 149.875 197.123 150.112 195.823 150.302C194.532 150.491 192.301 150.675 190.881 150.707C189.46 150.74 187.079 150.788 185.599 150.816C183.448 150.859 182.778 151.037 182.328 151.692C181.758 152.514 181.748 152.514 175.305 152.313C171.124 152.184 169.033 152.227 169.373 152.427C169.503 152.503 169.603 152.562 169.573 152.611C169.454 152.821 167.007 152.849 154.362 152.993L154.168 152.995H154.118C150.896 153.033 150.156 153.141 150.546 153.509C150.816 153.763 151.387 153.898 151.797 153.801C152.217 153.709 152.327 153.849 152.037 154.12C151.637 154.498 151.246 154.531 150.326 154.255C149.676 154.06 149.136 153.692 149.136 153.433C149.136 153.141 148.635 153.038 147.775 153.157C147.025 153.26 144.924 153.346 143.104 153.346C141.283 153.346 139.202 153.563 138.442 153.833C137.211 154.276 137.091 154.276 137.091 153.833C137.091 153.563 136.511 153.346 135.801 153.346C135.091 153.346 134.51 153.503 134.51 153.698C134.51 153.947 134.19 153.952 133.41 153.719C132.81 153.541 131.259 153.433 129.969 153.481C128.678 153.536 127.628 153.487 127.628 153.384C127.628 153.281 125.887 153.244 123.756 153.303C121.626 153.363 119.885 153.503 119.885 153.617C119.885 153.73 115.233 153.806 109.551 153.784C100.608 153.757 99.2176 153.817 99.2076 154.249C99.2076 154.623 99.0175 154.65 98.5074 154.358C97.9972 154.066 95.6664 154.006 89.5341 154.125C84.9725 154.212 81.0411 154.163 80.791 154.017C80.3208 153.741 72.2378 153.882 69.957 154.201C69.2467 154.298 68.3364 154.358 67.9362 154.325C67.5361 154.293 58.4328 154.201 47.6989 154.12C22.6698 153.93 8.70491 153.784 0.301867 153.611V168.109C0.792045 168.142 1.27214 168.18 1.7223 168.218C3.79305 168.396 5.38354 168.412 5.38354 168.261C5.38354 168.109 5.79385 167.98 6.29403 167.98C6.79421 167.98 6.96415 168.12 6.67405 168.293C6.38394 168.466 7.03414 168.623 8.13454 168.65C10.9255 168.715 11.5158 168.769 14.4269 169.202C15.8474 169.413 18.0781 169.526 19.3786 169.461C20.6791 169.391 21.7496 169.451 21.7496 169.597C21.7496 169.743 22.68 169.851 23.8204 169.851C24.9608 169.851 28.3521 170.132 31.3532 170.467C34.3542 170.808 37.6853 171.089 38.7457 171.089C39.8061 171.089 40.6864 171.246 40.6864 171.435C40.6864 171.771 48.1092 171.624 49.0896 171.268C49.3296 171.181 50.1498 171.235 50.9201 171.381C51.6903 171.533 59.1032 171.754 67.3762 171.873C80.9711 172.073 86.173 172.181 97.0669 172.484C98.9576 172.538 101.198 172.679 102.049 172.803C102.889 172.928 104.66 172.949 105.97 172.852C107.28 172.755 110.052 172.814 112.112 172.982C114.813 173.204 116.034 173.187 116.474 172.928C116.894 172.679 117.254 172.674 117.654 172.901C117.965 173.085 118.825 173.149 119.575 173.047C120.315 172.944 121.306 173.058 121.776 173.295C122.406 173.62 122.516 173.555 122.196 173.03C121.966 172.647 122.126 172.252 122.556 172.154C122.986 172.057 123.336 172.263 123.336 172.603C123.336 173.393 124.787 173.728 126.277 173.285C127.118 173.03 127.678 173.058 128.428 173.382C129.599 173.89 133.07 173.679 132.25 173.149C131.929 172.944 132.18 172.955 132.86 173.187C134.19 173.636 135.731 173.712 135.021 173.295C134.4 172.933 136.981 172.576 138.212 172.847C138.802 172.976 138.522 173.144 137.491 173.29C136.281 173.463 136.731 173.533 139.192 173.55C142.503 173.571 142.533 173.56 140.993 172.949C139.822 172.484 139.742 172.333 140.643 172.36C142.513 172.409 146.295 172.884 145.084 172.922C144.494 172.939 144.004 173.09 144.004 173.252C144.004 173.414 144.584 173.474 145.294 173.377C146.015 173.279 146.585 173.366 146.585 173.582C146.585 173.874 146.905 173.869 147.945 173.56C148.835 173.295 149.506 173.263 149.886 173.474C150.766 173.955 154.338 174.209 154.358 173.788C154.358 173.56 154.598 173.539 155.008 173.739C155.358 173.912 156.608 174.042 157.789 174.025C158.969 174.015 160.43 174.134 161.02 174.296C162.28 174.642 164.681 174.047 164.681 173.387C164.681 172.782 165.552 172.852 167.913 173.658C169.433 174.177 171.064 174.361 174.185 174.377C178.256 174.399 178.396 174.377 177.996 173.604C177.596 172.825 177.606 172.825 178.526 173.658C179.397 174.453 179.717 174.496 183.048 174.312C185.019 174.199 186.929 173.955 187.279 173.766C187.72 173.528 188.2 173.571 188.8 173.89C189.56 174.296 189.8 174.285 190.601 173.793C191.471 173.258 191.591 173.258 192.602 173.761C193.332 174.117 193.882 174.182 194.272 173.95C194.592 173.761 195.433 173.685 196.133 173.782C196.833 173.88 199.104 173.869 201.185 173.755C203.926 173.609 205.076 173.382 205.396 172.944C205.636 172.609 206.356 172.338 206.997 172.344C207.947 172.344 207.937 172.398 206.967 172.619C204.256 173.241 207.077 173.571 214.009 173.458C217.891 173.393 221.262 173.301 221.492 173.263C221.732 173.22 225.793 173.171 230.535 173.155C236.817 173.133 239.088 173.02 238.938 172.738C238.788 172.457 239.298 172.436 240.929 172.663C243.76 173.052 247.321 173.052 247.321 172.663C247.321 172.495 247.971 172.452 248.762 172.56C249.862 172.711 250.072 172.636 249.632 172.225C249.292 171.906 249.402 171.765 249.912 171.879C250.382 171.981 250.762 172.279 250.762 172.538C250.762 172.863 251.283 172.949 252.453 172.814C255.254 172.495 277.202 172.041 293.808 171.96C299.84 171.933 301.321 171.825 302.251 171.354C302.871 171.04 304.072 170.786 304.912 170.786C305.752 170.786 307.173 170.5 308.043 170.148C310.134 169.31 315.316 169.413 316.596 170.321C317.427 170.911 318.317 170.943 332.572 170.927C340.875 170.916 348.168 170.797 348.798 170.656C349.428 170.516 352.409 170.392 355.451 170.37C358.482 170.354 360.962 170.218 360.962 170.078C360.962 169.937 361.303 169.894 361.723 169.986C362.363 170.132 366.324 170.013 381.63 169.402C384.461 169.288 387.052 169.791 386.462 170.337C385.892 170.878 391.654 172.133 397.126 172.663C399.256 172.868 401.577 173.112 402.287 173.209C402.998 173.301 403.878 173.355 404.248 173.328C404.618 173.301 405.138 173.485 405.419 173.744C405.689 174.004 406.429 174.215 407.059 174.215C407.689 174.215 408.45 174.496 408.75 174.842C409.16 175.307 409.95 175.448 411.821 175.399C413.211 175.361 414.342 175.231 414.342 175.112C414.342 174.993 415.112 174.972 416.062 175.058C417.013 175.15 417.783 175.345 417.783 175.496C417.783 175.648 418.533 175.772 419.454 175.772C420.374 175.772 421.344 175.902 421.614 176.059C421.884 176.216 423.685 176.308 425.616 176.253C427.546 176.205 428.657 176.27 428.077 176.4C427.496 176.529 427.286 176.783 427.607 176.973C428.397 177.432 436.48 178.276 438.04 178.06C438.73 177.962 439.301 178.038 439.301 178.227C439.301 178.417 438.891 178.573 438.39 178.573C437.89 178.573 437.72 178.714 438.01 178.887C438.331 179.076 437.01 179.201 434.619 179.201C432.458 179.201 430.698 179.341 430.698 179.509C430.698 179.693 434.329 179.812 439.821 179.796C444.833 179.785 449.134 179.844 449.374 179.931C449.615 180.017 450.255 180.023 450.805 179.947C451.355 179.871 462.319 179.774 475.164 179.736C496.041 179.671 498.712 179.606 500.203 179.12C501.653 178.644 503.534 178.584 514.708 178.633C525.832 178.687 528.823 178.584 537.026 177.897C545.009 177.227 549.391 177.07 565.006 176.913C575.19 176.811 587.194 176.508 591.696 176.243C596.198 175.978 602.2 175.697 605.041 175.626C607.882 175.556 611.953 175.399 614.084 175.28C616.215 175.161 618.736 175.037 619.676 174.999C622.827 174.88 634.241 174.518 639.483 174.372L640.303 174.348C641.216 174.322 642.29 174.292 643.433 174.26L643.552 174.256C646.071 174.185 648.911 174.105 651.107 174.042C654.659 173.939 658.92 173.733 660.581 173.582C662.242 173.431 667.854 173.236 673.066 173.144C681.679 172.993 686.32 172.82 691.142 172.463C692.763 172.344 695.214 172.263 708.788 171.884C711.87 171.798 715.741 171.668 717.401 171.597C719.062 171.527 725.254 171.37 731.176 171.257C752.574 170.83 761.628 170.435 768.7 169.618C770.361 169.424 771.891 169.418 772.792 169.602C773.582 169.764 774.562 169.818 774.972 169.732C775.383 169.64 778.334 169.488 781.555 169.391C784.766 169.294 787.677 169.153 788.027 169.077C788.377 169.002 793.059 168.91 798.441 168.883C803.823 168.856 808.625 168.721 809.125 168.585C809.615 168.45 810.785 168.337 811.706 168.337C816.437 168.331 822.419 168.093 851.27 166.763C855.061 166.59 860.543 166.449 863.454 166.46C866.365 166.465 871.987 166.33 875.939 166.157C879.89 165.984 886.923 165.768 891.575 165.681C896.226 165.595 901.568 165.373 903.459 165.189C905.35 165.005 907.55 164.881 908.351 164.908C912.932 165.07 918.014 164.838 919.215 164.4C919.955 164.129 920.565 164.054 920.565 164.232C920.565 164.432 922.606 164.503 925.947 164.416C937.181 164.135 944.334 163.918 946.825 163.778C948.245 163.697 951.876 163.583 954.888 163.518C957.959 163.453 960.66 163.237 961.02 163.026C961.44 162.783 961.86 162.761 962.21 162.961C962.52 163.14 964.881 163.215 967.702 163.14C970.423 163.064 974.725 162.961 977.246 162.913C980.027 162.853 982.147 162.642 982.618 162.377C983.238 162.026 983.398 162.02 983.408 162.356C983.418 162.685 984.528 162.729 988.53 162.561C991.341 162.442 995.892 162.285 998.643 162.21C1001.4 162.134 1005.01 162.026 1006.67 161.966C1008.33 161.907 1011.35 161.842 1013.39 161.82C1015.62 161.799 1016.89 161.658 1016.57 161.469C1016.28 161.296 1016.66 161.155 1017.43 161.155C1018.2 161.155 1018.63 161.269 1018.39 161.409C1017.93 161.68 1024.81 161.631 1034.65 161.296C1042.41 161.031 1042.72 161.031 1046.15 161.279C1047.91 161.409 1049.51 161.35 1050.24 161.128C1051.06 160.885 1051.43 160.874 1051.43 161.106C1051.43 161.29 1052.56 161.415 1053.93 161.377C1055.31 161.339 1056.27 161.215 1056.07 161.101C1055.87 160.982 1056.1 160.804 1056.58 160.695C1057.06 160.587 1057.46 160.755 1057.47 161.063C1057.48 161.377 1057.76 161.49 1058.12 161.312C1058.46 161.139 1059.53 161.004 1060.48 161.014C1061.43 161.02 1062.49 160.879 1062.83 160.701C1063.22 160.506 1063.49 160.56 1063.54 160.847C1063.59 161.16 1063.85 161.112 1064.35 160.69C1064.98 160.16 1065.1 160.149 1065.15 160.609C1065.2 161.058 1065.78 161.123 1068.44 160.982C1073.84 160.701 1093.57 160.284 1105.8 160.187C1109.71 160.155 1114.15 159.949 1115.65 159.722C1117.15 159.495 1118.56 159.376 1118.79 159.462C1119.02 159.544 1122.39 159.652 1126.27 159.706C1132.59 159.787 1133.49 159.727 1134.68 159.154C1135.66 158.684 1135.88 158.651 1135.52 159.046C1134.87 159.738 1136.39 160.074 1138 159.587C1138.95 159.3 1139.25 159.3 1139.25 159.581C1139.25 159.782 1139.56 159.879 1139.95 159.792C1140.33 159.706 1142.5 159.603 1144.74 159.56C1146.99 159.517 1149.06 159.349 1149.34 159.181C1149.64 159.003 1149.09 158.954 1148 159.057C1146.06 159.241 1145.73 159.073 1146.82 158.457C1147.44 158.1 1155.75 157.526 1157.98 157.689C1158.57 157.732 1159.05 157.618 1159.05 157.44C1159.05 157.262 1159.46 157.116 1159.96 157.116C1160.46 157.116 1160.65 157.245 1160.38 157.408C1160.11 157.564 1160.28 157.786 1160.76 157.894C1161.24 158.002 1161.63 157.927 1161.63 157.727C1161.63 157.527 1162.21 157.445 1162.9 157.537C1163.63 157.64 1164.76 157.424 1165.56 157.024C1166.83 156.402 1166.91 156.391 1166.46 156.959C1166 157.527 1166.4 157.586 1171.14 157.64C1174.88 157.683 1176.17 157.597 1175.8 157.326C1175.52 157.121 1175.85 157.207 1176.54 157.51C1177.55 157.959 1178.22 158.002 1180.1 157.743C1181.37 157.57 1185.1 157.424 1188.38 157.424C1193.49 157.424 1194.35 157.343 1194.36 156.878C1194.37 156.456 1194.54 156.429 1195.11 156.748C1196 157.256 1201.06 157.429 1201.59 156.97C1201.82 156.775 1202 156.764 1202.04 156.953C1202.07 157.126 1203.75 157.229 1205.76 157.186L1206.23 157.175L1206.52 157.169C1207.88 157.14 1208.77 157.121 1209.66 157.121C1211.17 157.116 1212.68 157.155 1216.47 157.252L1217.03 157.267L1217.81 157.289C1222.48 157.408 1224.49 157.353 1224.49 157.11C1224.49 156.899 1225.03 156.953 1225.81 157.234C1226.71 157.559 1228.13 157.662 1230.32 157.554C1232.09 157.467 1234.98 157.375 1236.76 157.348C1239.59 157.31 1239.93 157.224 1239.47 156.661C1238.95 156.029 1238.96 156.029 1240.23 156.634C1241.24 157.116 1242.78 157.267 1247.42 157.348C1258.06 157.532 1263.55 157.429 1264.25 157.029C1264.78 156.726 1264.93 156.726 1264.94 157.029C1264.95 157.51 1271.48 157.564 1272.29 157.094C1272.68 156.872 1273.22 156.878 1274.03 157.121C1274.68 157.316 1276.87 157.462 1278.9 157.445C1283.98 157.402 1294.65 157.608 1294.65 157.743C1294.65 157.905 1314.18 158.089 1325.22 158.024C1331.13 157.992 1362.46 158.37 1364.82 158.505C1366.48 158.597 1375.78 158.743 1385.48 158.819C1395.19 158.9 1403.13 158.97 1403.13 158.976C1403.13 159.019 1415.75 159.268 1426.38 159.435C1433.01 159.538 1441.33 159.7 1444.89 159.792C1448.44 159.884 1454.45 159.998 1458.23 160.046C1467.79 160.171 1484.8 160.506 1490.73 160.69C1494.68 160.814 1495.68 160.75 1495.68 160.393C1495.68 159.684 1494.12 159.495 1488.23 159.484C1484.33 159.473 1482.77 159.354 1482.77 159.068C1482.77 158.63 1483.91 158.559 1489.23 158.678C1491.12 158.722 1494.79 158.77 1497.39 158.787C1501.02 158.808 1502.18 158.938 1502.39 159.322C1502.55 159.619 1501.94 159.895 1500.9 159.992C1498.85 160.187 1498.49 160.841 1500.41 160.841C1502.34 160.841 1503.03 160.717 1502.74 160.398C1502.6 160.241 1503.1 160.301 1503.85 160.522C1504.61 160.75 1507.44 160.977 1510.14 161.025C1512.84 161.074 1516.51 161.193 1518.28 161.29C1520.92 161.436 1521.51 161.371 1521.51 160.95C1521.51 160.485 1521.66 160.479 1523.02 160.901C1523.84 161.161 1526.26 161.393 1528.4 161.42C1533.91 161.485 1543.8 161.75 1547.34 161.923C1549 162.004 1553.84 162.145 1558.11 162.237C1562.37 162.329 1569.27 162.512 1573.44 162.642C1577.61 162.772 1581.22 162.767 1581.46 162.631C1581.7 162.491 1582.35 162.485 1582.92 162.61C1583.48 162.734 1586.26 162.869 1589.1 162.907C1591.94 162.94 1594.26 162.994 1594.26 163.026C1594.26 163.059 1596.01 163.113 1598.14 163.151C1600.27 163.188 1602.7 163.329 1603.56 163.464C1604.41 163.599 1606.83 163.643 1608.95 163.556C1611.06 163.47 1612.98 163.502 1613.2 163.632C1613.42 163.762 1614.57 163.794 1615.76 163.713C1616.95 163.632 1617.74 163.459 1617.52 163.329C1616.93 162.983 1607.66 162.41 1603.95 162.485C1602.18 162.523 1600.63 162.464 1600.51 162.361C1600.31 162.183 1590.47 161.842 1578.33 161.588C1575.73 161.534 1571.08 161.398 1568 161.29C1564.93 161.182 1560.96 161.096 1559.18 161.096C1557.41 161.096 1555.96 160.955 1555.96 160.777C1555.96 160.549 1555.62 160.549 1554.84 160.777C1553.6 161.15 1552.14 160.906 1551.41 160.209C1551.02 159.836 1550.9 159.852 1550.85 160.284C1550.79 160.771 1549.97 160.814 1543.25 160.695C1533.9 160.528 1528.3 160.209 1528.88 159.868C1529.12 159.727 1529.94 159.695 1530.7 159.803C1531.65 159.933 1531.94 159.857 1531.64 159.554C1531.4 159.311 1530.77 159.149 1530.23 159.192C1529.7 159.235 1529.27 159.062 1529.27 158.803C1529.27 158.278 1534.83 158.127 1535.69 158.63C1536.38 159.035 1545.04 158.938 1545.82 158.522C1546.87 157.959 1546.58 157.792 1544.54 157.786C1543.48 157.786 1538.93 157.645 1534.43 157.478C1529.93 157.31 1525.28 157.17 1524.09 157.159C1522.91 157.148 1520 157.078 1517.64 156.997C1515.27 156.915 1510.43 156.759 1506.88 156.65C1488.88 156.093 1485.78 155.974 1485.78 155.845C1485.78 155.818 1481.63 155.747 1476.56 155.688C1471.48 155.628 1466.9 155.482 1466.36 155.363C1465.83 155.244 1463.01 155.125 1460.09 155.093C1456.07 155.055 1454.79 154.931 1454.79 154.585C1454.79 154.001 1461.92 153.649 1467.05 153.974C1469.07 154.103 1470.71 154.136 1470.71 154.049C1470.71 153.963 1471.2 154.033 1471.79 154.206C1472.38 154.379 1477.71 154.509 1483.63 154.504C1498.06 154.487 1523.42 154.931 1534.86 155.39C1537.88 155.515 1538.79 155.472 1537.9 155.25C1537.2 155.077 1536.91 154.833 1537.25 154.714C1537.6 154.59 1538.75 154.774 1539.81 155.125C1542.4 155.974 1546.15 156.288 1546.77 155.704C1547.03 155.461 1546.78 155.19 1546.21 155.104C1545.65 155.017 1546.45 155.028 1547.98 155.125C1549.52 155.223 1550.78 155.174 1550.78 155.028C1550.78 154.59 1570.83 154.86 1571.6 155.309C1572.11 155.607 1572.63 155.607 1574 155.298C1574.96 155.082 1575.75 155.039 1575.75 155.207C1575.75 155.374 1577.4 155.499 1579.41 155.488C1581.42 155.477 1586.95 155.558 1591.68 155.661C1596.41 155.764 1604.52 155.91 1609.68 155.985C1614.86 156.061 1620.68 156.196 1622.63 156.294C1627.37 156.526 1644.41 156.856 1647.64 156.78C1647.93 156.774 1648.2 156.768 1648.44 156.762C1649.03 156.748 1649.5 156.737 1649.96 156.737C1651.13 156.737 1652.31 156.786 1655.67 156.926H1655.82C1666.28 157.375 1678.13 157.721 1681.22 157.672C1686.76 157.586 1689.69 157.645 1691.8 157.878C1693.63 158.083 1693.74 158.024 1693.27 157.202L1692.75 156.304L1694.07 157.126C1695.03 157.727 1696.26 157.986 1698.63 158.089C1700.42 158.165 1701.99 158.148 1702.11 158.046C1703.39 157.018 1704.01 156.942 1705.39 157.651C1706.16 158.046 1707.3 158.3 1707.91 158.219C1708.53 158.132 1709.26 158.148 1709.54 158.246C1710.34 158.538 1715.22 158.662 1715.22 158.392C1715.22 158.257 1716 158.148 1716.94 158.148C1717.88 158.148 1718.66 158.246 1718.66 158.365C1718.66 158.484 1720.6 158.63 1722.98 158.689C1725.35 158.749 1727.28 158.689 1727.28 158.565C1727.28 158.44 1727.86 158.332 1728.57 158.332C1729.28 158.332 1729.87 158.435 1729.87 158.565C1729.87 158.695 1731.61 158.803 1733.74 158.808C1736.32 158.814 1737.61 158.684 1737.61 158.419C1737.61 158.202 1738.19 158.024 1738.9 158.024C1740.56 158.024 1740.57 157.521 1738.92 157.294C1738.22 157.197 1737.29 157.353 1736.83 157.651C1736.05 158.148 1735.97 158.148 1735.42 157.64C1734.7 156.964 1732.44 156.921 1732.44 157.581C1732.44 157.846 1732.05 157.975 1731.57 157.873C1731.09 157.764 1730.92 157.548 1731.19 157.386C1731.46 157.224 1730.73 157.094 1729.55 157.094C1728.37 157.094 1726.86 157.018 1726.17 156.921C1725.38 156.813 1724.68 157.013 1724.27 157.467L1723.62 158.186L1723.24 157.489C1722.82 156.726 1721.9 156.613 1713.8 156.326C1709.89 156.191 1708.39 156.245 1708.06 156.542C1707.72 156.851 1707.6 156.851 1707.54 156.553C1707.51 156.337 1706.89 156.164 1706.18 156.164C1705.47 156.164 1704.89 155.969 1704.89 155.731C1704.89 155.185 1708.3 154.936 1710.94 155.293C1712.05 155.439 1713.56 155.466 1714.3 155.347C1716.71 154.963 1718.66 154.915 1718.66 155.228C1718.66 155.401 1718.95 155.52 1719.31 155.499C1719.66 155.477 1720.15 155.488 1720.39 155.52C1720.62 155.553 1723.47 155.639 1726.71 155.715C1729.95 155.791 1733.29 155.985 1734.13 156.148C1734.97 156.31 1735.91 156.353 1736.22 156.239C1737.13 155.91 1742.67 155.288 1743.15 155.461C1743.4 155.547 1744.74 155.655 1746.13 155.693C1747.98 155.747 1748.54 155.65 1748.21 155.336C1747.57 154.736 1748.51 154.806 1750.45 155.499C1751.71 155.958 1753.45 156.104 1757.98 156.137C1761.22 156.164 1765.22 156.212 1766.88 156.245C1769.38 156.294 1769.85 156.207 1769.62 155.731C1769.46 155.385 1769.71 155.239 1770.26 155.358C1770.77 155.472 1771.19 155.731 1771.19 155.937C1771.2 156.423 1775.33 157.116 1775.97 156.742C1776.24 156.586 1777.51 156.537 1778.78 156.634C1783.09 156.97 1783.67 156.937 1783.55 156.38C1783.49 156.083 1783.78 155.834 1784.2 155.834C1784.62 155.834 1784.96 156.05 1784.96 156.315C1784.96 156.688 1785.86 156.78 1789.05 156.732C1791.3 156.699 1793.58 156.548 1794.11 156.396C1794.73 156.223 1795.33 156.326 1795.74 156.677C1796.3 157.159 1796.46 157.126 1796.95 156.456C1797.49 155.715 1797.79 155.682 1803.24 155.747C1808.25 155.812 1814.3 156.153 1818.58 156.618C1819.65 156.737 1819.84 156.548 1819.56 155.672C1819.26 154.725 1819.42 154.606 1820.74 154.79C1821.78 154.936 1822.07 154.888 1821.64 154.639C1821.3 154.439 1821.43 154.276 1821.93 154.276C1822.43 154.276 1822.84 154.487 1822.84 154.742C1822.84 154.996 1823.23 155.207 1823.7 155.207C1824.17 155.207 1824.56 155.331 1824.56 155.488C1824.56 155.645 1823.75 155.693 1822.75 155.601C1821.33 155.466 1821.01 155.553 1821.26 156.018C1821.6 156.667 1825.6 156.894 1828.17 156.413C1829.06 156.245 1829.83 156.261 1830.16 156.456C1830.46 156.629 1831.08 156.688 1831.54 156.586C1832 156.483 1833.5 156.283 1834.87 156.142C1836.86 155.937 1837.27 155.974 1836.9 156.321C1836.58 156.629 1837.1 156.759 1838.68 156.759C1840.26 156.759 1840.92 156.591 1840.92 156.245C1840.92 155.769 1841.04 155.769 1842.48 156.239C1843.92 156.71 1844.15 156.71 1845.57 156.212C1847.02 155.704 1847.17 155.71 1848.41 156.369C1849.45 156.926 1850.04 156.997 1851.36 156.748C1852.4 156.548 1853.52 156.537 1854.44 156.726C1855.27 156.894 1856.71 156.905 1857.79 156.759C1858.83 156.618 1859.87 156.564 1860.09 156.645C1860.9 156.937 1865.89 157.029 1865.89 156.748C1865.89 156.591 1866.3 156.461 1866.8 156.461C1867.3 156.461 1867.52 156.575 1867.29 156.71C1867.05 156.851 1868.97 156.953 1871.54 156.948C1874.11 156.942 1876.23 156.791 1876.23 156.618C1876.24 156.445 1876.59 156.499 1877.01 156.742C1877.97 157.289 1883.11 157.267 1884.08 156.715C1884.62 156.413 1884.8 156.45 1884.81 156.872C1884.82 157.18 1885.23 157.343 1885.72 157.234C1887.22 156.899 1894.31 157.013 1895.56 157.386C1896.91 157.792 1897.56 157.532 1898.55 156.207L1899.17 155.374L1900.21 156.077C1901 156.602 1901.01 156.759 1900.26 156.699C1899.7 156.656 1899.07 156.791 1898.86 157.007C1898.66 157.202 1899.25 157.31 1901 157.359V150.659C1900.27 150.729 1899.3 150.669 1897.9 150.48C1895.29 150.123 1894.2 149.62 1896.02 149.62C1896.5 149.62 1896.89 149.415 1896.89 149.161C1896.89 148.593 1892.39 148.122 1891.91 148.642C1891.73 148.842 1891.2 149.004 1890.74 149.004C1890.28 149.004 1890.08 148.896 1890.3 148.766C1890.52 148.636 1885.02 148.501 1878.08 148.469C1864.84 148.409 1845.89 148.068 1845.33 147.884C1845.15 147.825 1844.28 147.917 1843.39 148.09C1842.31 148.301 1841.78 148.295 1841.78 148.085C1841.78 147.912 1840.91 147.771 1839.85 147.782C1838.78 147.793 1834.69 147.744 1830.75 147.674C1824.31 147.565 1823.38 147.468 1821.45 146.716C1818.69 145.64 1819.39 145.278 1823.93 145.456C1828.47 145.635 1833.23 145.602 1834.18 145.392C1834.58 145.305 1834.9 145.392 1834.9 145.597C1834.9 145.803 1835.65 145.629 1836.58 145.229C1838.14 144.542 1838.22 144.537 1837.8 145.143C1837.79 145.159 1837.78 145.174 1837.77 145.189C1837.76 145.199 1837.76 145.21 1837.75 145.22C1837.74 145.234 1837.73 145.248 1837.72 145.262C1837.61 145.402 1837.53 145.51 1837.62 145.597C1837.93 145.889 1840.27 145.905 1850.62 145.965C1851.42 145.965 1852.26 145.976 1853.16 145.981C1862.5 146.035 1867.02 146.181 1867.75 146.446C1868.6 146.754 1868.39 146.835 1866.71 146.852C1864.8 146.868 1864.76 146.895 1866.32 147.111C1867.27 147.241 1869.59 147.322 1871.49 147.29C1872.63 147.27 1874.44 147.24 1876.26 147.211L1879.66 147.154C1882.27 147.111 1885.07 147.176 1885.9 147.3C1886.8 147.436 1887.42 147.387 1887.42 147.187C1887.42 146.765 1892.76 147.106 1893.62 147.582C1894.05 147.82 1894.52 147.814 1895.24 147.555C1895.9 147.317 1896.92 147.284 1898.23 147.463C1899.42 147.625 1900.32 147.62 1900.49 147.447C1900.53 147.398 1900.71 147.355 1901 147.317V141.471C1895.91 141.514 1892.28 141.579 1891.9 141.66C1891.33 141.785 1890.86 141.768 1890.86 141.612C1890.86 141.455 1890.38 141.325 1889.79 141.319C1865.14 140.968 1856.73 140.865 1843.51 140.752C1834.75 140.676 1825.64 140.552 1823.27 140.481C1821.55 140.426 1817.1 140.297 1812.16 140.154L1806.52 139.989C1799.67 139.795 1793.7 139.551 1793.24 139.448C1791.77 139.119 1785.85 138.821 1786.33 139.097C1786.58 139.243 1786.41 139.362 1785.95 139.362C1785.49 139.362 1784.97 139.216 1784.81 139.037C1784.64 138.859 1783.74 138.718 1782.8 138.724C1777.18 138.756 1766.19 138.508 1765.4 138.329C1764.53 138.134 1754.57 137.788 1746.06 137.658C1742.43 137.604 1739.09 137.48 1738.66 137.383C1738.22 137.285 1734.03 137.118 1729.34 137.01C1719.95 136.793 1718.59 136.647 1720.66 136.101C1721.83 135.793 1721.5 135.723 1718.64 135.685C1716.5 135.658 1715.22 135.777 1715.22 136.004C1715.22 136.231 1714.78 136.171 1714.15 135.879C1713.54 135.604 1711.22 135.317 1708.88 135.23C1706.57 135.144 1704.44 134.949 1704.14 134.798C1703.5 134.468 1700.57 134.457 1699.15 134.782C1698.6 134.911 1697.54 134.792 1696.81 134.527C1696.07 134.262 1694.97 134.073 1694.36 134.111C1692.51 134.225 1688.53 133.716 1688.53 133.365C1688.53 133.186 1688.33 133.105 1688.09 133.197C1687.85 133.289 1684.84 133.159 1681.42 132.921C1677.99 132.683 1672.72 132.353 1669.69 132.197C1666.66 132.04 1663.49 131.829 1662.65 131.732C1661.65 131.618 1660.97 131.748 1660.68 132.115C1660.31 132.575 1660.26 132.564 1660.37 132.051C1660.57 131.148 1659.44 130.65 1657.16 130.65C1655.82 130.65 1654.99 130.423 1654.66 129.963C1654.39 129.585 1654.31 129.228 1654.48 129.163C1655.1 128.936 1670.11 128.546 1672.71 128.692C1674.19 128.774 1676.51 128.644 1677.88 128.4C1677.89 128.4 1677.91 128.4 1677.92 128.395H1693.14C1694.05 128.454 1694.56 128.552 1694.56 128.676C1694.56 128.93 1697.03 129.011 1702.95 128.952C1707.56 128.903 1711.73 128.974 1712.2 129.109C1712.67 129.239 1714.42 129.39 1716.07 129.439C1717.73 129.487 1719.47 129.606 1719.95 129.704C1720.42 129.801 1721.97 129.893 1723.4 129.92C1724.82 129.942 1729.95 130.066 1734.8 130.201C1742.1 130.396 1743.63 130.363 1743.65 130.007C1743.67 129.704 1743.95 129.742 1744.57 130.125C1745.14 130.482 1746.43 130.672 1748.2 130.655C1751.96 130.623 1761.61 130.899 1764.52 131.115C1765.83 131.212 1767.7 131.142 1768.66 130.958C1769.98 130.704 1770.75 130.715 1771.72 131.007C1772.78 131.326 1773.17 131.315 1773.81 130.953C1774.47 130.574 1774.59 130.58 1774.6 130.996C1774.61 131.358 1775.37 131.461 1777.61 131.396C1779.25 131.348 1780.83 131.445 1781.11 131.613C1781.4 131.78 1781.92 131.851 1782.28 131.769C1782.63 131.688 1785.38 131.748 1788.37 131.905C1793.99 132.191 1798.72 132.034 1798.72 131.559C1798.72 131.407 1797.76 131.288 1796.57 131.288C1794.97 131.288 1794.42 131.126 1794.42 130.65C1794.42 130.299 1794.81 130.098 1795.29 130.201C1795.76 130.309 1796.4 130.158 1796.71 129.877C1797.22 129.395 1797.32 129.395 1798.05 129.866C1798.74 130.315 1800.83 130.369 1815.36 130.315C1824.44 130.282 1834.78 130.374 1838.33 130.515C1841.88 130.655 1845.95 130.753 1847.37 130.726C1848.79 130.699 1850.34 130.682 1850.81 130.693L1851.62 130.703C1853.43 130.724 1857.92 130.777 1862.87 130.834C1872.07 130.937 1884.67 131.131 1890.78 131.267C1893.14 131.321 1890.67 131.764 1887.55 131.845C1877.67 132.105 1874.49 132.31 1874.49 132.683C1874.49 132.959 1875.9 133.073 1879.01 133.062C1881.49 133.051 1884.36 133.208 1885.39 133.413C1886.39 133.608 1893.9 133.678 1900.99 133.641V131.753C1900.79 131.715 1900.56 131.667 1900.32 131.607C1899.41 131.396 1899.54 131.321 1900.99 131.304L1900.96 131.277L1900 90V0ZM63.0345 155.244C63.0345 155.423 63.4246 155.488 63.8947 155.38C64.3649 155.271 64.7551 155.125 64.7551 155.05C64.7551 154.974 64.3649 154.915 63.8947 154.915C63.4246 154.915 63.0345 155.066 63.0345 155.244ZM65.6156 169.537C65.6156 169.71 66.0056 169.851 66.4757 169.851C66.9459 169.851 67.3362 169.71 67.3362 169.537C67.3362 169.364 66.9459 169.223 66.4757 169.223C66.0056 169.223 65.6156 169.364 65.6156 169.537ZM100.488 155.228C100.778 155.396 101.188 155.536 101.399 155.536C101.609 155.536 101.779 155.401 101.779 155.228C101.779 155.055 101.368 154.915 100.868 154.915C100.368 154.915 100.198 155.055 100.488 155.228ZM102.639 168.293C102.639 168.466 103.029 168.607 103.499 168.607C103.969 168.607 104.36 168.466 104.36 168.293C104.36 168.12 103.969 167.98 103.499 167.98C103.029 167.98 102.639 168.12 102.639 168.293ZM118.665 168.547C118.324 168.748 118.545 169.104 119.165 169.348C120.645 169.932 120.915 169.791 120.015 168.91C119.545 168.439 119.065 168.315 118.665 168.547ZM122.506 169.407C122.546 169.77 122.746 169.845 123.026 169.597V169.591C123.276 169.369 123.246 169.099 122.956 168.996C122.676 168.894 122.466 169.077 122.506 169.407ZM128.028 169.11C127.248 169.002 126.738 169.115 126.738 169.391C126.738 169.894 128.088 170.008 128.838 169.57C129.099 169.413 128.738 169.207 128.028 169.11ZM128.448 172.182C127.968 172.29 127.798 172.511 128.068 172.668H128.078C128.808 173.101 129.329 173.02 129.329 172.473C129.329 172.203 128.928 172.073 128.448 172.182ZM129.869 154.758C129.599 155.012 129.749 155.223 130.209 155.223C130.659 155.223 131.039 155.012 131.039 154.758C131.039 154.504 130.879 154.293 130.699 154.293C130.519 154.293 130.139 154.504 129.869 154.758ZM143.964 154.709C143.964 155.077 144.724 155.536 145.344 155.536H145.354C145.474 155.536 145.524 155.255 145.454 154.915C145.304 154.233 143.964 154.044 143.964 154.709ZM147.405 172.473C147.405 172.744 147.795 172.96 148.265 172.96C148.736 172.96 149.126 172.83 149.126 172.668C149.126 172.506 148.736 172.29 148.265 172.182C147.795 172.073 147.405 172.203 147.405 172.473ZM154.237 153.838C153.047 154.109 153.267 154.293 154.778 154.293V154.287C155.518 154.287 155.878 154.147 155.578 153.974C155.288 153.801 154.678 153.741 154.237 153.838ZM156.188 172.149C156.798 172.387 157.629 172.511 158.039 172.419C158.449 172.333 158.249 172.138 157.609 171.992C155.788 171.576 154.958 171.668 156.188 172.149ZM161.24 173.047C160.33 173.068 159.759 173.193 159.98 173.323V173.328C160.34 173.539 162.901 173.344 162.901 173.106C162.901 173.047 162.15 173.02 161.24 173.047ZM162.901 155.088C162.901 155.163 163.291 155.223 163.761 155.223C164.231 155.223 164.621 155.071 164.621 154.893C164.621 154.714 164.231 154.655 163.761 154.758C163.291 154.866 162.901 155.012 162.901 155.088ZM173.244 169.694C173.725 169.586 173.895 169.364 173.625 169.207H173.615C172.884 168.775 172.364 168.856 172.364 169.402C172.364 169.672 172.764 169.802 173.244 169.694ZM171.494 171.873C170.713 172.052 171.444 173.344 172.474 173.593H172.464C173.674 173.89 176.666 173.869 176.666 173.566C176.666 173.404 176.276 173.274 175.805 173.274C175.335 173.274 174.915 173.025 174.885 172.728C174.835 172.263 174.725 172.273 174.125 172.803C173.485 173.377 173.374 173.355 172.804 172.571C172.464 172.106 171.874 171.787 171.494 171.873ZM174.955 169.402C174.955 169.478 175.345 169.537 175.815 169.537C176.286 169.537 176.676 169.386 176.676 169.207C176.676 169.029 176.286 168.964 175.815 169.072C175.345 169.18 174.955 169.326 174.955 169.402ZM183.278 173.371C184.058 173.658 184.179 173.642 184.679 173.166C184.919 172.939 184.579 172.749 183.908 172.749C182.628 172.749 182.338 173.03 183.278 173.371ZM189.22 167.271C188.75 167.715 188.85 167.747 189.7 167.444C190.29 167.233 190.561 166.985 190.291 166.887C190.02 166.79 189.54 166.963 189.22 167.271ZM191.001 172.182C190.701 172.463 190.991 172.647 191.741 172.647C192.481 172.647 192.781 172.463 192.481 172.182C192.211 171.927 191.871 171.716 191.741 171.716C191.611 171.716 191.271 171.927 191.001 172.182ZM221.432 167.515C220.952 167.623 220.782 167.845 221.052 168.001H221.062C221.792 168.434 222.312 168.353 222.312 167.807C222.312 167.536 221.912 167.406 221.432 167.515ZM225.773 152.762C225.743 153.287 226.654 153.757 227.264 153.536C227.464 153.465 227.214 153.152 226.714 152.838C225.963 152.373 225.793 152.357 225.773 152.762ZM237.468 151.675C237.208 151.919 237.688 152.054 238.718 152.027H238.728C239.648 152 240.399 151.821 240.399 151.632C240.399 151.151 237.988 151.189 237.468 151.675ZM1525.8 158.943C1524.96 159.511 1524.31 159.587 1521.63 159.419V159.425C1513.94 158.949 1505.98 159.041 1505.98 159.603C1505.98 159.744 1506.66 159.873 1507.49 159.895C1511.87 159.998 1525.44 160.414 1526.01 160.463C1526.38 160.495 1527.07 160.144 1527.55 159.69C1528.68 158.613 1527.21 157.992 1525.8 158.943ZM1713.19 157.77C1713.44 157.548 1713.41 157.278 1713.12 157.175V157.17C1712.84 157.067 1712.63 157.251 1712.67 157.581C1712.71 157.943 1712.92 158.019 1713.19 157.77ZM1873.98 155.255C1874.25 155.098 1873.69 155.05 1872.74 155.136C1870.73 155.326 1870.48 155.536 1872.26 155.536C1872.94 155.536 1873.72 155.412 1873.98 155.255ZM1866.95 155.661C1866.66 155.764 1867.17 155.834 1868.08 155.823C1869.08 155.807 1869.28 155.731 1868.6 155.634C1867.98 155.547 1867.23 155.558 1866.95 155.661ZM1867.59 154.206C1868.55 154.233 1869.11 154.125 1868.83 153.963C1868.23 153.606 1865.85 153.568 1865.85 153.914C1865.85 154.049 1866.64 154.179 1867.59 154.206ZM1824.12 153.065C1823.84 152.898 1823.04 152.843 1822.35 152.941C1820.57 153.189 1820.78 153.363 1822.85 153.363C1823.83 153.363 1824.4 153.227 1824.12 153.065ZM1880.8 144.488C1881.07 144.234 1880.92 144.023 1880.46 144.023C1880 144.023 1879.62 144.234 1879.62 144.488C1879.62 144.743 1879.78 144.954 1879.96 144.954C1880.15 144.954 1880.52 144.748 1880.8 144.488ZM1853.8 141.979C1853.8 141.904 1853.41 141.844 1852.94 141.844C1852.46 141.844 1852.07 141.995 1852.07 142.174C1852.07 142.352 1852.46 142.417 1852.94 142.309C1853.41 142.201 1853.8 142.055 1853.8 141.979ZM1846.05 144.315C1846.05 144.137 1845.66 144.072 1845.19 144.18C1844.72 144.288 1844.33 144.434 1844.33 144.51C1844.33 144.586 1844.72 144.645 1845.19 144.645C1845.66 144.645 1846.05 144.494 1846.05 144.315ZM1830.29 144.44C1830.85 143.904 1830.79 143.904 1829.42 144.391C1827.77 144.981 1827.58 145.267 1828.83 145.267C1829.3 145.267 1829.69 145.208 1829.69 145.137C1829.69 145.067 1829.96 144.753 1830.29 144.44ZM1814.03 146.349C1813.77 146.251 1813.28 146.424 1812.96 146.733C1812.49 147.176 1812.59 147.209 1813.44 146.906C1814.03 146.695 1814.3 146.446 1814.03 146.349ZM1813.77 149.318C1813.47 149.145 1813.06 149.004 1812.86 149.004C1812.65 149.004 1812.48 149.15 1812.48 149.318C1812.48 149.485 1812.89 149.626 1813.39 149.626C1813.89 149.626 1814.06 149.491 1813.77 149.318ZM1812.35 151.335C1812.59 151.248 1812.33 151.005 1811.77 150.805V150.81C1811.16 150.583 1810.75 150.567 1810.75 150.761C1810.75 151.172 1811.77 151.54 1812.35 151.335ZM1810.75 153.855C1810.75 153.568 1810.15 153.471 1809.02 153.579C1806.37 153.833 1806.07 154.293 1808.55 154.293C1809.87 154.293 1810.75 154.12 1810.75 153.855ZM1806.45 143.228C1806.45 143.153 1806.06 143.093 1805.59 143.093C1805.12 143.093 1804.73 143.245 1804.73 143.423C1804.73 143.602 1805.12 143.666 1805.59 143.558C1806.06 143.45 1806.45 143.304 1806.45 143.228ZM1805.59 154.736C1805.59 154.66 1804.99 154.601 1804.25 154.601C1803.51 154.601 1803.14 154.742 1803.44 154.915C1803.93 155.201 1805.59 155.066 1805.59 154.736ZM1800.42 143.693C1800.42 143.515 1800.03 143.45 1799.56 143.558C1799.08 143.666 1798.7 143.812 1798.7 143.888C1798.7 143.964 1799.09 144.023 1799.56 144.023C1800.03 144.023 1800.42 143.872 1800.42 143.693ZM1797.4 143.093C1797.11 142.92 1796.7 142.78 1796.49 142.78C1796.28 142.78 1796.11 142.92 1796.11 143.093C1796.11 143.266 1796.53 143.407 1797.03 143.407C1797.53 143.407 1797.7 143.266 1797.4 143.093ZM1792.24 144.337C1791.95 144.164 1791.54 144.023 1791.33 144.023C1791.12 144.023 1790.95 144.164 1790.95 144.337C1790.95 144.51 1791.36 144.651 1791.86 144.651C1792.36 144.651 1792.53 144.51 1792.24 144.337ZM1790.34 151.8C1790.59 151.459 1790.44 151.254 1790.01 151.351C1789.58 151.448 1789.23 151.724 1789.23 151.973C1789.23 152.616 1789.81 152.524 1790.34 151.8ZM1788.37 142.915C1788.37 142.839 1787.98 142.78 1787.51 142.78C1787.03 142.78 1786.65 142.931 1786.65 143.109C1786.65 143.288 1787.03 143.347 1787.51 143.245C1787.98 143.137 1788.37 142.991 1788.37 142.915ZM1788.37 155.244C1788.37 155.061 1787.59 154.915 1786.65 154.915V154.92C1785.7 154.92 1784.93 155.066 1784.93 155.234C1784.93 155.401 1785.7 155.542 1786.65 155.542C1787.6 155.542 1788.37 155.747 1788.37 156.007C1788.37 156.667 1788.95 156.586 1789.48 155.85C1789.73 155.509 1789.58 155.304 1789.15 155.401C1788.72 155.499 1788.37 155.428 1788.37 155.244ZM1783.04 155.499C1783.91 155.082 1783.87 154.952 1782.8 154.806C1781.82 154.671 1781.48 154.839 1781.48 155.445C1781.48 155.899 1781.59 156.207 1781.73 156.137C1781.86 156.066 1782.45 155.78 1783.04 155.499ZM1778.04 155.536C1779.66 155.915 1779.76 155.915 1779.76 155.536C1779.76 155.363 1779.08 155.228 1778.26 155.228C1776.97 155.234 1776.94 155.277 1778.04 155.536ZM1776.91 140.968C1777.16 140.746 1777.12 140.476 1776.84 140.373C1776.55 140.265 1776.34 140.449 1776.38 140.779C1776.42 141.141 1776.62 141.217 1776.91 140.968ZM1776.87 151.648C1777.15 151.908 1776.91 152.319 1776.34 152.568C1775.75 152.822 1775.56 153.303 1775.9 153.692C1776.76 154.655 1778.01 153.855 1778.03 152.346C1778.03 151.702 1777.67 151.178 1777.21 151.178C1776.74 151.178 1776.59 151.389 1776.87 151.648ZM1774.04 155.38C1774.31 155.125 1774.16 154.915 1773.7 154.915C1773.24 154.915 1772.87 155.125 1772.87 155.38C1772.87 155.634 1773.02 155.845 1773.2 155.845C1773.39 155.845 1773.77 155.634 1774.04 155.38ZM1759.08 151.881C1759.08 151.751 1758.71 151.437 1758.26 151.183C1757.62 150.821 1757.48 150.87 1757.6 151.416C1757.72 152.032 1759.12 152.47 1759.08 151.881ZM1757.38 154.293C1757.38 154.12 1756.77 153.979 1756.03 153.979C1755.3 153.979 1754.93 154.12 1755.22 154.293C1755.52 154.466 1756.13 154.606 1756.57 154.606C1757.01 154.606 1757.38 154.466 1757.38 154.293ZM1753.93 140.6C1753.93 140.433 1753.55 140.292 1753.07 140.292C1752.6 140.292 1752.21 140.427 1752.21 140.6C1752.21 140.773 1752.59 140.914 1753.07 140.914C1753.55 140.914 1753.93 140.768 1753.93 140.6ZM1753.07 154.444C1753.07 154.19 1752.7 153.979 1752.24 153.979C1751.78 153.979 1751.63 154.185 1751.9 154.444C1752.17 154.698 1752.55 154.909 1752.73 154.909C1752.92 154.909 1753.07 154.698 1753.07 154.444ZM1747.38 154.239C1747.13 154.098 1746.57 153.979 1746.13 153.979C1745.68 153.979 1745.32 154.098 1745.32 154.239C1745.32 154.379 1745.88 154.498 1746.57 154.498C1747.26 154.498 1747.62 154.379 1747.38 154.239ZM1741.01 140.27C1741.01 140.092 1740.63 140.027 1740.15 140.135C1739.68 140.243 1739.29 140.389 1739.29 140.465C1739.29 140.541 1739.67 140.6 1740.15 140.6C1740.63 140.6 1741.01 140.449 1741.01 140.27ZM1734.99 138.87C1734.99 138.794 1734.6 138.735 1734.13 138.735C1733.65 138.735 1733.27 138.886 1733.27 139.064C1733.27 139.243 1733.65 139.308 1734.13 139.2C1734.6 139.092 1734.99 138.946 1734.99 138.87ZM1732.35 153.022C1732.38 152.919 1731.81 152.838 1731.08 152.838V152.843C1730.29 152.843 1729.94 153.016 1730.22 153.281C1730.48 153.525 1730.71 153.887 1730.75 154.087C1730.8 154.406 1732.19 153.482 1732.35 153.022ZM1711.74 154.271C1711.74 153.92 1711.37 153.714 1710.92 153.817C1710.47 153.914 1710.31 154.206 1710.58 154.455C1711.26 155.098 1711.74 155.023 1711.74 154.271ZM1701.84 135.317C1701.55 135.144 1701.14 135.003 1700.93 135.003C1700.72 135.003 1700.55 135.149 1700.55 135.317C1700.55 135.485 1700.95 135.625 1701.46 135.625C1701.97 135.625 1702.14 135.49 1701.84 135.317ZM1700.19 155.536C1700.94 155.536 1701.4 155.374 1701.22 155.169C1700.68 154.59 1698.83 154.493 1698.83 155.044C1698.83 155.315 1699.44 155.536 1700.19 155.536ZM1697.11 154.758C1697.58 154.65 1697.97 154.504 1697.97 154.428C1697.97 154.352 1697.58 154.293 1697.11 154.293C1696.64 154.293 1696.25 154.444 1696.25 154.623C1696.25 154.801 1696.64 154.866 1697.11 154.758ZM1697.11 151.8C1697.11 151.632 1696.7 151.491 1696.2 151.491C1695.7 151.491 1695.53 151.627 1695.82 151.8C1696.11 151.973 1696.52 152.113 1696.73 152.113C1696.94 152.113 1697.11 151.967 1697.11 151.8ZM1695.03 153.957C1694.43 154.136 1693.6 154.179 1693.18 154.055C1692.76 153.925 1692.94 154.071 1693.58 154.368C1695.03 155.05 1695.09 155.05 1695.65 154.271C1696.01 153.779 1695.86 153.709 1695.03 153.957ZM1679.46 135.003C1679.75 134.83 1679.39 134.69 1678.65 134.69C1677.91 134.69 1677.31 134.83 1677.31 135.003C1677.31 135.176 1677.68 135.317 1678.12 135.317C1678.56 135.317 1679.17 135.176 1679.46 135.003ZM102.639 147.154C102.639 147.333 103.029 147.398 103.499 147.29C103.969 147.181 104.36 147.035 104.36 146.96C104.36 146.884 103.969 146.825 103.499 146.825C103.029 146.825 102.639 146.976 102.639 147.154ZM252.433 149.669C252.433 149.907 262.767 149.891 266.068 149.647V149.653C266.218 149.637 266.198 149.464 266.008 149.258C265.778 149.009 263.707 148.901 259.846 148.939C253.824 148.999 252.433 149.134 252.433 149.669ZM410.06 173.761C410.1 174.123 410.3 174.199 410.58 173.95C410.83 173.728 410.801 173.458 410.51 173.355C410.23 173.247 410.02 173.431 410.06 173.761ZM487.618 176.692C487.618 177.119 487.808 177.297 488.048 177.081C488.288 176.865 488.288 176.519 488.048 176.302C487.818 176.091 487.618 176.264 487.618 176.692ZM488.338 178.249C488.338 178.59 488.729 178.871 489.199 178.871C489.669 178.871 490.059 178.59 490.059 178.249C490.059 177.908 489.669 177.627 489.199 177.627C488.729 177.627 488.338 177.908 488.338 178.249ZM595.167 169.094C595.207 169.456 595.417 169.532 595.687 169.283V169.278C595.937 169.056 595.907 168.785 595.617 168.683C595.337 168.58 595.127 168.764 595.167 169.094ZM1125.67 158.462C1125.39 158.565 1125.9 158.64 1126.8 158.624C1127.8 158.608 1128.01 158.532 1127.32 158.435C1126.7 158.348 1125.96 158.359 1125.67 158.462ZM1132.32 159.289C1132.32 159.738 1132.94 159.641 1133.51 159.1C1133.81 158.824 1133.66 158.7 1133.18 158.808C1132.71 158.911 1132.32 159.127 1132.32 159.289ZM1132.32 156.488C1132.32 156.667 1132.71 156.732 1133.19 156.623C1133.66 156.515 1134.05 156.369 1134.05 156.294C1134.05 156.218 1133.67 156.158 1133.19 156.158C1132.71 156.158 1132.32 156.31 1132.32 156.488ZM1139.28 155.407C1139.32 155.769 1139.52 155.845 1139.8 155.596V155.591C1140.05 155.369 1140.02 155.098 1139.73 154.996C1139.44 154.893 1139.24 155.077 1139.28 155.407ZM1140.77 158.527C1140.37 158.619 1140.27 158.824 1140.54 158.981C1141.23 159.387 1141.51 159.343 1141.51 158.819C1141.51 158.57 1141.19 158.435 1140.77 158.527ZM1159.17 156.407C1159.96 156.688 1160.55 156.656 1161.76 156.261V156.266C1162.62 155.985 1163.11 155.677 1162.85 155.58C1162.58 155.482 1162.05 155.585 1161.67 155.807C1161.13 156.126 1160.69 156.104 1159.57 155.699C1158.48 155.304 1158.15 155.288 1158.15 155.612C1158.15 155.845 1158.61 156.202 1159.17 156.407ZM1240.8 154.779C1240.8 154.855 1241.19 154.915 1241.67 154.915C1242.14 154.915 1242.53 154.763 1242.53 154.585C1242.53 154.406 1242.14 154.341 1241.67 154.449C1241.19 154.558 1240.8 154.704 1240.8 154.779ZM1299.42 155.407C1299.46 155.769 1299.66 155.845 1299.94 155.596V155.591C1300.18 155.369 1300.15 155.098 1299.87 154.996C1299.58 154.893 1299.38 155.077 1299.42 155.407ZM1468.09 133.868C1468.09 134.089 1468.67 134.273 1469.38 134.273C1470.09 134.273 1470.67 134.17 1470.67 134.046C1470.67 133.922 1470.09 133.738 1469.38 133.641C1468.64 133.538 1468.09 133.646 1468.09 133.868ZM1482.37 150.599C1482.92 150.913 1483.12 150.913 1483.41 150.599V150.605C1483.61 150.383 1483.54 150.123 1483.25 150.021C1482.37 149.702 1481.66 150.177 1482.37 150.599ZM1528.36 154.601C1528.36 154.774 1528.95 154.915 1529.66 154.915C1530.37 154.915 1530.95 154.774 1530.95 154.601C1530.95 154.428 1530.37 154.287 1529.66 154.287C1528.95 154.287 1528.36 154.428 1528.36 154.601ZM1886.95 133.132C1887.24 133.305 1887.65 133.446 1887.86 133.446C1888.07 133.446 1888.24 133.305 1888.24 133.132C1888.24 132.959 1887.83 132.819 1887.33 132.819C1886.83 132.819 1886.66 132.959 1886.95 133.132ZM1719.5 128.39C1719.56 128.79 1720.53 129.13 1721.09 128.93C1721.33 128.844 1721.06 128.606 1720.51 128.4L1720.47 128.39H1719.5ZM1837.01 128.779C1837.31 128.952 1837.72 129.093 1837.92 129.093C1838.13 129.093 1838.3 128.952 1838.3 128.779C1838.3 128.606 1837.89 128.465 1837.39 128.465C1836.89 128.465 1836.72 128.606 1837.01 128.779ZM1891.68 132.705C1891.68 133.121 1892.7 133.489 1893.28 133.284C1893.52 133.197 1893.26 132.959 1892.7 132.754C1892.08 132.527 1891.68 132.51 1891.68 132.705ZM1894.91 131.288C1892.63 131.31 1892.43 131.358 1893.84 131.559V131.553C1895.41 131.78 1897.71 131.677 1897.71 131.385C1897.71 131.321 1896.45 131.277 1894.91 131.288Z" fill="#D6D6D6"/>
<path d="M1844.33 133.008C1845.75 132.975 1847.4 133.056 1847.99 133.192V133.186C1849.74 133.586 1852.26 133.478 1853.94 132.927C1854.81 132.645 1855.52 132.543 1855.52 132.7C1855.52 132.856 1859.36 133.019 1864.04 133.056C1871.25 133.116 1872.64 133.051 1873.1 132.618L1873.14 132.586C1873.39 132.353 1873.53 132.218 1873.42 132.121C1873.26 131.986 1872.59 131.926 1870.97 131.786L1870.8 131.769C1869.4 131.65 1868.44 131.694 1868.44 131.883C1868.44 132.061 1867.86 132.202 1867.15 132.202C1866.44 132.202 1865.85 132.067 1865.85 131.894C1865.85 131.467 1862.64 131.494 1862.24 131.921C1861.9 132.289 1860.55 132.326 1852.34 132.202C1848.66 132.148 1846.86 131.986 1846.54 131.677C1846.28 131.429 1845.67 131.321 1845.18 131.429C1844.7 131.537 1844.52 131.753 1844.79 131.91C1845.06 132.067 1844.77 132.126 1844.16 132.045C1842.66 131.85 1840.53 132.364 1841.2 132.759C1841.5 132.932 1842.91 133.046 1844.33 133.008Z" fill="#D6D6D6"/>
<path d="M1707.44 134.068C1707.44 133.895 1707.61 133.754 1707.82 133.754C1708.03 133.754 1708.44 133.895 1708.73 134.068C1709.02 134.241 1708.85 134.381 1708.35 134.381C1707.85 134.381 1707.44 134.241 1707.44 134.068Z" fill="#D6D6D6"/>
<path d="M1743.16 136.69C1747.61 136.826 1754.21 137.177 1754.53 137.291V137.285C1755.19 137.523 1759.87 137.064 1759.43 136.804C1759.15 136.642 1758.36 136.582 1757.67 136.68C1756.99 136.777 1756.63 136.734 1756.89 136.582C1757.15 136.431 1756.59 136.236 1755.64 136.15C1754.7 136.058 1753.93 136.112 1753.93 136.269C1753.93 136.425 1753.52 136.55 1753.02 136.55C1752.52 136.55 1752.32 136.425 1752.58 136.274C1753.17 135.933 1746.18 135.268 1744.94 135.549C1743.58 135.858 1741.53 135.814 1740.81 135.463C1740.41 135.268 1740.17 135.29 1740.17 135.522C1740.14 136.101 1726.23 135.755 1724.98 135.144C1724.11 134.722 1723.94 134.727 1723.45 135.187C1722.73 135.863 1723.01 135.939 1726.84 136.112C1728.61 136.193 1730.66 136.377 1731.4 136.528C1732.14 136.68 1733.54 136.707 1734.51 136.593C1736.09 136.404 1738.06 136.382 1739.29 136.534C1739.53 136.561 1741.27 136.631 1743.16 136.69Z" fill="#D6D6D6"/>
<path d="M1771.15 137.491C1770.14 137.258 1770.39 137.188 1772.27 137.183C1773.67 137.183 1774.46 137.307 1774.16 137.491C1773.5 137.875 1772.8 137.875 1771.15 137.491Z" fill="#D6D6D6"/>
<path d="M1830.83 137.707C1829.45 137.902 1829.52 137.956 1831.41 138.145C1834.9 138.497 1835.7 138.453 1835.17 137.956C1834.63 137.448 1833.29 137.366 1830.83 137.707Z" fill="#D6D6D6"/>
<path d="M1860.22 139.27C1859.46 139.113 1858.63 139.064 1858.36 139.162C1858.09 139.254 1856.82 139.135 1855.52 138.891C1854.22 138.648 1852.91 138.54 1852.61 138.643C1852.32 138.751 1852.08 138.708 1852.08 138.551C1852.08 138.394 1854.79 138.243 1858.1 138.221C1861.42 138.194 1864.13 138.307 1864.13 138.47C1864.13 138.632 1864.62 138.735 1865.21 138.697C1866.98 138.589 1872.86 139.108 1872.28 139.319C1871.44 139.622 1861.77 139.584 1860.22 139.27Z" fill="#D6D6D6"/>
<path d="M1849.49 146.668C1849.02 146.776 1848.63 146.922 1848.63 146.998C1848.63 147.073 1849.01 147.133 1849.49 147.133C1849.97 147.133 1850.35 146.981 1850.35 146.803C1850.35 146.624 1849.97 146.56 1849.49 146.668Z" fill="#D6D6D6"/>
<path d="M143.104 150.248L140.953 149.999L143.274 149.966C144.544 149.95 145.835 150.075 146.125 150.248C146.735 150.599 146.165 150.599 143.114 150.248H143.104Z" fill="#D6D6D6"/>
<path d="M150.416 150.556C148.065 150.194 147.405 150.194 147.405 150.556H147.395C147.395 150.729 148.465 150.859 149.766 150.848C151.867 150.826 151.947 150.794 150.416 150.556Z" fill="#D6D6D6"/>
<path d="M163.761 151.805C163.051 151.637 162.861 151.502 163.331 151.502C163.801 151.502 164.771 151.637 165.482 151.805C166.192 151.973 166.382 152.108 165.912 152.108C165.442 152.108 164.471 151.973 163.761 151.805Z" fill="#D6D6D6"/>
<path d="M1548.97 155.536C1548.47 155.536 1548.3 155.677 1548.59 155.85C1548.88 156.023 1549.29 156.164 1549.5 156.164C1549.71 156.164 1549.88 156.023 1549.88 155.85C1549.88 155.677 1549.47 155.536 1548.97 155.536Z" fill="#D6D6D6"/>
<path d="M1549.02 158.743C1549.02 158.522 1548.63 158.338 1548.16 158.338C1547.69 158.338 1547.3 158.213 1547.3 158.062C1547.3 157.91 1548.95 157.813 1550.96 157.851C1552.97 157.889 1556.27 157.943 1558.28 157.975C1560.3 158.008 1561.94 158.159 1561.94 158.311C1561.94 158.462 1561.17 158.522 1560.22 158.43C1559.12 158.327 1558.5 158.419 1558.5 158.695C1558.5 159.003 1557.17 159.127 1553.75 159.138C1550.4 159.149 1549.02 159.035 1549.02 158.749V158.743Z" fill="#D6D6D6"/>
<path d="M1187.51 159.187C1186.46 159.089 1185.92 159.143 1186.21 159.316C1186.98 159.76 1190.25 159.5 1190.65 158.96C1190.94 158.57 1190.86 158.565 1190.16 158.927C1189.68 159.176 1188.56 159.284 1187.51 159.187Z" fill="#D6D6D6"/>
<path d="M1153.6 159.403C1154.88 159.354 1156.52 159.43 1157.24 159.576C1157.96 159.722 1158.81 159.782 1159.14 159.706C1159.47 159.636 1162.86 159.565 1166.69 159.549C1170.52 159.533 1173.66 159.408 1173.66 159.273C1173.66 158.927 1167.81 158.57 1166.59 158.841C1166.04 158.965 1162.36 159.041 1158.43 159.008C1154.49 158.976 1151.27 159.073 1151.27 159.225C1151.27 159.376 1152.32 159.452 1153.6 159.403Z" fill="#D6D6D6"/>
<path d="M1626.15 163.935C1621.78 163.837 1619.2 163.637 1618.97 163.388C1618.56 162.94 1620.14 162.859 1620.88 163.291C1621.15 163.448 1623.4 163.545 1625.88 163.502C1630.78 163.421 1636.37 163.718 1634.25 163.946C1633.54 164.021 1629.9 164.016 1626.15 163.929V163.935Z" fill="#D6D6D6"/>
<path d="M427.216 179.493C427.216 179.32 427.386 179.179 427.596 179.179C427.807 179.179 428.217 179.32 428.507 179.493C428.797 179.666 428.627 179.806 428.127 179.806C427.627 179.806 427.216 179.666 427.216 179.493Z" fill="#D6D6D6"/>
<path d="M1612.74 159.425C1612.74 159.165 1613.13 158.96 1613.6 158.96C1614.07 158.96 1614.46 159.17 1614.46 159.425C1614.46 159.679 1614.07 159.89 1613.6 159.89C1613.13 159.89 1612.74 159.679 1612.74 159.425Z" fill="#D6D6D6"/>
<path d="M1176.24 158.96C1175.23 158.96 1174.65 159.095 1174.95 159.268C1175.24 159.441 1175.83 159.581 1176.24 159.581C1176.65 159.581 1177.24 159.441 1177.53 159.268C1177.82 159.1 1177.25 158.96 1176.24 158.96Z" fill="#D6D6D6"/>
<path d="M1181.11 159.376C1179.99 158.97 1180.57 158.711 1182.25 158.868C1183.19 158.96 1183.75 159.154 1183.49 159.306C1182.93 159.636 1181.91 159.663 1181.11 159.376Z" fill="#D6D6D6"/>
<path d="M1194.82 159.316C1194.55 159.154 1194.95 158.933 1195.73 158.83C1197.64 158.565 1198.09 158.787 1196.56 159.241C1195.82 159.462 1195.12 159.495 1194.82 159.316Z" fill="#D6D6D6"/>
<path d="M1205.28 159.365C1204.44 159.284 1203.28 159.289 1202.7 159.376V159.381C1202.11 159.462 1202.8 159.533 1204.22 159.522C1205.64 159.511 1206.11 159.446 1205.28 159.365Z" fill="#D6D6D6"/>
<path d="M1219.51 159.392C1219.8 159.289 1220.54 159.279 1221.16 159.365C1221.85 159.462 1221.64 159.538 1220.64 159.554C1219.73 159.571 1219.23 159.495 1219.51 159.392Z" fill="#D6D6D6"/>
<path d="M1603.89 159.365C1603.05 159.284 1601.89 159.289 1601.31 159.376V159.381C1600.73 159.462 1601.41 159.527 1602.83 159.522C1604.25 159.511 1604.73 159.446 1603.89 159.365Z" fill="#D6D6D6"/>
<path d="M1562.8 158.505C1562.8 158.722 1562.32 158.976 1561.73 159.068V159.073C1561.13 159.16 1561.91 159.214 1563.45 159.187C1564.99 159.16 1566.24 159.03 1566.24 158.895C1566.24 158.759 1567.7 158.635 1569.47 158.624C1573.42 158.592 1572.35 158.435 1566.89 158.246C1563.92 158.143 1562.8 158.213 1562.8 158.505Z" fill="#D6D6D6"/>
<path d="M1581.31 158.938C1579.33 158.787 1579.78 158.738 1583.27 158.727C1585.79 158.716 1588.88 158.824 1590.17 158.96C1592.03 159.16 1591.62 159.203 1588.2 159.17C1585.83 159.149 1582.73 159.046 1581.31 158.938Z" fill="#D6D6D6"/>
<path d="M1763.83 137.177C1763.54 137.004 1764.07 136.864 1765.02 136.864C1765.97 136.864 1766.98 137.004 1767.27 137.177C1767.56 137.35 1767.03 137.485 1766.08 137.485C1765.13 137.485 1764.12 137.345 1763.83 137.177Z" fill="#D6D6D6"/>
<path d="M1761.68 136.712C1761.2 136.82 1760.82 136.966 1760.82 137.042C1760.82 137.118 1761.21 137.177 1761.68 137.177C1762.15 137.177 1762.54 137.026 1762.54 136.847C1762.54 136.669 1762.15 136.604 1761.68 136.712Z" fill="#D6D6D6"/>
<path d="M1821.3 132.57C1819.29 132.516 1817.64 132.326 1817.64 132.143C1817.64 131.937 1818.77 131.872 1820.64 131.986C1822.28 132.083 1823.82 132.051 1824.06 131.915C1824.44 131.694 1830.8 131.742 1836.58 132.007C1839.82 132.159 1840.03 132.186 1840.03 132.451C1840.03 132.586 1837.76 132.618 1835 132.521C1832.23 132.424 1828.83 132.418 1827.46 132.51C1826.08 132.602 1823.31 132.629 1821.3 132.575V132.57Z" fill="#D6D6D6"/>
<path d="M1735.42 132.202C1733.05 131.834 1731.69 131.834 1733.27 132.202C1733.98 132.37 1735.14 132.499 1735.85 132.489C1736.7 132.478 1736.55 132.38 1735.42 132.202Z" fill="#D6D6D6"/>
<path d="M1738.05 132.235C1737.79 132.078 1739.03 131.959 1740.8 131.959C1743.29 131.964 1743.64 132.024 1742.3 132.218C1739.95 132.559 1738.62 132.564 1738.05 132.235Z" fill="#D6D6D6"/>
<path d="M1808.77 131.926C1804.14 131.953 1803.22 132.024 1805.16 132.197C1808.71 132.516 1815.99 132.489 1815.42 132.159C1815.16 132.013 1812.17 131.905 1808.77 131.926Z" fill="#D6D6D6"/>
<path d="M1799.99 131.888C1799.69 131.715 1800.06 131.575 1800.8 131.575C1801.54 131.575 1802.14 131.715 1802.14 131.888C1802.14 132.061 1801.77 132.197 1801.33 132.197C1800.89 132.197 1800.28 132.056 1799.99 131.888Z" fill="#D6D6D6"/>
</svg>
