<svg xmlns="http://www.w3.org/2000/svg" fill="none" viewBox="0 0 241 241" preserveAspectRatio="none"><path fill="#D6D6D6" d="M9.088 150.592c-11.229-11.229-11.229-29.435 0-40.664L110.253 8.763c11.229-11.229 29.435-11.229 40.664 0 11.229 11.23 11.229 29.435 0 40.665 11.229-11.23 29.435-11.23 40.664 0 11.229 11.229 11.229 29.434 0 40.664 11.229-11.23 29.435-11.23 40.664 0 11.229 11.229 11.229 29.435 0 40.664L131.081 231.92c-11.23 11.229-29.435 11.229-40.664 0-11.23-11.229-11.23-29.435 0-40.664-11.23 11.229-29.436 11.229-40.665 0s-11.229-29.435 0-40.664c-11.229 11.229-29.435 11.229-40.664 0Z"/></svg>
