<svg xmlns="http://www.w3.org/2000/svg" fill="none" preserveAspectRatio="none" viewBox="0 0 240 226"><path fill="#D6D6D6" d="M208.81 93.84c11.971-17.304 14.724-37.272 5.238-52.036-10.788-16.797-34.26-21.97-58.049-14.76-9.134-16.34-23.688-26.697-39.68-26.07-17.466.688-32.186 14.307-39.505 33.935a75.387 75.387 0 0 0-12.804-1.09C28.656 33.82 0 58.21 0 88.295 0 112.493 18.54 133 44.182 140.106c-20.269 18.769-28.34 43.213-17.942 59.398 12.443 19.376 46.639 19.572 76.373.436a91.708 91.708 0 0 0 2.411-1.606c11.24 18.89 29.152 30.006 47.025 26.879 21.061-3.683 35.484-25.995 36.492-53.245 22.76 3.728 44.408-7.714 50.078-27.466 5.84-20.35-7.36-42.23-29.809-50.661Z"/></svg>
