<svg xmlns="http://www.w3.org/2000/svg" fill="none" viewBox="0 0 241 151"><path fill="#D6D6D6" d="M2.172 71.622c1.18-14.85 1.733-24.056 3.466-37.149C7.371 21.381 1.895 10.895 16.013 5.605 29.25.64 51.155.393 98.405.871c72.043.71 84.704-1.742 112.963-.154 28.26 1.588 24.216 11.134 25.924 24.565 1.708 13.432 4.622 60.142 2.889 71.815-1.734 11.674 2.311 26.894-7.486 37.504-9.797 10.609-31.123 8.851-52.45 11.319-21.326 2.467-66.843 6.369-111.23 2.837-44.386-3.531-63.93 2.976-66.843-19.816-2.588-20.17-1.181-42.453 0-57.319Z"/></svg>
