<svg xmlns="http://www.w3.org/2000/svg" fill="none" viewBox="0 0 325 240"><path fill="#000" d="M100.805 218.762C90.473 232.155 77.938 240 64.425 240 29.066 240 .4 186.274.4 120S29.064 0 64.426 0c13.512 0 26.047 7.845 36.379 21.238C107.627 7.845 115.905 0 124.828 0c12.629 0 23.964 15.713 31.712 40.625C167.681 15.713 183.983 0 202.144 0c17.634 0 33.515 14.814 44.621 38.48C255.003 14.815 266.782 0 279.862 0c24.908 0 45.101 53.726 45.101 120s-20.193 120-45.101 120c-13.08 0-24.859-14.814-33.097-38.481C235.659 225.186 219.778 240 202.144 240c-18.161 0-34.463-15.713-45.604-40.625C148.792 224.287 137.457 240 124.828 240c-8.923 0-17.201-7.845-24.023-21.238Z"/></svg>
