<svg xmlns="http://www.w3.org/2000/svg" fill="none" viewBox="0 0 240 245" preserveAspectRatio="none"><path fill="#000" d="M1.46 116.39C2.64 92.2 3.191 77.204 4.925 55.877 6.659 34.55 1.183 17.469 15.3 8.853 28.538.764 50.443.363 97.693 1.14c72.043 1.156 84.703-2.838 112.963-.251 28.26 2.587 24.215 18.136 25.924 40.016 1.708 21.879 4.622 97.966 2.888 116.982-1.733 19.016 2.311 43.809-7.485 61.091-9.797 17.282-31.124 14.419-52.45 18.438-21.327 4.019-66.844 10.374-111.23 4.622-44.387-5.752-63.93 4.848-66.844-32.279-2.587-32.856-1.18-69.154 0-93.37Z"/></svg>
