<svg xmlns="http://www.w3.org/2000/svg" fill="none" viewBox="0 0 241 241" preserveAspectRatio="none"><path fill="#D6D6D6" d="m240.243 120.33-22.955-17.688a46.726 46.726 0 0 0-6.622-4.281l6.532-9.532-23.18-8.27c-5.113-1.825-10.497-2.568-15.859-2.298a40.88 40.88 0 0 0 2.704-15.796l-.699-24.606-23.608 6.94c-3.086.902-6.014 2.186-8.785 3.763a51.451 51.451 0 0 0-.473-3.74c-.383-2.299-.969-4.574-1.667-6.783-.676-2.14-1.532-4.236-2.501-6.264-.856-1.802-1.802-3.56-2.906-5.25a52.558 52.558 0 0 0-2.297-3.245L120.288.342l-17.683 22.96a52.973 52.973 0 0 0-2.298 3.245 48.52 48.52 0 0 0-7.073 18.275 52.967 52.967 0 0 0-.474 3.74 40.507 40.507 0 0 0-8.785-3.763l-23.608-6.94-.698 24.606a40.87 40.87 0 0 0 2.703 15.796c-5.361-.27-10.745.473-15.859 2.298l-23.18 8.27 6.533 9.532a48.032 48.032 0 0 0-6.623 4.281L.333 120.33l22.955 17.689a46.776 46.776 0 0 0 6.623 4.281l-6.533 9.532 23.18 8.269c5.114 1.825 10.498 2.569 15.859 2.299a40.867 40.867 0 0 0-2.703 15.795l.698 24.606 23.608-6.94c3.086-.901 6.015-2.185 8.786-3.763.112 1.262.27 2.501.473 3.741.383 2.298.968 4.574 1.667 6.782.675 2.141 1.531 4.236 2.5 6.264.856 1.803 1.802 3.561 2.906 5.251a52.99 52.99 0 0 0 2.298 3.244l17.683 22.962 17.684-22.962a52.541 52.541 0 0 0 2.297-3.244 48.515 48.515 0 0 0 7.074-18.275 53.07 53.07 0 0 0 .473-3.74 40.543 40.543 0 0 0 8.785 3.763l23.608 6.94.699-24.606a40.897 40.897 0 0 0-2.703-15.796c5.361.271 10.745-.473 15.858-2.298l23.18-8.27-6.532-9.531a48.08 48.08 0 0 0 6.622-4.282l22.955-17.688-.09-.023Z"/></svg>
