<svg xmlns="http://www.w3.org/2000/svg" fill="none" viewBox="0 0 240 241"><path fill="#D9D9D9" d="M163.339 18.293c11.347 11.347 17.314 26.035 17.903 40.897 14.831.61 29.483 6.576 40.806 17.9 23.936 23.935 23.936 62.742 0 86.678-11.325 11.325-25.979 17.292-40.813 17.9-.628 14.802-6.594 29.42-17.896 40.722-23.935 23.935-62.743 23.935-86.678 0-11.302-11.302-17.267-25.92-17.896-40.722-14.834-.608-29.488-6.575-40.813-17.9-23.936-23.936-23.936-62.743 0-86.678 11.323-11.324 25.975-17.29 40.806-17.9.589-14.862 6.556-29.55 17.903-40.897 23.935-23.936 62.743-23.936 86.678 0Z"/></svg>
