<svg xmlns="http://www.w3.org/2000/svg" fill="none" viewBox="0 0 240 195"><path fill="#D6D6D6" d="M230.053 113.439c1.486-1.611 2.938-3.289 4.459-4.899 8.816-9.43 5.981-22.72-1.97-29.835 4.839-13.055-7.087-28.392-21.365-27.15-2.281-9.431-11.097-17.485-21.191-16.713 2.661-14.297-15.523-28.594-31.563-21.11a314.643 314.643 0 0 0-12.204 6.007C144.595 6.181 130.421-5.934 116.074 4c-4.598 3.189-9.127 6.41-13.69 9.633C99.377 4.47 90.838-2.276 78.531 1.684c-24.718 7.92-46.186 20.707-64.025 39.198-9.818 10.203-5.842 23.19 2.8 30.003-3.975 4.9-7.95 9.766-11.926 14.666-9.887 12.182-4.944 25.875 5.116 31.379-10.025 15.706 5.808 33.425 22.402 29.767 1.694 13.324 14.83 24.768 29.8 15.203.794-.503 1.555-1.007 2.35-1.51-5.877 16.646 13.344 34.131 29.8 24.13 5.393 2.282 11.65 2.382 17.562-1.208 5.323-3.222 10.647-6.478 15.971-9.699.346 13.961 15.107 26.915 30.56 17.585l14.727-8.86c6.811 9.196 20.639 13.559 31.01 3.021 12.929-13.122 24.752-28.124 33.084-44.367 5.22-10.236.76-22.082-7.709-27.586v.033Z"/></svg>
