<svg width="1900" height="180" viewBox="0 0 1900 180" fill="none" xmlns="http://www.w3.org/2000/svg">
<path d="M1900 0H0V137.199L41.5967 180L96.0072 128.595L122.357 153.703L148.707 128.595L183.098 161.366L217.49 128.595L272 180L326.311 128.595L352.661 153.703L385.512 122.399L426.406 161.366L460.797 128.595L514.5 180L556.786 140.823L586.5 169L633 135.443V137.199L674.5 180L729.159 128.595L755.55 153.703L781.942 128.595L816.388 161.366L850.833 128.595L905.5 180L959.826 128.595L986.218 153.703L1019.12 122.399L1060.08 161.366L1094.53 128.595L1149 180L1190.67 140.823L1220.31 169.029L1267 135.443L1308.5 180L1363.01 128.595L1389.36 153.703L1415.71 128.595L1450.1 161.366L1484.49 128.595L1539 180L1593.31 128.595L1619.66 153.703L1652.51 122.399L1693.41 161.366L1727.8 128.595L1782 180L1823.79 140.823L1853.39 169.029L1900 135.443V0Z" fill="#D6D6D6"/>
</svg>
