<svg xmlns="http://www.w3.org/2000/svg" fill="none" viewBox="0 0 226 241"><path fill="#D6D6D6" d="M99.49 180.282c-10.328 12.262-25.84 20.06-43.182 20.06-31.098 0-56.308-25.072-56.308-56 0-25.629 18.345-42.135 42.792-64.13C64.132 61.01 90.121 37.626 112.615.341c22.495 37.285 48.484 60.669 69.824 79.87 24.447 21.995 42.792 38.501 42.792 64.13 0 30.928-25.21 56-56.308 56-17.342 0-32.854-7.798-43.183-20.06 8.809 19.907 18.492 36.002 25.459 46.502 3.715 5.599-.311 13.558-7.056 13.558H81.088c-6.745 0-10.771-7.959-7.056-13.558 6.966-10.5 16.65-26.595 25.459-46.502Z"/></svg>
