<svg width="1900" height="180" viewBox="0 0 1900 180" fill="none" xmlns="http://www.w3.org/2000/svg">
<path d="M1900 0H0V180C19.6897 179.104 38.8649 171.56 58.0465 164.012C74.1979 157.657 90.3539 151.301 106.826 148.91C131.167 145.379 154.801 154.789 178.462 164.21C187.231 167.701 196.003 171.194 204.817 174.03C236.078 184.09 265.358 176.76 296.134 164.36C324.214 153.05 351.603 144.02 380.268 151.37C392.207 154.434 404.014 159.22 415.819 164.005C432.022 170.572 448.221 177.138 464.752 179.25C488.639 182.304 511.927 173.011 535.2 163.724C538.904 162.246 542.608 160.768 546.315 159.34C575.46 148.11 602.994 145.54 632.324 155.81C639.362 158.274 646.383 161.088 653.407 163.902C676.166 173.022 698.942 182.148 722.311 179.42C739.167 177.452 755.711 170.717 772.25 163.986C791.672 156.08 811.086 148.178 830.988 148C851.945 147.813 872.423 155.917 892.914 164.026C911.965 171.565 931.028 179.109 950.5 180C970.19 179.104 989.365 171.56 1008.55 164.012C1024.7 157.657 1040.85 151.301 1057.33 148.91C1081.67 145.379 1105.3 154.789 1128.96 164.21C1137.73 167.701 1146.5 171.194 1155.32 174.03C1186.58 184.09 1215.86 176.76 1246.63 164.36C1274.71 153.05 1302.1 144.02 1330.77 151.37C1342.71 154.434 1354.51 159.22 1366.32 164.005C1382.52 170.572 1398.72 177.138 1415.25 179.25C1439.14 182.304 1462.43 173.011 1485.7 163.724C1489.4 162.246 1493.11 160.768 1496.81 159.34C1525.96 148.11 1553.49 145.54 1582.82 155.81C1589.86 158.274 1596.88 161.088 1603.91 163.902C1626.67 173.022 1649.44 182.148 1672.81 179.42C1689.67 177.452 1706.21 170.717 1722.75 163.986C1742.17 156.08 1761.59 148.178 1781.49 148C1802.45 147.813 1822.92 155.917 1843.41 164.026C1862.47 171.565 1880.53 179.109 1900 180V90V0Z" fill="#D6D6D6"/>
</svg>
