<svg width="1900" height="180" viewBox="0 0 1900 180" fill="none" xmlns="http://www.w3.org/2000/svg">
<path d="M0 91.01V137.45C28.71 137.36 57.68 138.42 111.24 140.42C150.21 141.88 200.01 143.76 266.6 147.54C317.97 150.45 358.16 153.29 389.25 155.5C457 160.31 460.09 161.21 503.73 163.88C546.95 166.52 541.12 165.47 624.75 169.75C684.46 172.8 702.32 174.1 742.5 175.19C791.92 176.54 814.63 175.93 824.27 175.61C846.36 174.88 865.16 173.31 902.77 170.17C936.35 167.36 959.82 165.4 989.44 161.79C1026.02 157.34 1022.6 156.39 1064.67 150.9C1113.14 144.57 1150.15 141.58 1159.52 140.85C1176.53 139.51 1199.16 137.76 1229.84 136.66C1268.41 135.28 1297.89 135.72 1329.6 136.24C1365.66 136.83 1392.43 137.98 1419.54 139.17C1437.24 139.95 1453.43 140.77 1519.3 144.61C1604.4 149.59 1596.49 149.34 1625.6 150.9C1666.47 153.08 1703.44 155.03 1753.16 156.34C1790.66 157.33 1819.43 157.54 1830.02 157.6C1845.88 157.69 1870.3 157.91 1900 157.5V91.02H0V91.01Z" fill="#7D7D7D" fill-opacity="0.4"/>
<path d="M0 91.01V120.633C13.8706 119.279 34.2733 117.464 69.222 115.559C164.33 110.384 240.699 110.535 294.549 110.715C334.326 110.846 382.954 111.066 446.51 113.744C511.831 116.502 560.378 120.483 595.861 123.431C643.471 127.392 676.756 131.002 729.487 136.748C828.547 147.559 825.15 148.852 886.69 154.909C940.157 160.184 992.081 165.198 1064.85 167.625C1132.2 169.871 1185.7 168.828 1208.96 168.227C1244.7 167.304 1269.96 165.78 1319 162.781C1364.76 159.973 1427.89 156.052 1507.64 148.251C1581 141.08 1633.34 134.051 1649.13 131.905C1670.29 129.017 1698.97 124.895 1772.27 112.53C1847.22 99.895 1874.76 95.643 1900 91H0V91.01Z" fill="#7D7D7D" fill-opacity="0.4"/>
<path d="M0 90V180C55.64 179.42 89.85 178.23 104.38 177.56C131.12 176.32 153.81 174.86 200.87 171.27C283.63 164.97 344.69 159.52 368.24 157.45C438.28 151.29 424.12 153.26 588.78 140.27C721.95 129.76 761.8 126.06 852.64 120.16C908.74 116.52 969 113.03 1045.61 113.46C1103.42 113.78 1138.62 116.15 1148 116.81C1168.57 118.26 1182.92 119.79 1258.27 129.38C1317.15 136.87 1324.38 137.97 1362.64 142.79C1421.26 150.17 1450.58 153.87 1482.75 157.03C1514.9 160.2 1555.09 164.15 1608.77 166.67C1653.32 168.75 1687.04 168.76 1754.49 168.76C1804.58 168.76 1853.14 163.99 1900 163L1899.99 90H0Z" fill="#7D7D7D" fill-opacity="0.32"/>
<path d="M1900 0H0V169.67C28.5449 165.757 56.429 158.818 84.7932 151.76C125.072 141.737 166.318 131.473 211.8 129.29C261.443 126.905 314.93 132.162 365.885 137.17C405.512 141.064 443.607 144.808 477.17 144.69C568.271 143.12 695.201 126.924 809.071 112.395C840.218 108.421 870.388 104.571 898.58 101.18C1092.47 85.4406 1326.38 108.141 1543.97 129.258C1672.14 141.696 1794.65 153.585 1899.99 156.747V91H1900V0Z" fill="#7D7D7D"/>
</svg>
